<svg width="528" height="566" viewBox="0 0 528 566" fill="none" xmlns="http://www.w3.org/2000/svg">
<path d="M525 315C525 453.623 421.5 559 274.5 566C136.153 566 24 453.623 24 315C24 176.377 136.153 64 274.5 64C412.847 64 525 176.377 525 315Z" fill="#0A91B1"/>
<mask id="mask0_34_4329" style="mask-type:alpha" maskUnits="userSpaceOnUse" x="0" y="0" width="528" height="566">
<path d="M527 305C533 443.5 419.39 566 271.844 566C124.298 566 24.5 440.5 0 283C0 135.468 18.5071 0 302 0C485.55 0 527 157.468 527 305Z" fill="#7ED6B2"/>
</mask>
<g mask="url(#mask0_34_4329)">
<mask id="mask1_34_4329" style="mask-type:alpha" maskUnits="userSpaceOnUse" x="-22" y="-18" width="568" height="596">
<rect x="-22" y="-17.5" width="568" height="595" fill="#DBEEE6"/>
</mask>
<g mask="url(#mask1_34_4329)">
<rect x="127" y="37.5" width="308" height="585" rx="33" fill="white" stroke="#152F25" stroke-width="12"/>
<path d="M205 38.5H375V47.5C375 57.9934 366.493 66.5 356 66.5H224C213.507 66.5 205 57.9934 205 47.5V38.5Z" fill="#152F25"/>
<rect x="235" y="45.5" width="90" height="6" rx="3" fill="white"/>
<rect x="337" y="44.5" width="7" height="7" rx="3.5" fill="white"/>
<rect x="271" y="382.5" width="225" height="68" rx="7.47999" fill="#02C68B" stroke="black" stroke-width="2"/>
<path d="M325.796 418.297V426.854H321.691V407.119H325.68V414.664H325.854C326.188 413.79 326.728 413.106 327.473 412.612C328.218 412.111 329.153 411.86 330.277 411.86C331.305 411.86 332.201 412.085 332.965 412.535C333.736 412.978 334.334 413.617 334.758 414.452C335.188 415.281 335.4 416.273 335.394 417.43V426.854H331.289V418.162C331.295 417.25 331.064 416.54 330.595 416.033C330.132 415.525 329.484 415.271 328.648 415.271C328.089 415.271 327.595 415.39 327.164 415.628C326.74 415.865 326.406 416.212 326.162 416.669C325.924 417.118 325.802 417.661 325.796 418.297ZM346.497 412.053V415.136H337.584V412.053H346.497ZM339.607 408.507H343.712V422.306C343.712 422.685 343.77 422.98 343.886 423.192C344.001 423.398 344.162 423.542 344.368 423.626C344.58 423.709 344.824 423.751 345.1 423.751C345.293 423.751 345.485 423.735 345.678 423.703C345.871 423.664 346.019 423.636 346.121 423.616L346.767 426.671C346.562 426.735 346.272 426.809 345.9 426.893C345.527 426.983 345.074 427.037 344.541 427.056C343.552 427.095 342.685 426.963 341.939 426.661C341.201 426.359 340.626 425.89 340.214 425.254C339.803 424.618 339.601 423.815 339.607 422.845V408.507ZM357.044 412.053V415.136H348.131V412.053H357.044ZM350.154 408.507H354.259V422.306C354.259 422.685 354.317 422.98 354.433 423.192C354.548 423.398 354.709 423.542 354.915 423.626C355.127 423.709 355.371 423.751 355.647 423.751C355.84 423.751 356.032 423.735 356.225 423.703C356.418 423.664 356.566 423.636 356.668 423.616L357.314 426.671C357.109 426.735 356.819 426.809 356.447 426.893C356.074 426.983 355.621 427.037 355.088 427.056C354.099 427.095 353.231 426.963 352.486 426.661C351.748 426.359 351.173 425.89 350.761 425.254C350.35 424.618 350.148 423.815 350.154 422.845V408.507ZM359.718 432.405V412.053H363.766V414.539H363.949C364.129 414.141 364.389 413.736 364.729 413.325C365.076 412.907 365.526 412.56 366.078 412.284C366.637 412.001 367.331 411.86 368.16 411.86C369.239 411.86 370.235 412.143 371.147 412.708C372.059 413.267 372.788 414.112 373.335 415.242C373.881 416.367 374.154 417.777 374.154 419.473C374.154 421.124 373.887 422.518 373.354 423.655C372.827 424.786 372.108 425.643 371.195 426.228C370.289 426.806 369.274 427.095 368.15 427.095C367.354 427.095 366.676 426.963 366.117 426.7C365.564 426.437 365.112 426.106 364.758 425.707C364.405 425.303 364.135 424.895 363.949 424.484H363.823V432.405H359.718ZM363.737 419.453C363.737 420.334 363.859 421.101 364.103 421.756C364.347 422.412 364.7 422.922 365.163 423.289C365.625 423.648 366.188 423.828 366.849 423.828C367.517 423.828 368.083 423.645 368.545 423.279C369.008 422.906 369.358 422.392 369.596 421.737C369.84 421.076 369.962 420.314 369.962 419.453C369.962 418.599 369.843 417.847 369.605 417.199C369.368 416.55 369.017 416.042 368.555 415.676C368.092 415.31 367.524 415.127 366.849 415.127C366.181 415.127 365.616 415.303 365.153 415.657C364.697 416.01 364.347 416.511 364.103 417.16C363.859 417.809 363.737 418.573 363.737 419.453ZM379.29 427.105C378.654 427.105 378.108 426.88 377.652 426.43C377.202 425.974 376.977 425.428 376.977 424.792C376.977 424.162 377.202 423.623 377.652 423.173C378.108 422.723 378.654 422.498 379.29 422.498C379.907 422.498 380.446 422.723 380.909 423.173C381.371 423.623 381.603 424.162 381.603 424.792C381.603 425.216 381.493 425.605 381.275 425.958C381.063 426.305 380.783 426.584 380.437 426.796C380.09 427.002 379.707 427.105 379.29 427.105ZM379.29 416.736C378.654 416.736 378.108 416.511 377.652 416.061C377.202 415.612 376.977 415.066 376.977 414.423C376.977 413.794 377.202 413.257 377.652 412.814C378.108 412.364 378.654 412.139 379.29 412.139C379.907 412.139 380.446 412.364 380.909 412.814C381.371 413.257 381.603 413.794 381.603 414.423C381.603 414.854 381.493 415.246 381.275 415.599C381.063 415.946 380.783 416.222 380.437 416.428C380.09 416.633 379.707 416.736 379.29 416.736ZM393.568 406.194L387.208 429.822H383.672L390.032 406.194H393.568ZM404.142 406.194L397.782 429.822H394.245L400.605 406.194H404.142ZM409.04 426.854L405.012 412.053H409.165L411.458 421.997H411.593L413.983 412.053H418.059L420.488 421.94H420.613L422.868 412.053H427.011L422.993 426.854H418.647L416.103 417.545H415.92L413.376 426.854H409.04ZM432.121 426.854L428.093 412.053H432.246L434.54 421.997H434.675L437.065 412.053H441.141L443.569 421.94H443.694L445.949 412.053H450.093L446.075 426.854H441.729L439.185 417.545H439.001L436.457 426.854H432.121ZM455.203 426.854L451.175 412.053H455.328L457.621 421.997H457.756L460.146 412.053H464.222L466.651 421.94H466.776L469.031 412.053H473.174L469.156 426.854H464.81L462.266 417.545H462.083L459.539 426.854H455.203ZM475.75 427.105C475.114 427.105 474.568 426.88 474.112 426.43C473.662 425.974 473.437 425.428 473.437 424.792C473.437 424.162 473.662 423.623 474.112 423.173C474.568 422.723 475.114 422.498 475.75 422.498C476.366 422.498 476.906 422.723 477.369 423.173C477.831 423.623 478.062 424.162 478.062 424.792C478.062 425.216 477.953 425.605 477.735 425.958C477.523 426.305 477.243 426.584 476.896 426.796C476.55 427.002 476.167 427.105 475.75 427.105Z" fill="white"/>
<path d="M302.812 423.257C303.3 423.257 303.767 423.063 304.111 422.718C304.456 422.374 304.65 421.906 304.65 421.419C304.65 420.932 304.456 420.465 304.111 420.12C303.767 419.775 303.3 419.582 302.812 419.582C302.325 419.582 301.858 419.775 301.513 420.12C301.168 420.465 300.975 420.932 300.975 421.419C300.975 421.906 301.168 422.374 301.513 422.718C301.858 423.063 302.325 423.257 302.812 423.257ZM308.324 414.989C308.812 414.989 309.279 415.182 309.623 415.527C309.968 415.871 310.162 416.339 310.162 416.826V426.013C310.162 426.5 309.968 426.967 309.623 427.312C309.279 427.656 308.812 427.85 308.324 427.85H297.3C296.813 427.85 296.346 427.656 296.001 427.312C295.656 426.967 295.463 426.5 295.463 426.013V416.826C295.463 416.339 295.656 415.871 296.001 415.527C296.346 415.182 296.813 414.989 297.3 414.989H298.219V413.151C298.219 411.933 298.703 410.765 299.564 409.903C300.426 409.042 301.594 408.558 302.812 408.558C303.415 408.558 304.013 408.677 304.57 408.908C305.127 409.138 305.634 409.477 306.06 409.903C306.487 410.33 306.825 410.836 307.056 411.393C307.287 411.951 307.406 412.548 307.406 413.151V414.989H308.324ZM302.812 410.395C302.081 410.395 301.38 410.686 300.863 411.202C300.347 411.719 300.056 412.42 300.056 413.151V414.989H305.568V413.151C305.568 412.42 305.278 411.719 304.761 411.202C304.244 410.686 303.543 410.395 302.812 410.395Z" fill="white"/>
<path d="M19.8276 185.5C19.8276 171.693 31.0205 160.5 44.8276 160.5H298.5C312.307 160.5 323.5 171.693 323.5 185.5V271.5C323.5 285.307 312.307 296.5 298.5 296.5H43.2452H4L19.8276 266.278V185.5Z" fill="#F75B5B"/>
<rect x="68.5" y="199.5" width="198" height="21" rx="10.5" fill="white"/>
<rect x="68.5" y="235.5" width="164" height="21" rx="10.5" fill="white"/>
<path d="M333.879 238.379C332.707 239.55 332.707 241.45 333.879 242.621L352.971 261.713C354.142 262.885 356.042 262.885 357.213 261.713C358.385 260.542 358.385 258.642 357.213 257.471L340.243 240.5L357.213 223.529C358.385 222.358 358.385 220.458 357.213 219.287C356.042 218.115 354.142 218.115 352.971 219.287L333.879 238.379ZM483 240.5H486V237.5H483V240.5ZM336 243.5H483V237.5H336V243.5ZM480 240.5V321.5H486V240.5H480Z" fill="#F9A33F"/>
<circle cx="481" cy="368.5" r="38" fill="#F9A33F"/>
<path d="M453.351 299.934C452.486 298.521 450.639 298.076 449.226 298.941C447.813 299.806 447.368 301.653 448.233 303.066L453.351 299.934ZM448.233 303.066L462.311 326.066L467.429 322.934L453.351 299.934L448.233 303.066Z" fill="#F9A33F"/>
<path d="M523.353 305.251C524.316 303.957 523.964 302.124 522.566 301.157C521.168 300.19 519.254 300.455 518.291 301.749L523.353 305.251ZM502.088 323.524L500.344 325.867L505.407 329.368L507.15 327.025L502.088 323.524ZM518.291 301.749L502.088 323.524L507.15 327.025L523.353 305.251L518.291 301.749Z" fill="#F9A33F"/>
</g>
</g>
<g clip-path="url(#clip0_34_4329)">
<path d="M477.49 381.49C475.4 383.58 471.6 383.58 469.51 381.49C468.37 380.54 467.8 379.02 467.8 377.5C467.8 375.98 468.37 374.46 469.51 373.51L476.54 366.48L473.88 363.82L466.85 370.85C464.95 372.56 464 375.03 464 377.5C464 379.97 464.95 382.44 466.85 384.15C468.56 386.05 471.03 387 473.5 387C475.97 387 478.44 386.05 480.15 384.15L487.18 377.12L484.52 374.46L477.49 381.49Z" fill="white"/>
<path d="M499.15 351.85C497.44 349.95 494.97 349 492.5 349C490.03 349 487.56 349.95 485.85 351.85L478.82 358.88L481.48 361.54L488.51 354.51C490.6 352.42 494.4 352.42 496.49 354.51C497.63 355.46 498.2 356.98 498.2 358.5C498.2 360.02 497.63 361.54 496.49 362.49L489.46 369.52L492.12 372.18L499.15 365.15C501.05 363.44 502 360.97 502 358.5C502 356.03 501.05 353.56 499.15 351.85Z" fill="white"/>
<path d="M487.972 360.339L490.658 363.026L478.166 375.519L475.479 372.832L487.972 360.339Z" fill="white"/>
</g>
<defs>
<clipPath id="clip0_34_4329">
<rect width="38" height="38" fill="white" transform="translate(464 349)"/>
</clipPath>
</defs>
</svg>
