<svg width="500" height="500" viewBox="0 0 500 500" fill="none" xmlns="http://www.w3.org/2000/svg">
<path d="M40.7497 165.044C47.7327 150.512 56.2277 136.542 65.9067 123.276C94.0547 84.6941 134.697 53.8521 182.387 40.2561C231.051 26.3821 286.137 39.9801 325.084 73.3691C345.278 90.6811 360.761 112.487 370.68 136.45C377.715 153.445 385.241 170.606 397.096 185.249C407.444 198.031 420.943 208.26 432.023 220.486C454.988 245.828 471.13 275.762 470.953 309.306C470.726 352.182 453.456 408.376 409.09 426.838C372.4 442.105 331.4 422.141 293.528 419.614C258.167 417.255 227.437 435.504 193.105 435.892C111.206 436.819 43.1627 371.539 24.9047 297.27C13.4957 250.866 21.1897 205.75 40.7497 165.044Z" fill="#B5DEE8"/>
<path opacity="0.7" d="M40.7497 165.044C47.7327 150.512 56.2277 136.542 65.9067 123.276C94.0547 84.6941 134.697 53.8521 182.387 40.2561C231.051 26.3821 286.137 39.9801 325.084 73.3691C345.278 90.6811 360.761 112.487 370.68 136.45C377.715 153.445 385.241 170.606 397.096 185.249C407.444 198.031 420.943 208.26 432.023 220.486C454.988 245.828 471.13 275.762 470.953 309.306C470.726 352.182 453.456 408.376 409.09 426.838C372.4 442.105 331.4 422.141 293.528 419.614C258.167 417.255 227.437 435.504 193.105 435.892C111.206 436.819 43.1627 371.539 24.9047 297.27C13.4957 250.866 21.1897 205.75 40.7497 165.044Z" fill="white"/>
<path d="M460.968 363.661C458.088 364.919 451.043 364.76 451.037 364.76C450.964 364.758 452.551 360.148 452.685 359.869C454.23 356.635 459.119 351.296 463.096 351.834C465.961 352.221 467.555 355.089 466.908 357.787C466.248 360.543 463.422 362.589 460.968 363.661Z" fill="#263238"/>
<path d="M458.537 384.068C455.549 384.504 449.262 382.68 448.762 382.533C447.769 386.053 446.465 389.584 444.949 393.084C444.085 395.086 443.151 397.076 442.19 399.059C442.763 398.219 443.282 397.472 443.366 397.375C445.712 394.664 451.836 390.806 455.529 392.375C458.191 393.505 458.97 396.691 457.634 399.123C456.27 401.606 453.002 402.834 450.353 403.22C447.665 403.612 442.274 402.165 440.852 401.763C440.475 402.52 440.108 403.28 439.728 404.035C437.908 407.66 436.075 411.27 434.386 414.866C433.79 416.133 433.25 417.402 432.705 418.671C433.215 417.925 433.651 417.301 433.728 417.213C436.073 414.503 442.197 410.644 445.891 412.213C448.553 413.343 449.332 416.53 447.996 418.961C446.63 421.444 443.364 422.672 440.715 423.058C438.15 423.432 433.162 422.141 431.47 421.672C430.951 422.988 430.429 424.305 429.985 425.603C429.702 426.496 429.367 427.337 429.134 428.25C428.883 429.149 428.635 430.039 428.389 430.921C427.977 432.636 427.542 434.403 427.183 436.086C426.924 437.255 426.699 438.373 426.469 439.499C427.047 438.231 428.232 435.772 428.354 435.578C430.26 432.544 435.73 427.802 439.62 428.793C442.422 429.507 443.675 432.539 442.722 435.144C441.749 437.805 438.706 439.514 436.147 440.297C433.328 441.158 427.088 440.371 426.309 440.268C425.935 442.132 425.589 443.949 425.29 445.67C424.621 449.466 424.116 452.868 423.732 455.747H421.101C421.56 452.768 422.159 449.218 422.952 445.233C423.324 443.338 423.759 441.321 424.226 439.254C423.757 439.068 421.095 437.991 418.737 436.673C416.683 438.898 411.419 441.501 410.738 441.832C411.454 443.594 412.168 445.3 412.868 446.9C414.323 450.25 415.706 453.221 416.926 455.748H414.081C413.032 453.419 411.878 450.765 410.676 447.826C409.941 446.04 409.191 444.117 408.44 442.136C407.685 442.294 401.508 443.548 398.629 442.898C396.019 442.308 392.856 440.83 391.687 438.249C390.543 435.722 391.567 432.605 394.309 431.685C398.113 430.407 403.921 434.728 406.048 437.612C406.174 437.782 407.33 439.78 408.038 441.052C407.735 440.241 407.433 439.456 407.131 438.617C406.523 436.962 405.966 435.293 405.361 433.499C405.099 432.622 404.834 431.737 404.566 430.843C404.282 429.961 404.094 428.995 403.851 428.063C403.333 425.89 402.915 423.664 402.543 421.412C401.092 421.94 395.914 423.741 393.232 423.552C390.561 423.364 387.212 422.384 385.666 420.009C384.152 417.685 384.692 414.448 387.262 413.123C390.829 411.283 397.225 414.675 399.765 417.203C399.924 417.36 401.542 419.38 402.41 420.506C402.197 419.15 401.978 417.798 401.807 416.42C401.313 412.441 400.937 408.397 400.544 404.365C400.425 403.13 400.29 401.901 400.161 400.669C399.647 400.863 393.539 403.137 390.534 402.926C387.864 402.739 384.514 401.758 382.968 399.383C381.454 397.059 381.994 393.822 384.564 392.498C388.131 390.658 394.526 394.049 397.066 396.578C397.257 396.768 399.583 399.677 400.138 400.446C399.851 397.734 399.541 395.036 399.126 392.387C398.56 388.732 397.801 385.177 396.813 381.788C396.574 381.879 390.209 384.281 387.132 384.065C384.461 383.877 381.111 382.896 379.566 380.522C378.052 378.198 378.592 374.962 381.162 373.636C384.729 371.796 391.124 375.188 393.665 377.716C393.864 377.915 396.364 381.045 396.777 381.645C396.717 381.444 396.678 381.228 396.617 381.028C395.515 377.423 393.995 374.069 392.418 370.998C391.505 369.212 390.533 367.556 389.551 365.966C388.411 366.535 383.174 369.078 380.384 369.189C377.709 369.296 374.272 368.689 372.475 366.498C370.715 364.354 370.896 361.078 373.305 359.478C376.649 357.258 383.377 359.926 386.18 362.16C386.332 362.281 387.745 363.688 388.759 364.727C388.305 364.016 387.85 363.274 387.401 362.602C385.722 360.073 384.029 357.861 382.513 355.914C381.642 354.814 380.834 353.837 380.066 352.93C378.657 352.905 372.978 352.733 370.495 351.567C368.073 350.429 365.301 348.307 364.715 345.534C364.142 342.819 365.812 339.996 368.686 339.686C372.677 339.256 377.419 344.725 378.877 347.999C379.003 348.282 380.465 352.934 380.391 352.933C380.391 352.933 380.322 352.932 380.306 352.932C381.062 353.789 381.861 354.718 382.715 355.749C384.276 357.667 386.022 359.848 387.762 362.349C389.508 364.845 391.335 367.605 392.996 370.686C394.666 373.773 396.264 377.105 397.467 380.751C397.481 380.792 397.489 380.837 397.503 380.878C397.482 379.702 397.534 376.413 397.567 376.161C398.028 372.607 401.006 366.009 404.954 365.279C407.797 364.754 410.205 366.981 410.432 369.746C410.663 372.57 408.616 375.396 406.619 377.18C404.368 379.191 398.118 381.139 397.62 381.293C398.734 384.776 399.594 388.44 400.26 392.196C400.643 394.344 400.962 396.518 401.255 398.703C401.27 397.686 401.29 396.776 401.307 396.65C401.768 393.095 404.747 386.499 408.694 385.769C411.538 385.243 413.946 387.471 414.172 390.236C414.404 393.06 412.356 395.886 410.36 397.67C408.334 399.479 403.039 401.247 401.632 401.696C401.735 402.535 401.848 403.372 401.948 404.212C402.429 408.24 402.892 412.261 403.467 416.192C403.668 417.577 403.918 418.934 404.164 420.292C404.178 419.389 404.198 418.628 404.213 418.513C404.674 414.958 407.653 408.362 411.599 407.632C414.443 407.107 416.851 409.334 417.078 412.1C417.309 414.923 415.261 417.75 413.264 419.533C411.332 421.26 406.458 422.935 404.788 423.477C405.081 424.861 405.372 426.247 405.718 427.575C405.975 428.476 406.16 429.361 406.468 430.252C406.755 431.14 407.038 432.02 407.319 432.89C407.922 434.547 408.534 436.261 409.162 437.863C409.591 438.981 410.021 440.037 410.45 441.103C410.233 439.727 409.865 437.023 409.86 436.794C409.805 434.413 410.65 430.543 412.333 427.822C412.323 427.47 412.343 427.12 412.398 426.772C412.838 424.033 415.412 421.998 418.206 422.743C422.084 423.776 424.544 430.584 424.728 434.162C424.739 434.373 424.601 436.677 424.49 438.13C424.686 437.286 424.865 436.465 425.077 435.599C425.484 433.884 425.941 432.184 426.424 430.352C426.689 429.476 426.957 428.592 427.227 427.698C427.476 426.807 427.853 425.897 428.164 424.985C428.931 422.888 429.81 420.799 430.743 418.716C429.241 418.356 423.929 417.002 421.796 415.365C419.672 413.736 417.42 411.069 417.44 408.236C417.46 405.461 419.695 403.06 422.57 403.373C426.56 403.806 430.023 410.163 430.748 413.673C430.793 413.892 431.029 416.469 431.132 417.887C431.702 416.639 432.265 415.39 432.884 414.146C434.667 410.554 436.584 406.974 438.481 403.394C439.063 402.298 439.629 401.199 440.2 400.1C439.664 399.977 433.315 398.504 430.925 396.671C428.801 395.042 426.549 392.375 426.569 389.542C426.589 386.768 428.824 384.367 431.699 384.68C435.69 385.113 439.152 391.469 439.877 394.98C439.931 395.245 440.266 398.953 440.305 399.9C441.562 397.481 442.792 395.058 443.907 392.621C445.451 389.26 446.78 385.877 447.825 382.505C447.575 382.448 440.941 380.94 438.494 379.063C436.37 377.434 434.118 374.768 434.138 371.934C434.157 369.16 436.393 366.759 439.268 367.072C443.258 367.505 446.721 373.862 447.445 377.372C447.502 377.648 447.86 381.638 447.873 382.365C447.935 382.164 448.021 381.964 448.081 381.763C449.15 378.147 449.733 374.512 450.112 371.08C450.336 369.087 450.438 367.169 450.496 365.301C449.232 365.147 443.461 364.379 441.072 362.932C438.782 361.545 436.25 359.143 435.959 356.325C435.674 353.565 437.633 350.933 440.524 350.928C444.538 350.92 448.678 356.858 449.783 360.267C449.843 360.453 450.246 362.405 450.518 363.831C450.531 362.987 450.561 362.117 450.557 361.309C450.551 358.274 450.36 355.495 450.17 353.035C450.051 351.637 449.915 350.375 449.775 349.196C448.614 348.397 443.972 345.12 442.544 342.779C441.151 340.493 440.011 337.195 441.051 334.559C442.07 331.978 445.021 330.545 447.589 331.872C451.155 333.715 452.093 340.893 451.503 344.428C451.451 344.733 450.105 349.419 450.044 349.379C450.044 349.379 449.987 349.34 449.974 349.331C450.131 350.463 450.286 351.679 450.428 353.01C450.673 355.471 450.926 358.253 450.997 361.3C451.076 364.344 451.077 367.655 450.763 371.142C450.452 374.637 449.948 378.298 448.94 382.002C448.929 382.044 448.911 382.086 448.899 382.128C449.531 381.136 451.389 378.422 451.556 378.229C453.901 375.518 460.025 371.66 463.719 373.228C466.38 374.359 467.16 377.545 465.824 379.977C464.452 382.454 461.185 383.681 458.537 384.068Z" fill="#263238"/>
<path d="M389.711 365.211C389.649 365.25 388.43 360.529 388.387 360.222C387.893 356.672 389.025 349.523 392.639 347.777C395.242 346.519 398.153 348.032 399.101 350.64C400.07 353.302 398.842 356.569 397.387 358.816C395.679 361.454 389.715 365.208 389.711 365.211Z" fill="#263238"/>
<path opacity="0.2" d="M45.4058 247.25C36.1908 247.25 28.6928 254.748 28.6928 263.963C28.6928 269.249 31.1668 273.961 35.0098 277.026L30.5898 284.806C29.2218 284.82 27.8958 285.518 27.1638 286.789L15.1388 307.602C14.0338 309.515 14.6878 311.961 16.6008 313.067C17.2308 313.43 17.9188 313.604 18.5978 313.604C19.9798 313.604 21.3238 312.887 22.0648 311.604L34.0898 290.791C34.8338 289.503 34.7648 287.982 34.0668 286.783L38.4178 279.125C40.5468 280.111 42.9088 280.676 45.4058 280.676C54.6208 280.676 62.1188 273.179 62.1188 263.964C62.1178 254.748 54.6208 247.25 45.4058 247.25ZM45.4058 277.676C37.8438 277.676 31.6928 271.525 31.6928 263.964C31.6928 256.402 37.8438 250.251 45.4058 250.251C52.9668 250.251 59.1188 256.403 59.1188 263.964C59.1178 271.525 52.9668 277.676 45.4058 277.676Z" fill="black"/>
<path opacity="0.2" d="M359.05 70.4781C356.798 79.4141 362.235 88.5161 371.172 90.7691C376.298 92.0611 381.471 90.8141 385.382 87.8361L391.846 94.0231C391.525 95.3531 391.878 96.8091 392.932 97.8301L410.174 114.577C411.759 116.116 414.291 116.079 415.831 114.495C416.337 113.973 416.674 113.348 416.84 112.69C417.178 111.35 416.811 109.871 415.748 108.839L398.506 92.0921C397.439 91.0561 395.947 90.7511 394.614 91.1351L388.251 85.0451C389.727 83.2211 390.853 81.0691 391.463 78.6481C393.715 69.7121 388.278 60.6101 379.342 58.3571C370.405 56.1051 361.303 61.5421 359.05 70.4781ZM388.553 77.9151C386.705 85.2471 379.237 89.7091 371.905 87.8611C364.573 86.0131 360.111 78.5441 361.959 71.2121C363.807 63.8801 371.276 59.4191 378.608 61.2671C385.94 63.1141 390.402 70.5821 388.553 77.9151Z" fill="black"/>
<g opacity="0.2">
<path d="M392.73 267.79C402.342 266.275 408.905 257.255 407.39 247.644C405.875 238.032 396.855 231.469 387.244 232.984C377.632 234.499 371.069 243.519 372.584 253.13C374.099 262.742 383.119 269.305 392.73 267.79Z" stroke="black" stroke-miterlimit="10" stroke-linecap="round" stroke-linejoin="round"/>
<path d="M395.735 265.663L398.552 263.409L398.27 262.001L397.425 259.466L395.735 257.494L389.538 255.522C389.538 255.522 388.693 255.804 387.003 256.649C385.313 257.494 385.313 256.931 384.186 256.931C383.059 256.931 381.651 256.086 381.651 256.086L379.679 252.706L381.088 249.325L382.778 247.353L383.341 244.254L385.595 238.338L386.158 234.394C386.069 233.904 385.879 233.562 385.623 233.323C379.988 234.765 375.452 238.913 373.471 244.311C373.24 245.451 373.2 246.225 373.2 246.225L373.482 249.324L374.609 251.014L376.863 252.986L378.271 254.958L380.806 258.902L383.623 260.029L385.595 262.564V267.413C385.921 267.497 386.243 267.586 386.576 267.652C387.598 267.681 389.162 267.762 389.996 267.99C390.273 267.99 390.544 267.961 390.818 267.948C392.587 267.563 395.735 265.663 395.735 265.663Z" stroke="black" stroke-miterlimit="10" stroke-linecap="round" stroke-linejoin="round"/>
<path d="M397.09 234.253L396.581 234.958L395.736 238.057C395.736 238.057 393.764 240.874 394.891 242.564C396.018 244.254 398.553 245.663 398.553 245.663H401.088L403.342 244.818C403.342 244.818 404.187 244.536 404.187 246.508C404.187 248.48 406.159 251.578 406.159 251.578L407.194 254.165C407.463 252.942 407.614 251.675 407.614 250.372C407.613 243.168 403.284 236.984 397.09 234.253Z" stroke="black" stroke-miterlimit="10" stroke-linecap="round" stroke-linejoin="round"/>
</g>
<g opacity="0.2">
<path d="M81.45 114.547C91.1802 114.547 99.068 106.659 99.068 96.929C99.068 87.1989 91.1802 79.311 81.45 79.311C71.7199 79.311 63.832 87.1989 63.832 96.929C63.832 106.659 71.7199 114.547 81.45 114.547Z" stroke="black" stroke-miterlimit="10" stroke-linecap="round" stroke-linejoin="round"/>
<path d="M87.1903 112.22L90.0073 109.966L89.7253 108.557L88.8803 106.022L87.1903 104.05L80.9933 102.078C80.9933 102.078 80.1483 102.36 78.4583 103.205C76.7683 104.05 76.7683 103.487 75.6413 103.487C74.5143 103.487 73.1063 102.642 73.1063 102.642L71.1343 99.2621L72.5433 95.8821L74.2333 93.9101L74.7963 90.8111L77.0503 84.8951L77.6133 80.9511C77.5243 80.4611 77.3353 80.1191 77.0783 79.8801C71.4433 81.3221 66.9073 85.4701 64.9263 90.8681C64.6953 92.0081 64.6553 92.7821 64.6553 92.7821L64.9373 95.8811L66.0643 97.5711L68.3183 99.5431L69.7273 101.515L72.2623 105.459L75.0793 106.586L77.0513 109.121V113.97C77.3773 114.054 77.7003 114.143 78.0323 114.209C79.0543 114.238 80.6183 114.32 81.4523 114.547C81.7303 114.547 82.0003 114.518 82.2743 114.506C84.0433 114.12 87.1903 112.22 87.1903 112.22Z" stroke="black" stroke-miterlimit="10" stroke-linecap="round" stroke-linejoin="round"/>
<path d="M88.5449 80.8101L88.0359 81.5151L87.1909 84.6141C87.1909 84.6141 85.2189 87.4311 86.3459 89.1211C87.4729 90.8111 90.0079 92.2201 90.0079 92.2201H92.5429L94.7969 91.3751C94.7969 91.3751 95.6419 91.0931 95.6419 93.0651C95.6419 95.0371 97.6129 98.1351 97.6129 98.1351L98.6479 100.722C98.9169 99.4991 99.0679 98.2321 99.0679 96.9291C99.0679 89.7251 94.7389 83.5401 88.5449 80.8101Z" stroke="black" stroke-miterlimit="10" stroke-linecap="round" stroke-linejoin="round"/>
</g>
<g opacity="0.2">
<path d="M106.48 314.929C119.816 311.626 127.949 298.137 124.647 284.801C121.344 271.465 107.855 263.332 94.5192 266.634C81.1831 269.937 73.0495 283.426 76.3523 296.762C79.655 310.098 93.1435 318.231 106.48 314.929Z" stroke="black" stroke-miterlimit="10" stroke-linecap="round" stroke-linejoin="round"/>
<path d="M108.593 312.369L112.57 309.187L112.172 307.198L110.979 303.618L108.593 300.834L99.8434 298.05C99.8434 298.05 98.6504 298.448 96.2634 299.641C93.8764 300.834 93.8764 300.039 92.2854 300.039C90.6944 300.039 88.7054 298.846 88.7054 298.846L85.9214 294.073L87.9104 289.3L90.2964 286.516L91.0924 282.141L94.2744 273.788L95.0704 268.22C94.9444 267.529 94.6774 267.045 94.3154 266.708C86.3584 268.744 79.9534 274.601 77.1564 282.223C76.8304 283.833 76.7744 284.926 76.7744 284.926L77.1724 289.301L78.7634 291.688L81.9454 294.472L83.9344 297.256L87.5144 302.824L91.4924 304.415L94.2764 307.995V314.842C94.7364 314.96 95.1924 315.087 95.6614 315.179C97.1044 315.221 99.3124 315.335 100.49 315.656C100.882 315.656 101.263 315.615 101.65 315.597C104.149 315.051 108.593 312.369 108.593 312.369Z" stroke="black" stroke-miterlimit="10" stroke-linecap="round" stroke-linejoin="round"/>
<path d="M110.506 268.018L109.787 269.014L108.594 273.389C108.594 273.389 105.81 277.366 107.401 279.753C108.992 282.14 112.572 284.128 112.572 284.128H116.152L119.334 282.935C119.334 282.935 120.527 282.537 120.527 285.322C120.527 288.106 123.311 292.481 123.311 292.481L124.772 296.134C125.151 294.407 125.366 292.619 125.366 290.778C125.365 280.607 119.252 271.874 110.506 268.018Z" stroke="black" stroke-miterlimit="10" stroke-linecap="round" stroke-linejoin="round"/>
</g>
<g opacity="0.2">
<path d="M91.7437 335.812V343.135H89.9307V326.861H91.7437V334.185H95.7427V326.861H97.5557V343.135H95.7427V335.812H91.7437Z" fill="black"/>
<path d="M101.762 343.135V328.512H98.7627V326.861H106.551V328.512H103.552V343.135H101.762Z" fill="black"/>
<path d="M110.13 343.135V328.512H107.131V326.861H114.919V328.512H111.92V343.135H110.13Z" fill="black"/>
<path d="M119.706 326.861C122.263 326.861 123.356 328.372 123.356 330.837V332.79C123.356 335.371 122.147 336.719 119.567 336.719H117.963V343.136H116.149V326.862H119.706V326.861ZM119.566 335.091C120.914 335.091 121.566 334.463 121.566 332.906V330.744C121.566 329.256 121.031 328.512 119.706 328.512H117.962V335.091H119.566Z" fill="black"/>
<path d="M126.517 332.022V334.277H124.773V332.022H126.517ZM126.517 340.88V343.135H124.773V340.88H126.517Z" fill="black"/>
<path d="M135.815 326.861L129.399 343.135H127.818L134.234 326.861H135.815Z" fill="black"/>
<path d="M140.372 326.861L133.956 343.135H132.375L138.791 326.861H140.372Z" fill="black"/>
<path d="M145.996 343.135H143.508L141.276 326.861H143.043L144.949 340.717L146.763 326.884H148.553L150.343 340.74L152.18 326.86H153.761L151.552 343.134H149.158L147.6 332.091L145.996 343.135Z" fill="black"/>
<path d="M159.549 343.135H157.061L154.829 326.861H156.597L158.503 340.717L160.316 326.884H162.106L163.896 340.74L165.733 326.86H167.313L165.104 343.134H162.71L161.152 332.091L159.549 343.135Z" fill="black"/>
<path d="M173.101 343.135H170.613L168.381 326.861H170.149L172.055 340.717L173.868 326.884H175.658L177.448 340.74L179.285 326.86H180.865L178.656 343.134H176.262L174.704 332.091L173.101 343.135Z" fill="black"/>
<path d="M183.141 340.88V343.135H181.398V340.88H183.141Z" fill="black"/>
<path d="M186.745 340.88V343.135H185.002V340.88H186.745Z" fill="black"/>
<path d="M190.347 340.88V343.135H188.604V340.88H190.347Z" fill="black"/>
</g>
<g opacity="0.2">
<path d="M357.406 130.23V137.553H355.592V121.279H357.406V128.603H361.405V121.279H363.218V137.553H361.405V130.23H357.406Z" fill="black"/>
<path d="M367.424 137.553V122.93H364.425V121.279H372.213V122.93H369.214V137.553H367.424Z" fill="black"/>
<path d="M375.792 137.553V122.93H372.793V121.279H380.581V122.93H377.582V137.553H375.792Z" fill="black"/>
<path d="M385.369 121.279C387.926 121.279 389.02 122.79 389.02 125.255V127.208C389.02 129.789 387.81 131.137 385.23 131.137H383.626V137.554H381.813V121.28L385.369 121.279ZM385.229 129.509C386.577 129.509 387.229 128.881 387.229 127.324V125.162C387.229 123.674 386.694 122.93 385.369 122.93H383.625V129.509H385.229Z" fill="black"/>
<path d="M392.18 126.44V128.695H390.436V126.44H392.18ZM392.18 135.298V137.553H390.436V135.298H392.18Z" fill="black"/>
<path d="M401.477 121.279L395.061 137.553H393.48L399.896 121.279H401.477Z" fill="black"/>
<path d="M406.035 121.279L399.619 137.553H398.038L404.454 121.279H406.035Z" fill="black"/>
<path d="M411.659 137.553H409.171L406.939 121.279H408.706L410.612 135.135L412.426 121.302H414.216L416.006 135.158L417.843 121.278H419.424L417.215 137.552H414.82L413.262 126.509L411.659 137.553Z" fill="black"/>
<path d="M425.211 137.553H422.723L420.491 121.279H422.259L424.165 135.135L425.978 121.302H427.768L429.558 135.158L431.395 121.278H432.975L430.766 137.552H428.371L426.813 126.509L425.211 137.553Z" fill="black"/>
<path d="M438.763 137.553H436.275L434.043 121.279H435.811L437.717 135.135L439.53 121.302H441.32L443.11 135.158L444.947 121.278H446.527L444.318 137.552H441.923L440.365 126.509L438.763 137.553Z" fill="black"/>
<path d="M448.804 135.298V137.553H447.061V135.298H448.804Z" fill="black"/>
<path d="M452.407 135.298V137.553H450.664V135.298H452.407Z" fill="black"/>
<path d="M456.011 135.298V137.553H454.268V135.298H456.011Z" fill="black"/>
</g>
<g opacity="0.2">
<path d="M38.4058 59.2301V66.5531H36.5928V50.2791H38.4058V57.6031H42.4048V50.2791H44.2178V66.5531H42.4048V59.2301H38.4058Z" fill="black"/>
<path d="M48.4238 66.5531V51.9301H45.4248V50.2791H53.2128V51.9301H50.2138V66.5531H48.4238Z" fill="black"/>
<path d="M56.792 66.5531V51.9301H53.793V50.2791H61.581V51.9301H58.583V66.5531H56.792Z" fill="black"/>
<path d="M66.3695 50.2791C68.9265 50.2791 70.0195 51.7901 70.0195 54.2551V56.2081C70.0195 58.7891 68.8105 60.1371 66.2305 60.1371H64.6265V66.5541H62.8135V50.2791H66.3695ZM66.2295 58.5091C67.5775 58.5091 68.2295 57.8811 68.2295 56.3241V54.1621C68.2295 52.6741 67.6945 51.9301 66.3695 51.9301H64.6255V58.5091H66.2295Z" fill="black"/>
<path d="M73.1796 55.4402V57.6952H71.4355V55.4402H73.1796ZM73.1796 64.2982V66.5532H71.4355V64.2982H73.1796Z" fill="black"/>
<path d="M82.4775 50.2791L76.0615 66.5531H74.4805L80.8965 50.2791H82.4775Z" fill="black"/>
<path d="M87.0351 50.2791L80.6191 66.5531H79.0381L85.4541 50.2791H87.0351Z" fill="black"/>
<path d="M92.6594 66.5531H90.1714L87.9395 50.2791H89.7065L91.6124 64.1351L93.4265 50.3021H95.2164L97.0064 64.1581L98.8435 50.2781H100.424L98.2154 66.5521H95.8204L94.2625 55.5091L92.6594 66.5531Z" fill="black"/>
<path d="M106.211 66.5531H103.723L101.491 50.2791H103.259L105.165 64.1351L106.978 50.3021H108.768L110.558 64.1581L112.395 50.2781H113.975L111.766 66.5521H109.371L107.813 55.5091L106.211 66.5531Z" fill="black"/>
<path d="M119.763 66.5531H117.275L115.043 50.2791H116.811L118.717 64.1351L120.53 50.3021H122.32L124.11 64.1581L125.947 50.2781H127.527L125.318 66.5521H122.923L121.365 55.5091L119.763 66.5531Z" fill="black"/>
<path d="M129.804 64.2981V66.5531H128.061V64.2981H129.804Z" fill="black"/>
<path d="M133.407 64.2981V66.5531H131.664V64.2981H133.407Z" fill="black"/>
<path d="M137.011 64.2981V66.5531H135.268V64.2981H137.011Z" fill="black"/>
</g>
<path d="M249.397 41.522C321.368 41.522 379.921 100.075 379.921 172.046C379.921 244.017 321.368 302.57 249.397 302.57C177.426 302.57 118.873 244.017 118.873 172.046C118.873 100.075 177.426 41.522 249.397 41.522ZM125.926 168.546H182.913C183.212 145.871 186.4 124.163 192.146 105.144C181.312 99.85 171.178 93.031 162.043 84.794C140.474 106.388 126.839 135.904 125.926 168.546ZM249.397 295.571C264.833 295.571 279.546 283.049 290.829 260.311C293.531 254.865 295.939 248.984 298.064 242.77C282.853 236.249 266.349 232.816 249.397 232.816C232.447 232.816 215.942 236.25 200.731 242.771C202.856 248.984 205.264 254.866 207.966 260.311C219.247 283.048 233.962 295.571 249.397 295.571ZM249.397 225.816C267.084 225.816 284.312 229.352 300.216 236.075C305.603 217.924 308.589 197.211 308.882 175.546H189.912C190.205 197.211 193.191 217.923 198.578 236.074C214.484 229.352 231.712 225.816 249.397 225.816ZM308.882 168.546C308.59 146.902 305.608 126.21 300.231 108.071C284.322 114.798 267.089 118.336 249.397 118.336C231.706 118.336 214.473 114.798 198.563 108.071C193.186 126.209 190.205 146.902 189.912 168.546H308.882ZM249.397 48.522C233.962 48.522 219.247 61.044 207.966 83.782C205.256 89.243 202.843 95.142 200.713 101.374C215.929 107.9 232.44 111.337 249.397 111.337C266.355 111.337 282.866 107.901 298.082 101.375C295.952 95.142 293.539 89.244 290.829 83.783C279.546 61.044 264.833 48.522 249.397 48.522ZM167.151 79.97C175.437 87.373 184.58 93.551 194.336 98.415C196.507 92.145 198.954 86.195 201.695 80.67C208.113 67.734 215.693 57.785 224.009 51.15C202.472 55.667 182.983 65.813 167.151 79.97ZM297.099 80.671C299.84 86.196 302.287 92.146 304.458 98.416C314.214 93.552 323.357 87.374 331.643 79.971C315.81 65.813 296.321 55.668 274.783 51.151C283.101 57.785 290.681 67.735 297.099 80.671ZM336.752 84.795C327.617 93.032 317.483 99.851 306.649 105.145C312.394 124.164 315.582 145.872 315.881 168.547H372.868C371.956 135.904 358.321 106.388 336.752 84.795ZM372.869 175.546H315.882C315.582 198.241 312.389 219.967 306.633 238.999C317.461 244.288 327.59 251.1 336.722 259.329C358.308 237.733 371.956 208.204 372.869 175.546ZM331.61 264.152C323.328 256.757 314.19 250.586 304.441 245.728C302.274 251.979 299.833 257.913 297.1 263.422C290.681 276.358 283.102 286.307 274.785 292.943C296.307 288.428 315.783 278.294 331.61 264.152ZM201.695 263.422C198.961 257.913 196.52 251.979 194.354 245.728C184.605 250.587 175.467 256.758 167.185 264.152C183.011 278.294 202.488 288.428 224.01 292.942C215.693 286.307 208.113 276.358 201.695 263.422ZM162.073 259.329C171.205 251.101 181.333 244.288 192.162 239C186.406 219.968 183.213 198.242 182.913 175.546H125.926C126.839 208.204 140.487 237.733 162.073 259.329Z" fill="#263238"/>
<path opacity="0.2" d="M381.74 154H123.863V196.711H381.74V154Z" fill="black"/>
<path d="M384.74 147H126.863V189.711H384.74V147Z" fill="white" stroke="#263238" stroke-miterlimit="10" stroke-linecap="round" stroke-linejoin="round"/>
<path d="M167.379 170.296V180.346H164.89V158.011H167.379V168.062H172.867V158.011H175.356V180.346H172.867V170.296H167.379Z" fill="#263238"/>
<path d="M181.128 180.346V160.277H177.012V158.011H187.7V160.277H183.584V180.346H181.128Z" fill="#263238"/>
<path d="M192.612 180.346V160.277H188.496V158.011H199.185V160.277H195.069V180.346H192.612Z" fill="#263238"/>
<path d="M205.756 158.011C209.266 158.011 210.765 160.085 210.765 163.467V166.147C210.765 169.688 209.106 171.539 205.565 171.539H203.363V180.345H200.874V158.01H205.756V158.011ZM205.564 169.306C207.415 169.306 208.308 168.445 208.308 166.307V163.34C208.308 161.298 207.574 160.277 205.755 160.277H203.362V169.306H205.564Z" fill="#263238"/>
<path d="M215.102 165.095V168.19H212.708V165.095H215.102ZM215.102 177.251V180.346H212.708V177.251H215.102Z" fill="#263238"/>
<path d="M227.863 158.011L219.057 180.346H216.887L225.693 158.011H227.863Z" fill="#263238"/>
<path d="M234.116 158.011L225.31 180.346H223.14L231.946 158.011H234.116Z" fill="#263238"/>
<path d="M241.835 180.346H238.421L235.358 158.011H237.783L240.399 177.027L242.888 158.043H245.345L247.801 177.059L250.322 158.011H252.492L249.461 180.346H246.175L244.037 165.191L241.835 180.346Z" fill="#263238"/>
<path d="M260.433 180.346H257.019L253.955 158.011H256.381L258.997 177.027L261.485 158.043H263.942L266.398 177.059L268.92 158.011H271.089L268.058 180.346H264.772L262.634 165.191L260.433 180.346Z" fill="#263238"/>
<path d="M279.032 180.346H275.618L272.555 158.011H274.981L277.597 177.027L280.085 158.043H282.542L284.998 177.059L287.52 158.011H289.689L286.658 180.346H283.372L281.234 165.191L279.032 180.346Z" fill="#263238"/>
<path d="M292.812 177.251V180.346H290.419V177.251H292.812Z" fill="#263238"/>
<path d="M297.756 177.251V180.346H295.363V177.251H297.756Z" fill="#263238"/>
<path d="M302.702 177.251V180.346H300.309V177.251H302.702Z" fill="#263238"/>
<path d="M146.4 180.186C152.929 178.701 157.017 172.205 155.532 165.676C154.047 159.147 147.551 155.059 141.022 156.544C134.494 158.029 130.405 164.525 131.89 171.054C133.375 177.582 139.871 181.671 146.4 180.186Z" fill="#0A91B1" stroke="#263238" stroke-miterlimit="10" stroke-linecap="round" stroke-linejoin="round"/>
<path d="M147.664 178.878L149.602 177.327L149.408 176.358L148.826 174.613L147.663 173.256L143.398 171.899C143.398 171.899 142.817 172.093 141.654 172.674C140.491 173.256 140.491 172.868 139.716 172.868C138.941 172.868 137.971 172.286 137.971 172.286L136.614 169.96L137.583 167.634L138.746 166.277L139.134 164.145L140.685 160.074L141.073 157.36C141.012 157.023 140.881 156.787 140.705 156.623C136.827 157.615 133.706 160.47 132.343 164.184C132.184 164.969 132.157 165.501 132.157 165.501L132.351 167.633L133.126 168.796L134.677 170.153L135.646 171.51L137.391 174.224L139.329 174.999L140.686 176.744V180.081C140.91 180.139 141.132 180.2 141.361 180.245C142.064 180.265 143.14 180.321 143.715 180.477C143.906 180.477 144.092 180.457 144.28 180.448C145.498 180.185 147.664 178.878 147.664 178.878Z" fill="white" stroke="#263238" stroke-miterlimit="10" stroke-linecap="round" stroke-linejoin="round"/>
<path d="M148.595 157.264L148.244 157.749L147.662 159.881C147.662 159.881 146.305 161.819 147.081 162.983C147.856 164.146 149.601 165.115 149.601 165.115H151.346L152.897 164.534C152.897 164.534 153.479 164.34 153.479 165.697C153.479 167.054 154.836 169.186 154.836 169.186L155.548 170.966C155.733 170.124 155.837 169.253 155.837 168.356C155.836 163.399 152.857 159.143 148.595 157.264Z" fill="white" stroke="#263238" stroke-miterlimit="10" stroke-linecap="round" stroke-linejoin="round"/>
<path d="M84.7268 322.14H197.63C202.618 322.14 206.837 325.83 207.501 330.773L224.341 456.14H91.3408L74.8568 333.425C74.0538 327.451 78.6998 322.14 84.7268 322.14Z" fill="#263238"/>
<path d="M300.953 411.747C293.674 415.907 279.116 416.946 277.036 414.867C274.956 412.787 256.932 381.245 256.932 381.245C256.932 381.245 254.852 407.935 254.852 418.333C254.852 425.382 258.673 444.527 261.136 456.135H144.32L140.121 416.946C140.121 416.946 134.229 425.611 125.91 432.544C117.591 439.476 108.926 437.743 100.26 432.891C91.5951 428.038 87.435 417.64 89.861 407.241C92.287 396.842 112.391 352.128 115.511 346.236C118.631 340.343 119.67 326.132 123.83 325.785C127.99 325.438 168.891 310.534 168.891 310.534C168.891 310.534 193.848 303.602 197.661 304.641C201.474 305.681 231.283 307.414 233.016 307.414C234.749 307.414 255.2 309.147 260.052 311.573C264.905 313.999 272.877 328.557 274.61 334.45C276.343 340.342 312.738 386.79 313.778 394.415C314.818 402.041 308.232 407.587 300.953 411.747Z" fill="#0A91B1" stroke="#E2E2E2" stroke-miterlimit="10" stroke-linecap="round" stroke-linejoin="round"/>
<path d="M192.057 418.25C202.076 425.786 217.605 437.026 229.171 443.368" stroke="#E2E2E2" stroke-miterlimit="10" stroke-linecap="round" stroke-linejoin="round"/>
<path d="M182.02 410.542C182.02 410.542 183.412 411.644 185.78 413.471" stroke="#E2E2E2" stroke-miterlimit="10" stroke-linecap="round" stroke-linejoin="round"/>
<path d="M199.925 430.834C199.925 430.834 218.427 443.964 228.573 448.739" stroke="#E2E2E2" stroke-miterlimit="10" stroke-linecap="round" stroke-linejoin="round"/>
<path d="M140.094 354.751C139.535 353.499 138.938 352.199 138.3 350.854" stroke="#E2E2E2" stroke-miterlimit="10" stroke-linecap="round" stroke-linejoin="round"/>
<path d="M147.883 376.988C147.883 376.988 146.709 370.53 141.951 359.06" stroke="#E2E2E2" stroke-miterlimit="10" stroke-linecap="round" stroke-linejoin="round"/>
<path d="M151.368 375.246C151.368 375.246 151.804 367.841 149.19 363.05" stroke="#E2E2E2" stroke-miterlimit="10" stroke-linecap="round" stroke-linejoin="round"/>
<path d="M256.933 381.244L263.312 360.436" stroke="#E2E2E2" stroke-miterlimit="10" stroke-linecap="round" stroke-linejoin="round"/>
<path d="M233.824 329.853C233.824 329.853 233.194 335.207 232.564 337.727C231.934 340.247 230.989 347.805 230.989 347.805C230.989 347.805 225.95 340.246 224.69 338.672C223.43 337.097 227.524 328.594 227.524 328.594L233.824 329.853Z" fill="white" stroke="#263238" stroke-miterlimit="10" stroke-linecap="round" stroke-linejoin="round"/>
<path d="M227.21 318.515L233.824 329.853C233.824 329.853 227.84 337.412 221.856 341.821C215.872 346.23 206.739 353.474 206.739 353.474C206.739 353.474 211.148 338.987 212.093 334.893C213.038 330.799 220.911 316.941 220.911 316.941C220.911 316.941 225.005 315.366 227.21 318.515Z" fill="white" stroke="#263238" stroke-miterlimit="10" stroke-linecap="round" stroke-linejoin="round"/>
<path d="M167.371 286.391C167.371 286.391 166.111 288.911 168.001 289.855C169.891 290.8 173.985 292.06 173.985 292.06L173.67 306.547C173.67 306.547 186.898 330.167 190.992 335.836C195.086 341.505 206.739 353.473 206.739 353.473C206.739 353.473 217.622 338.516 218.882 334.737C220.142 330.958 224.98 316.878 224.98 316.878C224.98 316.878 205.165 314.735 201.07 311.901C196.976 309.066 189.732 300.878 187.843 293.319C185.953 285.76 190.362 281.351 184.379 276.942C178.395 272.533 174.616 270.643 172.096 271.903C169.576 273.164 167.371 286.391 167.371 286.391Z" fill="white" stroke="#263238" stroke-miterlimit="10" stroke-linecap="round" stroke-linejoin="round"/>
<path d="M178.511 286.924L173.986 292.06C173.986 292.06 169.678 293.477 167.372 286.391C165.067 279.305 172.096 271.904 172.096 271.904L178.511 286.924Z" fill="#263238" stroke="#263238" stroke-miterlimit="10" stroke-linecap="round" stroke-linejoin="round"/>
<path d="M197.291 332.687L206.739 353.473L187.527 340.246L197.291 332.687Z" fill="white" stroke="#263238" stroke-miterlimit="10" stroke-linecap="round" stroke-linejoin="round"/>
<path d="M173.388 299.097C173.388 299.097 180.914 311.902 184.694 317.256C188.473 322.61 197.292 332.688 197.292 332.688L185.954 350.325C185.954 350.325 175.383 330.799 172.097 324.5C168.318 317.256 167.688 311.902 167.688 311.902L173.388 299.097Z" fill="white" stroke="#263238" stroke-miterlimit="10" stroke-linecap="round" stroke-linejoin="round"/>
<path d="M172.411 281.037C172.411 281.037 174.301 285.446 174.931 286.391C175.561 287.336 180.6 289.855 180.6 289.855L182.804 287.02L182.489 268.753V254.266C182.489 254.266 172.726 257.1 171.151 262.769C169.577 268.439 172.411 281.037 172.411 281.037Z" fill="white" stroke="#263238" stroke-miterlimit="10" stroke-linecap="round" stroke-linejoin="round"/>
<path d="M238.234 260.251C238.234 260.251 242.643 256.472 244.218 251.748C245.793 247.024 247.997 240.725 242.958 233.481C237.919 226.237 223.117 208.286 206.74 208.286C190.363 208.286 170.837 218.994 162.333 225.608C153.83 232.222 147.216 245.134 144.381 250.803C141.548 256.47 145.009 260.563 146.269 263.083C149.033 268.607 147.598 275.532 150.161 281.171C153.457 288.422 161.338 288.19 168.001 289.856C169.261 290.171 171.78 288.911 173.67 283.872C175.56 278.833 175.245 269.385 180.914 258.992C186.583 248.598 218.708 237.89 238.234 260.251Z" fill="#3F4D54" stroke="#263238" stroke-miterlimit="10" stroke-linecap="round" stroke-linejoin="round"/>
<path d="M147.746 264.309C147.746 264.309 148.841 243.224 159.795 229.259" stroke="#263238" stroke-miterlimit="10" stroke-linecap="round" stroke-linejoin="round"/>
<path d="M219.777 217.449C215.286 214.343 211.691 212.168 205.761 211.07" stroke="#787878" stroke-miterlimit="10" stroke-linecap="round" stroke-linejoin="round"/>
<path d="M238.534 240.62C238.534 240.62 232.624 225.845 223.344 219.948" stroke="#787878" stroke-miterlimit="10" stroke-linecap="round" stroke-linejoin="round"/>
<path d="M204.473 217.039C199.276 215.388 196.091 214.562 196.091 214.562" stroke="#787878" stroke-miterlimit="10" stroke-linecap="round" stroke-linejoin="round"/>
<path d="M232.355 237.396C232.355 237.396 224.296 223.964 213.82 220.204C212.276 219.65 210.802 219.136 209.411 218.664" stroke="#787878" stroke-miterlimit="10" stroke-linecap="round" stroke-linejoin="round"/>
<path d="M221.073 237.933C221.073 237.933 217.312 230.68 208.447 226.65C199.582 222.621 192.329 220.74 186.688 220.74" stroke="#787878" stroke-miterlimit="10" stroke-linecap="round" stroke-linejoin="round"/>
<path d="M192.3 227.277C190.018 226.516 188.569 226.113 188.569 226.113" stroke="#787878" stroke-miterlimit="10" stroke-linecap="round" stroke-linejoin="round"/>
<path d="M212.746 237.665C212.746 237.665 205.224 232.293 199.314 229.875C198.353 229.482 197.421 229.117 196.533 228.782" stroke="#787878" stroke-miterlimit="10" stroke-linecap="round" stroke-linejoin="round"/>
<path d="M184.539 251.633C184.539 251.633 174.331 247.066 165.198 246.798" stroke="#787878" stroke-miterlimit="10" stroke-linecap="round" stroke-linejoin="round"/>
<path d="M228.471 240.41C228.471 240.41 239.809 242.3 240.439 250.173C241.069 258.046 239.809 271.589 238.549 275.368C237.289 279.147 238.549 291.115 239.809 299.618C241.069 308.121 234.77 316.94 229.731 320.089C224.692 323.238 217.133 324.813 208 321.979C198.867 319.144 190.048 313.79 186.269 308.436C182.49 303.082 182.805 302.137 182.175 301.192C181.545 300.247 180.6 295.208 180.6 289.854C180.6 284.5 180.6 275.682 180.6 270.958C180.6 266.234 180.915 258.99 180.915 258.99C180.915 258.99 198.551 233.481 228.471 240.41Z" fill="white" stroke="#263238" stroke-miterlimit="10" stroke-linecap="round" stroke-linejoin="round"/>
<path d="M193.306 247.219C192.763 251.363 191.299 258.995 187.528 260.881C183.119 263.085 183.119 266.235 184.064 271.589C185.009 276.943 185.954 289.541 190.048 293.005C194.142 296.469 196.347 298.674 201.071 296.784C205.795 294.894 207.685 292.06 214.928 291.745C222.172 291.43 226.266 290.485 229.415 292.06C232.564 293.635 234.454 295.209 234.454 295.209C234.454 295.209 236.544 292.071 238.393 287.744C238.735 291.73 239.271 295.989 239.808 299.618C241.068 308.121 234.769 316.94 229.73 320.089C224.691 323.238 217.132 324.813 207.999 321.979C198.866 319.144 190.047 313.79 186.268 308.436C182.489 303.082 182.804 302.137 182.174 301.192C181.544 300.247 180.599 295.208 180.599 289.854C180.599 284.5 180.599 275.682 180.599 270.957C180.599 266.233 177.381 266.26 177.381 266.26C177.381 266.26 178.72 257.703 193.306 247.219Z" fill="#263238" stroke="#263238" stroke-miterlimit="10" stroke-linecap="round" stroke-linejoin="round"/>
<path d="M232.263 241.488C230.84 243.77 226.904 248.913 220.282 248.913C213.577 248.913 207.862 244.028 204.659 241.494C211.352 239.211 219.335 238.294 228.47 240.41C228.47 240.41 230.157 240.693 232.263 241.488Z" fill="#263238" stroke="#263238" stroke-miterlimit="10" stroke-linecap="round" stroke-linejoin="round"/>
<path d="M223.747 263.715L222.172 269.384C222.172 269.384 223.747 279.462 224.062 283.556C224.377 287.65 226.896 291.744 219.653 291.744C212.41 291.744 211.15 288.595 211.15 286.39" stroke="#263238" stroke-miterlimit="10" stroke-linecap="round" stroke-linejoin="round"/>
<path d="M213.668 261.826C213.668 261.826 212.723 259.936 206.424 259.936C200.125 259.936 196.031 264.03 196.031 264.03" stroke="#263238" stroke-width="2" stroke-miterlimit="10" stroke-linecap="round" stroke-linejoin="round"/>
<path d="M227.841 262.456C227.841 262.456 232.565 259.621 237.604 262.456" stroke="#263238" stroke-width="2" stroke-miterlimit="10" stroke-linecap="round" stroke-linejoin="round"/>
<path d="M227.159 296.92C223.941 298.188 217.598 299.731 210.204 296.469" stroke="white" stroke-width="2" stroke-miterlimit="10" stroke-linecap="round" stroke-linejoin="round"/>
<path d="M204.693 273.479C203.563 273.479 202.646 272.28 202.646 270.802C202.646 269.323 203.563 268.125 204.693 268.125C205.824 268.125 206.74 269.323 206.74 270.802C206.74 272.28 205.824 273.479 204.693 273.479Z" fill="#263238"/>
<path d="M229.099 273.479C227.969 273.479 227.052 272.28 227.052 270.802C227.052 269.323 227.969 268.125 229.099 268.125C230.23 268.125 231.146 269.323 231.146 270.802C231.146 272.28 230.23 273.479 229.099 273.479Z" fill="#263238"/>
<path d="M224.061 273.793C224.061 273.793 226.266 275.998 228.47 276.942" stroke="#263238" stroke-miterlimit="10" stroke-linecap="round" stroke-linejoin="round"/>
<path d="M209.259 274.108C209.259 274.108 206.739 278.202 203.275 277.887" stroke="#263238" stroke-miterlimit="10" stroke-linecap="round" stroke-linejoin="round"/>
<path d="M213.847 338.019C213.847 338.019 218.178 335.565 220.632 333.111C223.086 330.657 223.664 327.192 225.829 330.224C227.994 333.256 226.984 335.854 224.097 337.875C221.21 339.896 212.981 341.195 212.981 341.195C212.981 341.195 210.815 339.607 213.847 338.019Z" fill="white" stroke="#263238" stroke-miterlimit="10" stroke-linecap="round" stroke-linejoin="round"/>
<path d="M212.838 338.885C212.838 338.885 223.81 334.843 225.686 335.132C227.563 335.421 229.584 337.009 230.017 339.463C230.45 341.917 228.285 343.65 228.285 343.65C228.285 343.65 230.162 346.97 230.162 348.125C230.162 349.28 229.729 350.868 229.729 350.868C229.729 350.868 232.039 353.178 232.039 354.91C232.039 356.642 230.162 358.519 230.162 358.519C230.162 358.519 230.884 360.973 229.729 363.283C228.574 365.593 221.5 372.089 217.314 373.966C213.128 375.843 205.765 377.575 205.765 377.575L187.864 389.124L177.614 371.367C177.614 371.367 189.596 362.85 191.329 360.684C193.061 358.519 197.104 351.733 198.403 347.547C199.702 343.361 212.118 338.885 212.118 338.885H212.838Z" fill="white" stroke="#263238" stroke-miterlimit="10" stroke-linecap="round" stroke-linejoin="round"/>
<path d="M228.285 343.65L221.5 347.385" stroke="#263238" stroke-miterlimit="10" stroke-linecap="round" stroke-linejoin="round"/>
<path d="M229.729 350.868L223.001 355.635" stroke="#263238" stroke-miterlimit="10" stroke-linecap="round" stroke-linejoin="round"/>
<path d="M230.161 358.519L225.5 362.135" stroke="#263238" stroke-miterlimit="10" stroke-linecap="round" stroke-linejoin="round"/>
<path d="M235.922 373.885H256.078C257.418 373.885 258.546 372.885 258.707 371.555L263.391 332.851C263.582 331.274 262.351 329.885 260.762 329.885H231.238C229.649 329.885 228.418 331.274 228.609 332.851L233.293 371.555C233.454 372.885 234.583 373.885 235.922 373.885Z" fill="white" stroke="#263238" stroke-miterlimit="10" stroke-linecap="round" stroke-linejoin="round"/>
<path d="M259.147 327.417C259.147 327.417 256.111 325.191 256.516 320.941C256.921 316.691 261.576 316.893 261.576 312.238C261.576 307.583 259.147 307.583 257.933 302.726" stroke="#263238" stroke-miterlimit="10" stroke-linecap="round"/>
<path d="M247.612 327.215C247.612 327.215 245.993 326.001 245.993 322.358C245.993 318.715 248.826 319.322 249.434 315.274" stroke="#263238" stroke-miterlimit="10" stroke-linecap="round"/>
<path d="M180.329 367.726L193.848 388.177L180.676 398.229L166.811 375.005L180.329 367.726Z" fill="#0A91B1" stroke="#E2E2E2" stroke-miterlimit="10" stroke-linecap="round" stroke-linejoin="round"/>
<path d="M93.6737 397.535C93.6737 397.535 87.4347 414.519 86.7417 420.412C86.0487 426.304 91.2477 439.129 94.7137 443.982C98.1797 448.835 118.978 443.982 134.229 436.703C149.48 429.424 178.25 410.013 180.676 407.24C183.102 404.467 180.676 398.228 180.676 398.228L166.811 375.004C166.811 375.004 164.385 372.231 161.265 372.578C158.145 372.925 112.392 393.375 112.392 393.375" fill="#0A91B1"/>
<path d="M93.6737 397.535C93.6737 397.535 87.4347 414.519 86.7417 420.412C86.0487 426.304 91.2477 439.129 94.7137 443.982C98.1797 448.835 118.978 443.982 134.229 436.703C149.48 429.424 178.25 410.013 180.676 407.24C183.102 404.467 180.676 398.228 180.676 398.228L166.811 375.004C166.811 375.004 164.385 372.231 161.265 372.578C158.145 372.925 112.392 393.375 112.392 393.375" stroke="#E2E2E2" stroke-miterlimit="10" stroke-linecap="round" stroke-linejoin="round"/>
<path d="M310.659 388.177C310.659 388.177 319.325 397.189 321.404 407.934C323.484 418.679 318.978 426.305 316.551 431.504C314.125 436.703 312.392 438.783 308.579 439.13C304.766 439.477 283.622 436.357 282.236 432.891C280.85 429.425 276.343 421.453 277.037 412.44C277.73 403.428 288.475 393.029 297.834 393.723" fill="#0A91B1"/>
<path d="M310.659 388.177C310.659 388.177 319.325 397.189 321.404 407.934C323.484 418.679 318.978 426.305 316.551 431.504C314.125 436.703 312.392 438.783 308.579 439.13C304.766 439.477 283.622 436.357 282.236 432.891C280.85 429.425 276.343 421.453 277.037 412.44C277.73 403.428 288.475 393.029 297.834 393.723" stroke="#E2E2E2" stroke-miterlimit="10" stroke-linecap="round" stroke-linejoin="round"/>
<path d="M308.579 439.13C308.579 439.13 310.312 430.464 297.487 426.305C284.662 422.146 280.156 425.958 280.849 430.811C281.543 435.664 300.953 443.636 308.579 439.13Z" fill="#0A91B1" stroke="#E2E2E2" stroke-miterlimit="10" stroke-linecap="round" stroke-linejoin="round"/>
<path d="M279.73 431.692C279.73 431.692 275.986 435.811 272.242 435.811C268.498 435.811 262.507 442.551 259.886 444.423C257.265 446.295 251.274 446.67 253.146 451.537C255.018 456.405 262.507 453.409 265.877 451.537C269.247 449.665 271.119 445.921 273.74 445.921C276.361 445.921 278.982 446.67 286.096 448.542C293.21 450.414 301.822 447.419 296.954 441.802C292.086 436.185 279.73 431.692 279.73 431.692Z" fill="white" stroke="#263238" stroke-miterlimit="10" stroke-linecap="round" stroke-linejoin="round"/>
<path d="M306.314 438.806C306.314 438.806 311.556 438.806 312.679 443.474C313.802 448.142 312.679 454.606 308.186 456.401C303.693 458.196 305.939 453.169 305.939 449.937C305.939 446.705 305.939 440.96 305.939 440.96L306.314 438.806Z" fill="white" stroke="#263238" stroke-miterlimit="10" stroke-linecap="round" stroke-linejoin="round"/>
<path d="M298.826 432.815C298.826 432.815 307.438 435.436 307.438 440.304C307.438 445.172 304.816 455.281 301.072 456.03C297.328 456.779 296.953 453.783 297.702 448.167C298.451 442.551 298.826 432.815 298.826 432.815Z" fill="white" stroke="#263238" stroke-miterlimit="10" stroke-linecap="round" stroke-linejoin="round"/>
<path d="M289.84 429.446C289.84 429.446 295.831 425.702 298.077 430.569C300.323 435.436 299.2 447.418 296.954 450.788C294.707 454.158 289.84 453.409 289.466 448.167C289.091 442.925 289.84 429.446 289.84 429.446Z" fill="white" stroke="#263238" stroke-miterlimit="10" stroke-linecap="round" stroke-linejoin="round"/>
<path d="M278.615 430.357C278.597 427.956 279.985 425.675 282.239 424.847C283.099 424.531 284.129 424.391 285.346 424.578C290.213 425.327 290.962 428.697 290.213 431.692C289.464 434.687 290.587 448.916 287.967 451.537C285.346 454.158 280.853 452.66 279.73 450.039C278.832 447.946 278.652 435.348 278.615 430.357Z" fill="white" stroke="#263238" stroke-miterlimit="10" stroke-linecap="round" stroke-linejoin="round"/>
<path d="M32 456.14H454.667" stroke="#263238" stroke-miterlimit="10" stroke-linecap="round" stroke-linejoin="round"/>
<path d="M214.446 467.888L318.543 453.893L387.259 455.246L307.702 480.009L214.446 467.888Z" fill="#D1D1D1" stroke="#263238" stroke-miterlimit="10" stroke-linecap="round" stroke-linejoin="round"/>
<path d="M295.254 458.076L308.825 459.162L279.784 463.504L262.414 462.961L295.254 458.076Z" stroke="#263238" stroke-miterlimit="10" stroke-linecap="round" stroke-linejoin="round"/>
<path d="M310.996 460.247L267.571 467.304L309.639 469.747" stroke="#263238" stroke-miterlimit="10" stroke-linecap="round" stroke-linejoin="round"/>
<path d="M406.753 369.893L387.259 455.246L307.702 480.009L329.303 373.581L406.753 369.893Z" fill="#D1D1D1" stroke="#263238" stroke-miterlimit="10" stroke-linecap="round" stroke-linejoin="round"/>
<path d="M324.881 395.369C335.904 405.842 348.516 423.321 363 440.802C371.447 450.997 380.276 453.937 387.54 454.016L387.259 455.246L307.702 480.009L324.881 395.369Z" fill="#A6A6A6" stroke="#263238" stroke-miterlimit="10" stroke-linecap="round" stroke-linejoin="round"/>
<path d="M357.459 414.687C356.37 419.395 357.916 423.774 360.912 424.467C363.908 425.16 367.22 421.905 368.309 417.197C369.398 412.489 367.852 408.11 364.856 407.417C361.86 406.724 358.548 409.979 357.459 414.687Z" fill="white" stroke="#263238" stroke-miterlimit="10" stroke-linecap="round" stroke-linejoin="round"/>
<path d="M307.702 480.009L214.446 472.106V467.888L309.282 473.157L307.702 480.009Z" fill="#A6A6A6" stroke="#263238" stroke-miterlimit="10" stroke-linecap="round" stroke-linejoin="round"/>
</svg>
