<svg width="1202" height="1322" viewBox="0 0 1202 1322" fill="none" xmlns="http://www.w3.org/2000/svg">
<g opacity="0.2" filter="url(#filter0_f_247_2333)">
<circle cx="901" cy="421" r="301" fill="#AAAAAA"/>
</g>
<g opacity="0.1">
<g opacity="0.2">
<circle cx="1140.5" cy="918.5" r="385" stroke="white" stroke-width="5"/>
<circle cx="1173.5" cy="918.5" r="385" stroke="white" stroke-width="5"/>
<circle cx="1211.5" cy="918.5" r="385" stroke="white" stroke-width="5"/>
<circle cx="1249.5" cy="918.5" r="385" stroke="white" stroke-width="5"/>
<circle cx="1287.5" cy="918.5" r="385" stroke="white" stroke-width="5"/>
<circle cx="1325.5" cy="918.5" r="385" stroke="white" stroke-width="5"/>
</g>
<g opacity="0.2">
<circle cx="1368.5" cy="918.5" r="385" stroke="white" stroke-width="5"/>
<circle cx="1401.5" cy="918.5" r="385" stroke="white" stroke-width="5"/>
<circle cx="1439.5" cy="918.5" r="385" stroke="white" stroke-width="5"/>
<circle cx="1477.5" cy="918.5" r="385" stroke="white" stroke-width="5"/>
<circle cx="1515.5" cy="918.5" r="385" stroke="white" stroke-width="5"/>
<circle cx="1553.5" cy="918.5" r="385" stroke="white" stroke-width="5"/>
</g>
</g>
<g opacity="0.1">
<path d="M1210.23 563C1210.23 766.004 1058.7 930.5 871.867 930.5C685.03 930.5 533.5 766.004 533.5 563C533.5 359.996 685.03 195.5 871.867 195.5C1058.7 195.5 1210.23 359.996 1210.23 563Z" stroke="white"/>
<path d="M1161.17 563C1161.17 766.083 1031.54 930.5 871.866 930.5C712.195 930.5 582.566 766.083 582.566 563C582.566 359.917 712.195 195.5 871.866 195.5C1031.54 195.5 1161.17 359.917 1161.17 563Z" stroke="white"/>
<path d="M1104.43 563C1104.43 664.54 1078.37 756.445 1036.25 822.948C994.125 889.457 935.996 930.5 871.867 930.5C807.739 930.5 749.609 889.457 707.487 822.948C665.368 756.445 639.301 664.54 639.301 563C639.301 461.46 665.368 369.555 707.487 303.052C749.609 236.543 807.739 195.5 871.867 195.5C935.996 195.5 994.125 236.543 1036.25 303.052C1078.37 369.555 1104.43 461.46 1104.43 563Z" stroke="white"/>
<path d="M1049.23 563C1049.23 664.562 1029.34 756.484 997.187 822.998C965.022 889.546 920.683 930.5 871.867 930.5C823.051 930.5 778.711 889.546 746.546 822.998C714.398 756.484 694.5 664.562 694.5 563C694.5 461.438 714.398 369.516 746.546 303.002C778.711 236.454 823.051 195.5 871.867 195.5C920.683 195.5 965.022 236.454 997.187 303.002C1029.34 369.516 1049.23 461.438 1049.23 563Z" stroke="white"/>
<path d="M998.633 563C998.633 664.58 984.393 756.522 961.385 823.052C949.88 856.319 936.192 883.205 921.017 901.764C905.839 920.327 889.227 930.5 871.866 930.5C854.505 930.5 837.893 920.327 822.715 901.764C807.541 883.205 793.853 856.319 782.348 823.052C759.34 756.522 745.1 664.58 745.1 563C745.1 461.42 759.34 369.478 782.348 302.948C793.853 269.681 807.541 242.795 822.715 224.236C837.893 205.673 854.505 195.5 871.866 195.5C889.227 195.5 905.839 205.673 921.017 224.236C936.192 242.795 949.88 269.681 961.385 302.948C984.393 369.478 998.633 461.42 998.633 563Z" stroke="white"/>
<path d="M937.3 563C937.3 664.6 929.922 756.569 917.997 823.127C912.033 856.41 904.938 883.314 897.071 901.886C893.136 911.174 889.021 918.349 884.779 923.194C880.534 928.042 876.215 930.5 871.867 930.5C867.518 930.5 863.2 928.042 858.955 923.194C854.713 918.349 850.597 911.174 846.663 901.886C838.796 883.314 831.7 856.41 825.737 823.127C813.812 756.569 806.434 664.6 806.434 563C806.434 461.4 813.812 369.431 825.737 302.873C831.7 269.59 838.796 242.686 846.663 224.114C850.597 214.826 854.713 207.651 858.955 202.806C863.2 197.958 867.518 195.5 871.867 195.5C876.215 195.5 880.534 197.958 884.779 202.806C889.021 207.651 893.136 214.826 897.071 224.114C904.938 242.686 912.033 269.59 917.997 302.873C929.922 369.431 937.3 461.4 937.3 563Z" stroke="white"/>
<path d="M898.968 563C898.968 664.612 895.879 756.599 890.885 823.178C888.388 856.47 885.416 883.396 882.118 901.993C880.469 911.296 878.742 918.491 876.96 923.352C876.069 925.785 875.174 927.603 874.287 928.803C873.39 930.017 872.579 930.5 871.868 930.5C871.156 930.5 870.345 930.017 869.448 928.803C868.561 927.603 867.666 925.785 866.775 923.352C864.993 918.491 863.266 911.296 861.617 901.993C858.319 883.396 855.347 856.47 852.85 823.178C847.857 756.599 844.768 664.612 844.768 563C844.768 461.388 847.857 369.401 852.85 302.822C855.347 269.53 858.319 242.604 861.617 224.007C863.266 214.704 864.993 207.509 866.775 202.649C867.666 200.215 868.561 198.397 869.448 197.197C870.345 195.983 871.156 195.5 871.868 195.5C872.579 195.5 873.39 195.983 874.287 197.197C875.174 198.397 876.069 200.215 876.96 202.649C878.742 207.509 880.469 214.704 882.118 224.007C885.416 242.604 888.388 269.53 890.885 302.822C895.879 369.401 898.968 461.388 898.968 563Z" stroke="white"/>
</g>
<defs>
<filter id="filter0_f_247_2333" x="0" y="-480" width="1802" height="1802" filterUnits="userSpaceOnUse" color-interpolation-filters="sRGB">
<feFlood flood-opacity="0" result="BackgroundImageFix"/>
<feBlend mode="normal" in="SourceGraphic" in2="BackgroundImageFix" result="shape"/>
<feGaussianBlur stdDeviation="300" result="effect1_foregroundBlur_247_2333"/>
</filter>
</defs>
</svg>
