<svg width="678" height="736" viewBox="0 0 678 736" fill="none" xmlns="http://www.w3.org/2000/svg">
<g opacity="0.1">
<path d="M677.233 368C677.233 571.004 525.703 735.5 338.867 735.5C152.03 735.5 0.5 571.004 0.5 368C0.5 164.996 152.03 0.5 338.867 0.5C525.703 0.5 677.233 164.996 677.233 368Z" stroke="white"/>
<path d="M628.166 368C628.166 571.083 498.538 735.5 338.866 735.5C179.195 735.5 49.5664 571.083 49.5664 368C49.5664 164.917 179.195 0.5 338.866 0.5C498.538 0.5 628.166 164.917 628.166 368Z" stroke="white"/>
<path d="M571.434 368C571.434 469.54 545.367 561.445 503.248 627.948C461.125 694.457 402.996 735.5 338.867 735.5C274.739 735.5 216.609 694.457 174.487 627.948C132.368 561.445 106.301 469.54 106.301 368C106.301 266.46 132.368 174.555 174.487 108.052C216.609 41.5428 274.739 0.5 338.867 0.5C402.996 0.5 461.125 41.5428 503.248 108.052C545.367 174.555 571.434 266.46 571.434 368Z" stroke="white"/>
<path d="M516.233 368C516.233 469.562 496.335 561.484 464.187 627.998C432.022 694.546 387.683 735.5 338.867 735.5C290.051 735.5 245.711 694.546 213.546 627.998C181.398 561.484 161.5 469.562 161.5 368C161.5 266.438 181.398 174.516 213.546 108.002C245.711 41.454 290.051 0.5 338.867 0.5C387.683 0.5 432.022 41.454 464.187 108.002C496.335 174.516 516.233 266.438 516.233 368Z" stroke="white"/>
<path d="M465.633 368C465.633 469.58 451.393 561.522 428.385 628.052C416.88 661.319 403.192 688.205 388.017 706.764C372.839 725.327 356.227 735.5 338.866 735.5C321.505 735.5 304.893 725.327 289.715 706.764C274.541 688.205 260.853 661.319 249.348 628.052C226.34 561.522 212.1 469.58 212.1 368C212.1 266.42 226.34 174.478 249.348 107.948C260.853 74.6809 274.541 47.795 289.715 29.2358C304.893 10.6728 321.505 0.5 338.866 0.5C356.227 0.5 372.839 10.6728 388.017 29.2358C403.192 47.795 416.88 74.6809 428.385 107.948C451.393 174.478 465.633 266.42 465.633 368Z" stroke="white"/>
<path d="M404.3 368C404.3 469.6 396.922 561.569 384.997 628.127C379.033 661.41 371.938 688.314 364.071 706.886C360.136 716.174 356.021 723.349 351.779 728.194C347.534 733.042 343.215 735.5 338.867 735.5C334.518 735.5 330.2 733.042 325.955 728.194C321.713 723.349 317.597 716.174 313.663 706.886C305.796 688.314 298.7 661.41 292.737 628.127C280.812 561.569 273.434 469.6 273.434 368C273.434 266.4 280.812 174.431 292.737 107.873C298.7 74.5899 305.796 47.6858 313.663 29.1143C317.597 19.8265 321.713 12.6512 325.955 7.80582C330.2 2.95786 334.518 0.5 338.867 0.5C343.215 0.5 347.534 2.95786 351.779 7.80582C356.021 12.6512 360.136 19.8265 364.071 29.1143C371.938 47.6858 379.033 74.5899 384.997 107.873C396.922 174.431 404.3 266.4 404.3 368Z" stroke="white"/>
<path d="M365.968 368C365.968 469.612 362.879 561.599 357.885 628.178C355.388 661.47 352.416 688.396 349.118 706.993C347.469 716.296 345.742 723.491 343.96 728.352C343.069 730.785 342.174 732.603 341.287 733.803C340.39 735.017 339.579 735.5 338.868 735.5C338.156 735.5 337.345 735.017 336.448 733.803C335.561 732.603 334.666 730.785 333.775 728.352C331.993 723.491 330.266 716.296 328.617 706.993C325.319 688.396 322.347 661.47 319.85 628.178C314.857 561.599 311.768 469.612 311.768 368C311.768 266.388 314.857 174.401 319.85 107.822C322.347 74.5302 325.319 47.6036 328.617 29.0066C330.266 19.7042 331.993 12.5088 333.775 7.64852C334.666 5.21538 335.561 3.39746 336.448 2.19698C337.345 0.982599 338.156 0.5 338.868 0.5C339.579 0.5 340.39 0.982599 341.287 2.19698C342.174 3.39746 343.069 5.21538 343.96 7.64852C345.742 12.5088 347.469 19.7042 349.118 29.0066C352.416 47.6036 355.388 74.5302 357.885 107.822C362.879 174.401 365.968 266.388 365.968 368Z" stroke="white"/>
</g>
</svg>
