<svg width="1920" height="508" viewBox="0 0 1920 508" fill="none" xmlns="http://www.w3.org/2000/svg">
<mask id="mask0_278_477" style="mask-type:alpha" maskUnits="userSpaceOnUse" x="0" y="0" width="1920" height="500">
<rect width="1920" height="500" fill="#0B485B"/>
</mask>
<g mask="url(#mask0_278_477)">
<g opacity="0.2">
<path d="M1764 -113C1849 -112.999 1988.5 -21.7814 1897.5 168.185C1792.36 387.67 2027 354.805 2027 488.702" stroke="white"/>
<path d="M1733 -94.5884C1818 -94.5876 1957.5 -3.36982 1866.5 186.597C1761.36 406.081 1996 373.216 1996 507.114" stroke="white"/>
<path d="M1707 -82.8726C1792 -82.8717 1931.5 8.34601 1840.5 198.312C1735.36 417.797 1970 384.932 1970 518.83" stroke="white"/>
<path d="M1685 -66.1348C1770 -66.1339 1909.5 25.0838 1818.5 215.05C1713.36 434.535 1948 401.67 1948 535.568" stroke="white"/>
<path d="M1658 -49.3979C1743 -49.3971 1882.5 41.8206 1791.5 231.787C1686.36 451.272 1921 418.407 1921 552.304" stroke="white"/>
<path d="M1627 -32.6606C1712 -32.6598 1851.5 58.5579 1760.5 248.524C1655.36 468.009 1890 435.144 1890 569.042" stroke="white"/>
</g>
<g opacity="0.2">
<path d="M-5.99707 -123C79 -122.999 218.5 -31.7814 127.502 158.185C22.3643 377.67 257.002 344.805 257.002 478.702" stroke="white"/>
<path d="M-37 -104.588C47.9971 -104.588 187.497 -13.3698 96.4992 176.597C-8.63861 396.081 225.999 363.216 225.999 497.114" stroke="white"/>
<path d="M-63 -92.8726C21.9971 -92.8717 161.497 -1.65399 70.4992 188.312C-34.6386 407.797 199.999 374.932 199.999 508.83" stroke="white"/>
<path d="M-85 -76.1348C-0.00292969 -76.1339 139.497 15.0838 48.4992 205.05C-56.6386 424.535 177.999 391.67 177.999 525.568" stroke="white"/>
<path d="M-112 -59.3979C-27.0029 -59.3971 112.497 31.8206 21.4992 221.787C-83.6386 441.272 150.999 408.407 150.999 542.304" stroke="white"/>
<path d="M-143 -42.6606C-58.0029 -42.6598 81.4971 48.5579 -9.50081 238.524C-114.639 458.009 119.999 425.144 119.999 559.042" stroke="white"/>
</g>
<circle cx="409" cy="235" r="15" fill="white" fill-opacity="0.09"/>
<circle cx="1298" cy="269" r="15" fill="white" fill-opacity="0.09"/>
<circle cx="535" cy="458" r="27" fill="white" fill-opacity="0.09"/>
<circle cx="1463" cy="151" r="27" fill="white" fill-opacity="0.09"/>
</g>
</svg>
