<svg width="698" height="698" viewBox="0 0 698 698" fill="none" xmlns="http://www.w3.org/2000/svg">
<path d="M115.301 454.047L96.9786 454.437L87.6798 454.593C84.5723 454.659 81.4495 454.645 78.3336 454.67L77.7138 454.676L77.711 454.049L77.6356 438.428L77.6328 437.727L78.3336 437.73L96.8166 437.818C102.977 437.824 109.139 437.975 115.3 438.046L115.685 438.051L115.681 438.428C115.654 441.079 115.561 443.714 115.498 446.321L115.301 454.047ZM115.301 454.047L115.103 446.154C115.04 443.554 114.946 440.982 114.92 438.426L115.301 438.807C109.141 438.878 102.979 439.029 96.818 439.036L78.335 439.124L79.0316 438.428L78.9562 454.049L78.3336 453.426C81.3797 453.451 84.4174 453.437 87.4718 453.503L96.6561 453.659L115.301 454.047Z" fill="#EBEBEB"/>
<path d="M94.68 473.744L76.3575 474.133L67.0587 474.29C63.9512 474.355 60.8284 474.341 57.7125 474.366L57.0927 474.37L57.0899 473.744L57.0145 458.122L57.0117 457.422L57.7125 457.424L76.1956 457.512C82.3561 457.519 88.518 457.67 94.6786 457.741L95.0639 457.746L95.0597 458.122C95.0332 460.773 94.9396 463.409 94.8768 466.015L94.68 473.744ZM94.68 473.744L94.4818 465.851C94.4189 463.25 94.3254 460.679 94.2989 458.122L94.68 458.504C88.5194 458.575 82.3575 458.726 76.1969 458.733L57.7139 458.82L58.4105 458.124L58.3351 473.745L57.7125 473.122C60.7586 473.148 63.7963 473.134 66.8507 473.199L76.035 473.356L94.68 473.744Z" fill="#EBEBEB"/>
<path d="M360.322 509.694L341.999 510.083L332.701 510.239C329.593 510.305 326.47 510.291 323.355 510.316L322.735 510.32L322.732 509.694L322.657 494.072L322.652 493.372L323.353 493.374L341.836 493.462C347.997 493.469 354.159 493.62 360.319 493.691L360.705 493.695L360.7 494.072C360.674 496.723 360.58 499.359 360.517 501.965L360.322 509.694ZM360.322 509.694L360.124 501.801C360.061 499.2 359.967 496.628 359.941 494.072L360.322 494.453C354.161 494.525 348 494.675 341.839 494.682L323.356 494.77L324.053 494.074L323.977 509.695L323.355 509.072C326.401 509.098 329.438 509.084 332.493 509.149L341.677 509.306L360.322 509.694Z" fill="#EBEBEB"/>
<path d="M339.703 529.391L321.381 529.781L312.082 529.937C308.975 530.003 305.852 529.989 302.736 530.014L302.116 530.018L302.113 529.391L302.038 513.77L302.035 513.069L302.736 513.072L321.219 513.16C327.38 513.167 333.541 513.316 339.702 513.389L340.087 513.393L340.083 513.77C340.057 516.421 339.963 519.057 339.9 521.663L339.703 529.391ZM339.703 529.391L339.505 521.498C339.442 518.897 339.349 516.326 339.322 513.77L339.703 514.151C333.543 514.222 327.381 514.373 321.22 514.38L302.737 514.468L303.434 513.771L303.359 529.393L302.736 528.77C305.782 528.795 308.82 528.781 311.874 528.847L321.058 529.003L339.703 529.391Z" fill="#EBEBEB"/>
<path d="M319.162 509.694L300.84 510.083L291.541 510.239C288.434 510.305 285.311 510.291 282.195 510.316L281.575 510.32L281.572 509.694L281.497 494.072L281.494 493.372L282.195 493.374L300.678 493.462C306.839 493.469 313 493.62 319.161 493.691L319.546 493.695L319.542 494.072C319.516 496.723 319.422 499.359 319.359 501.965L319.162 509.694ZM319.162 509.694L318.964 501.801C318.901 499.2 318.808 496.628 318.781 494.072L319.162 494.453C313.002 494.525 306.84 494.675 300.679 494.682L282.196 494.77L282.893 494.074L282.818 509.695L282.195 509.072C285.241 509.098 288.279 509.084 291.333 509.149L300.517 509.306L319.162 509.694Z" fill="#EBEBEB"/>
<path d="M640.289 473.744L621.967 474.133L612.668 474.29C609.561 474.355 606.438 474.341 603.322 474.366L602.702 474.37L602.699 473.744L602.624 458.122L602.621 457.422L603.322 457.424L621.805 457.512C627.965 457.519 634.127 457.67 640.288 457.741L640.673 457.746L640.669 458.122C640.643 460.773 640.549 463.409 640.486 466.015L640.289 473.744ZM640.289 473.744L640.091 465.851C640.028 463.25 639.935 460.679 639.908 458.122L640.289 458.504C634.129 458.575 627.967 458.726 621.806 458.733L603.323 458.82L604.02 458.124L603.944 473.745L603.322 473.122C606.368 473.148 609.406 473.134 612.46 473.199L621.644 473.356L640.289 473.744Z" fill="#CFE4E8"/>
<path d="M619.666 79.4547L601.344 79.8442L592.045 80.0005C588.938 80.0661 585.815 80.0522 582.699 80.0773L582.079 80.0829L582.076 79.4561L582.001 63.8348L581.998 63.134L582.699 63.1368L601.182 63.2248C607.342 63.2318 613.504 63.3811 619.665 63.4537L620.05 63.4579L620.046 63.8348C620.02 66.4858 619.926 69.1215 619.863 71.7278L619.666 79.4547ZM619.666 79.4547L619.468 71.5617C619.405 68.9609 619.312 66.3895 619.285 63.8334L619.666 64.2145C613.506 64.2857 607.344 64.4365 601.183 64.4435L582.7 64.5314L583.397 63.8348L583.321 79.4561L582.699 78.8335C585.745 78.8586 588.783 78.8446 591.837 78.9102L601.021 79.0666L619.666 79.4547Z" fill="#EBEBEB"/>
<path d="M640.289 99.1507L621.967 99.5402L612.668 99.6966C609.561 99.7622 606.438 99.7482 603.322 99.7733L602.702 99.7789L602.699 99.1521L602.624 83.5309L602.621 82.8301L603.322 82.8329L621.805 82.9208C627.965 82.9278 634.127 83.0772 640.288 83.1498L640.673 83.154L640.669 83.5309C640.643 86.1819 640.549 88.8175 640.486 91.4239L640.289 99.1507ZM640.289 99.1507L640.091 91.2577C640.028 88.657 639.935 86.0855 639.908 83.5295L640.289 83.9106C634.129 83.9818 627.967 84.1325 621.806 84.1395L603.323 84.2275L604.02 83.5309L603.944 99.1521L603.322 98.5295C606.368 98.5546 609.406 98.5407 612.46 98.6063L621.644 98.7626L640.289 99.1507Z" fill="#EBEBEB"/>
<path d="M94.68 79.4547L76.3575 79.8442L67.0587 80.0005C63.9512 80.0661 60.8284 80.0522 57.7125 80.0773L57.0927 80.0829L57.0899 79.4561L57.0145 63.8348L57.0117 63.134L57.7125 63.1368L76.1956 63.2248C82.3561 63.2318 88.518 63.3811 94.6786 63.4537L95.0639 63.4579L95.0597 63.8348C95.0332 66.4858 94.9396 69.1215 94.8768 71.7278L94.68 79.4547ZM94.68 79.4547L94.4818 71.5617C94.4189 68.9609 94.3254 66.3895 94.2989 63.8334L94.68 64.2145C88.5194 64.2857 82.3575 64.4365 76.1969 64.4435L57.7139 64.5314L58.4105 63.8348L58.3351 79.4561L57.7125 78.8335C60.7586 78.8586 63.7963 78.8446 66.8507 78.9102L76.035 79.0666L94.68 79.4547Z" fill="#EBEBEB"/>
<path d="M98.3862 0H96.9902V122.347H98.3862V0Z" fill="#C7C7C7"/>
<path d="M140.171 163.299L136.754 170.809H58.6113L55.2051 163.299L88.4732 140.27H106.903L140.171 163.299Z" fill="#EBEBEB"/>
<path d="M109.212 118.085L106.903 140.27H88.473L86.1641 118.085H109.212Z" fill="#DBDBDB"/>
<path d="M140.169 163.302L136.751 170.813H58.6088L55.2012 163.302H140.169Z" fill="#DBDBDB"/>
<path d="M189.605 0H188.209V98.1123H189.605V0Z" fill="#C7C7C7"/>
<path d="M231.391 139.064L227.974 146.576H149.831L146.424 139.064L179.692 116.037H198.123L231.391 139.064Z" fill="#EBEBEB"/>
<path d="M200.431 93.8516L198.123 116.037H179.692L177.383 93.8516H200.431Z" fill="#DBDBDB"/>
<path d="M231.388 139.068L227.971 146.579H149.828L146.422 139.068H231.388Z" fill="#DBDBDB"/>
<path d="M585.065 336.774H439.836V537.752H585.065V336.774Z" fill="#C0DBE0"/>
<path d="M592.101 329.316H432.799V336.774H592.101V329.316Z" fill="#C0DBE0"/>
<path d="M641.998 329H584.998V337H641.998V329Z" fill="#CFE4E8"/>
<path d="M634.266 336.774H585.062V537.752H634.266V336.774Z" fill="#D0E4E8"/>
<path d="M569.421 429.785H455.477V365.392H569.421V429.785ZM455.826 429.436H569.072V365.741H455.826V429.436Z" fill="#CEE9EF"/>
<path d="M518.732 384.21H496.547V396.961H518.732V384.21Z" fill="#CEE9EF"/>
<path d="M525.464 396.174H502.93V384.997H525.464V396.174ZM503.279 395.825H525.115V385.346H503.279V395.825Z" fill="#CEE9EF"/>
<path d="M569.421 510.697H455.477V446.304H569.421V510.697ZM455.826 510.348H569.072V446.653H455.826V510.348Z" fill="#CEE9EF"/>
<path d="M518.732 465.122H496.547V477.873H518.732V465.122Z" fill="#CEE9EF"/>
<path d="M525.464 477.086H502.93V465.909H525.464V477.086ZM503.279 476.737H525.115V466.258H503.279V476.737Z" fill="#CEE9EF"/>
<path d="M171.91 370.145C170.349 371.696 168.418 372.544 166.341 373.066C165.02 373.398 163.665 373.582 162.323 373.832H157.732C155.85 373.539 153.956 373.313 152.089 372.943C145.114 371.558 138.82 368.541 132.957 364.624C117.663 354.411 105.099 341.529 95.4955 325.824C92.3349 320.657 90.0958 315.089 89.0264 309.094C88.7486 307.535 88.5392 305.963 88.2949 304.397V299.807C88.6732 298.042 88.9776 296.261 89.455 294.523C89.8961 292.916 90.7254 291.479 91.965 290.216C92.1828 290.412 92.395 290.582 92.589 290.774C99.8915 298.07 107.188 305.375 114.506 312.655C115.028 313.176 115.122 313.6 114.935 314.315C113.907 318.21 114.594 321.753 117.3 324.827C123.537 331.917 130.189 338.596 137.281 344.832C140.385 347.56 143.96 348.214 147.892 347.176C148.414 347.037 148.796 346.949 149.251 347.407C156.716 354.904 164.2 362.379 171.679 369.862C171.748 369.93 171.798 370.01 171.91 370.145Z" fill="#EBEBEB"/>
<path d="M186.234 353.749V355.279C185.525 356.195 184.89 357.186 184.09 358.015C181.833 360.352 179.507 362.625 177.205 364.921C176.961 365.166 176.707 365.397 176.506 365.589C168.962 358.05 161.464 350.555 153.973 343.068C156.918 340.161 159.867 337.173 162.907 334.281C164.302 332.953 166.271 333.119 167.723 334.533C169.414 336.179 171.065 337.861 172.734 339.53C176.653 343.45 180.592 347.353 184.478 351.306C185.172 352.013 185.655 352.93 186.234 353.749Z" fill="#EBEBEB"/>
<path d="M127.194 299.921C124.401 302.614 121.557 305.254 118.793 307.863C111.577 300.652 104.081 293.16 96.4336 285.52C96.9306 285.075 97.4945 284.611 98.0111 284.099C100.067 282.058 102.083 279.971 104.174 277.965C104.984 277.19 105.953 276.581 106.851 275.897H108.381C109.197 276.478 110.112 276.961 110.815 277.656C116.294 283.08 121.731 288.544 127.179 293.996C129.244 296.06 129.279 297.909 127.194 299.921Z" fill="#EBEBEB"/>
<path d="M609.7 62.7656H462.854V144.93H609.7V62.7656Z" fill="#DBDBDB"/>
<path d="M435.377 144.93H462.854V116.319L435.377 144.93Z" fill="#DBDBDB"/>
<path d="M578.439 105.667H480.191V107.438H578.439V105.667Z" fill="white"/>
<path d="M558.238 115.227H480.191V116.997H558.238V115.227Z" fill="white"/>
<path d="M564.127 86.5464H480.191V88.3165H564.127V86.5464Z" fill="white"/>
<path d="M589.783 76.9866H480.191V78.7567H589.783V76.9866Z" fill="white"/>
<path d="M566.332 124.787H480.191V126.557H566.332V124.787Z" fill="white"/>
<path d="M386.681 642.255C518.62 642.255 625.578 630.574 625.578 616.164C625.578 601.754 518.62 590.073 386.681 590.073C254.741 590.073 147.783 601.754 147.783 616.164C147.783 630.574 254.741 642.255 386.681 642.255Z" fill="#CEE9EF"/>
<path d="M121.458 386.142C122.578 393.803 122.159 401.702 120.291 409.201C119.415 412.712 118.21 416.097 116.758 419.395C114.924 423.613 113.007 427.733 113.469 432.348C113.914 432.645 112.386 432.598 112.336 432.149C100 425.127 84.181 423.84 74.6882 412.355C70.1917 406.917 67.9232 400.025 66.8483 393.132C65.6812 385.625 65.356 377.315 67.2936 369.918C68.9255 363.661 72.5817 357.626 78.4616 354.56C84.53 351.404 92.4788 351.668 98.8683 353.651C112.654 357.932 119.508 372.806 121.458 386.142Z" fill="#0A91B1"/>
<path d="M127.792 477.457C126.108 471.847 124.426 466.235 122.698 460.637C119.312 449.674 115.795 438.75 111.9 427.956C109.567 421.49 107.106 415.088 104.516 408.746C104.957 404.762 105.132 400.793 105.989 396.821C107.021 392.039 108.519 387.419 109.913 382.74C109.998 382.452 109.532 382.3 109.415 382.574C106.645 389.02 103.031 397.272 102.942 404.908C99.929 397.733 96.7112 390.654 93.2463 383.686C93.0509 377.746 92.8345 371.989 93.7894 366.012C93.8326 365.742 93.4222 365.663 93.3734 365.931C92.4464 370.949 91.7931 376.332 92.1658 381.532C89.5134 376.297 86.7214 371.125 83.7479 366.034C83.4799 365.575 82.8461 366.044 83.0806 366.496C87.7168 375.422 92.0164 384.535 96.0509 393.77C90.4627 388.814 83.6963 385.063 76.7107 382.57C76.4036 382.461 76.1718 382.905 76.4845 383.034C84.4348 386.357 91.109 391.054 97.4036 396.884C100.303 403.646 103.066 410.467 105.696 417.331C97.9774 409.765 87.4152 404.787 77.1979 402.118C76.8489 402.027 76.7582 402.56 77.0918 402.661C88.9145 406.221 98.1002 412.924 107.092 420.976C108.136 423.754 109.162 426.537 110.167 429.324C113.977 439.895 117.588 450.539 121.05 461.229C122.71 466.353 124.344 471.485 125.948 476.628C127.673 482.16 129.022 488.001 131.268 493.342C131.483 493.853 132.399 493.736 132.283 493.124C131.271 487.828 129.343 482.621 127.792 477.457Z" fill="#263238"/>
<path d="M107.33 375.344C105.12 378.731 103.644 382.454 102.886 386.417C102.867 386.519 103.026 386.579 103.064 386.476C104.439 382.744 106.055 379.141 107.88 375.611C108.066 375.25 107.538 375.024 107.33 375.344Z" fill="#263238"/>
<path d="M85.3235 401.046C82.1309 399.229 77.8926 397.796 74.2533 397.318C74.1528 397.304 74.0899 397.452 74.1946 397.496C75.9745 398.234 77.8438 398.749 79.646 399.442C81.4552 400.137 83.2184 400.98 85.0471 401.617C85.4269 401.749 85.6865 401.252 85.3235 401.046Z" fill="#263238"/>
<path d="M79.1237 370.128C78.0027 369.386 76.8078 368.432 75.5625 367.93C75.3671 367.85 75.1954 368.093 75.3573 368.242C76.3443 369.151 77.7208 369.827 78.8669 370.519C79.0944 370.655 79.3471 370.275 79.1237 370.128Z" fill="#263238"/>
<path d="M163.044 428.039C154.16 430.676 145.23 433.113 136.347 435.721C135.575 435.953 120.557 407.173 125.984 392.347C131.002 378.625 142.487 368.354 156.181 363.693C162.525 361.537 170.324 359.728 177.025 361.207C182.983 362.526 187.192 367.402 189.128 373.006C191.765 380.622 190.886 389.706 189.452 397.483C188.119 404.693 185.481 411.795 180.71 417.46C175.991 423.068 169.968 425.985 163.044 428.039Z" fill="#0A91B1"/>
<path d="M175.924 400.687C170.268 403.539 164.536 405.607 158.505 407.544C154.729 408.759 150.497 409.853 146.876 411.755C150.627 403.39 154.744 395.201 159.115 387.084C164.854 385.423 170.89 382.834 175.218 378.771C175.454 378.551 175.151 378.217 174.894 378.397C170.16 381.742 164.939 383.751 159.701 386.012C160.884 383.829 162.074 381.647 163.292 379.471C163.631 378.866 162.798 378.264 162.39 378.852C157.734 385.571 153.545 392.694 149.766 400.053C148.828 393.56 148.491 387.234 148.853 380.628C148.861 380.459 148.62 380.446 148.595 380.61C147.496 387.595 147.548 394.987 148.814 401.955C145.698 408.174 142.86 414.545 140.309 420.995C139.296 417.119 137.978 413.304 137.1 409.397C135.835 403.774 135.242 398.044 135.824 392.294C135.841 392.125 135.594 392.114 135.566 392.276C133.843 402.471 135.415 413.985 139.293 423.671C137.808 427.554 136.391 431.452 135.095 435.357C128.462 455.346 124.373 475.957 123.303 496.998C123.278 497.484 123.999 497.533 124.054 497.053C126.468 476.412 130.73 455.867 137.294 436.137C139.871 428.392 142.836 420.87 146.09 413.491C151.336 411.942 156.564 409.836 161.719 408.051C166.748 406.31 171.901 404.294 176.124 400.989C176.289 400.86 176.107 400.595 175.924 400.687Z" fill="#263238"/>
<path d="M184.208 392.326C178.775 394.259 173.625 396.964 168.196 398.924C167.942 399.016 168.09 399.418 168.346 399.365C174.089 398.18 179.786 396.404 184.414 392.638C184.592 392.494 184.397 392.259 184.208 392.326Z" fill="#263238"/>
<path d="M139.842 380.604C139.908 380.317 139.486 380.151 139.398 380.447C137.909 385.455 136.88 390.77 138.329 395.889C138.386 396.09 138.702 396.096 138.713 395.865C138.974 390.707 138.686 385.689 139.842 380.604Z" fill="#263238"/>
<path d="M162.293 369.034C160.473 371.358 159.817 374.66 159.935 377.551C159.944 377.742 160.248 377.853 160.3 377.628C160.961 374.763 162.068 372.151 162.948 369.368C163.078 368.959 162.551 368.705 162.293 369.034Z" fill="#263238"/>
<path d="M57.3673 440.733C59.9723 448.998 66.1607 460.426 75.962 460.517C82.3152 460.577 88.7145 459.824 95.0831 459.733C101.904 459.627 108.739 459.643 115.544 460.05C116.101 460.08 114.728 439.627 98.3343 429.666C93.7415 426.876 88.1268 425.992 82.9169 424.863C76.9546 423.567 70.8122 422.695 64.6991 422.966C60.9355 423.116 57.8029 423.914 56.4627 427.768C55.0625 431.804 56.1165 436.803 57.3673 440.733Z" fill="#0A91B1"/>
<path d="M64.4183 430.388C68.4011 431.413 72.4202 432.59 76.4183 433.859C75.3504 432.752 74.3076 431.628 73.1154 430.637C71.3983 429.209 69.5095 428.069 67.6682 426.819C67.5146 426.714 67.6068 426.418 67.8036 426.496C71.4388 427.924 75.2192 430.907 77.4709 434.184C82.4532 435.793 87.3881 437.569 92.1373 439.519C95.5086 440.903 98.6175 442.553 101.528 444.464C100.483 442.441 99.5277 440.364 98.1303 438.552C95.9553 435.732 93.0112 434.162 90.1633 432.16C89.8939 431.97 90.1229 431.592 90.4188 431.723C96.8516 434.582 100.763 439.222 103.202 445.585C106.565 447.983 109.643 450.782 112.501 454.028C123.346 466.346 131.887 482.737 131.919 499.462C131.92 499.862 131.28 499.973 131.203 499.559C128.125 482.946 121.565 468.027 110.52 455.132C109.744 454.226 108.948 453.364 108.135 452.53C105.154 452.217 102.198 451.82 99.1759 451.866C95.6859 451.919 92.2238 452.378 88.7492 452.661C83.027 453.126 76.6989 453.193 71.5379 450.315C71.3104 450.188 71.4639 449.793 71.7194 449.885C83.2266 454.069 95.295 448.761 106.83 451.257C101.909 446.539 96.3197 442.981 89.8199 440.286C89.4681 440.141 89.1135 440.004 88.7617 439.861C81.3769 440.749 73.5802 442.673 66.3881 440.273C66.1745 440.202 66.2596 439.877 66.4816 439.933C73.4309 441.668 80.0954 439.486 86.9539 439.138C79.4867 436.232 71.8771 433.919 64.3834 431.032C63.751 430.789 63.737 430.212 64.4183 430.388Z" fill="#263238"/>
<path d="M61.1608 437.659C64.7666 438.252 68.286 438.271 71.91 438.473C71.9923 438.477 72.0189 438.602 71.9309 438.623C68.3962 439.418 64.5293 438.929 61.0868 437.931C60.9067 437.879 60.9849 437.629 61.1608 437.659Z" fill="#263238"/>
<path d="M85.4365 430.568C87.3965 431.247 89.2225 432.909 90.7567 434.268C90.9438 434.434 90.6925 434.769 90.4859 434.619C89.5841 433.962 88.6557 433.345 87.719 432.739C86.8647 432.188 85.9098 431.748 85.128 431.1C84.8837 430.898 85.1448 430.468 85.4365 430.568Z" fill="#263238"/>
<path d="M143.319 457.184C143.199 457.455 143.59 457.711 143.741 457.426C143.756 457.426 143.756 457.426 143.756 457.411C143.816 457.486 143.892 457.561 144.012 457.577C150.637 459.006 157.292 460.468 164.036 461.069C169.457 461.551 175.705 461.853 180.447 458.706C186.876 454.445 191.107 443.047 187.628 435.806C183.519 427.208 171.126 431.876 164.909 434.932C155.349 439.598 147.671 447.488 143.319 457.184Z" fill="#0A91B1"/>
<path d="M138.511 461.159C142.158 457.591 146.191 454.62 150.468 452.057C153.4 447.08 157.899 442.948 162.594 439.699C162.828 439.537 163.029 439.909 162.813 440.075C158.764 443.191 155.605 446.848 152.595 450.823C157.38 448.154 162.437 445.955 167.597 443.999C169.393 440.705 172.32 437.621 175.655 435.925C175.722 435.89 175.807 435.983 175.74 436.035C172.83 438.313 170.495 440.677 168.461 443.672C171.508 442.535 174.587 441.475 177.663 440.455C177.941 440.362 178.044 440.783 177.782 440.886C172.306 443.026 166.706 445.283 161.279 447.887C168.129 448.805 174.298 449.019 181.264 447.828C181.447 447.798 181.528 448.059 181.342 448.112C174.62 450.031 166.913 450.386 160.137 448.429C156.675 450.13 153.296 451.986 150.078 454.061C152.771 453.711 155.48 454.184 158.209 454.726C162.968 455.671 167.622 456.51 172.494 456.344C172.675 456.338 172.723 456.636 172.537 456.668C164.249 458.093 156.413 454.327 148.199 455.307C145.158 457.398 142.282 459.705 139.645 462.294C134.482 467.36 130.352 473.417 127.169 479.897C123.711 486.934 121.836 494.395 119.041 501.665C118.918 501.985 118.474 501.862 118.53 501.524C120.927 487.19 128.066 471.379 138.511 461.159Z" fill="#263238"/>
<path d="M163.506 441.497C163.989 440.509 164.835 439.666 165.629 438.923C166.323 438.273 167.17 437.432 168.076 437.092C168.16 437.061 168.206 437.174 168.156 437.23C167.477 438.002 166.531 438.566 165.798 439.304C165.06 440.048 164.448 440.918 163.701 441.648C163.597 441.749 163.446 441.62 163.506 441.497Z" fill="#263238"/>
<path d="M177.174 445.948C178.403 445.639 179.704 445.662 180.953 445.406C182.218 445.148 183.392 444.697 184.616 444.309C184.777 444.259 184.872 444.493 184.729 444.578C182.712 445.776 179.529 446.795 177.174 446.333C176.977 446.294 176.99 445.994 177.174 445.948Z" fill="#263238"/>
<path d="M104.363 483.859L105.451 496.214L109.142 537.925H141.808L146.421 496.214L147.783 483.859H104.363Z" fill="#455A64"/>
<path d="M104.363 483.859L105.451 496.214H146.421L147.783 483.859H104.363Z" fill="#263238"/>
<path d="M101.127 490.513H151.016V480.491H101.127V490.513Z" fill="#455A64"/>
<path d="M55.7969 537.75L129.098 537.411L202.398 537.288L348.999 537.054L495.6 537.287L568.899 537.41L642.199 537.75L568.899 538.092L495.6 538.215L348.999 538.447L202.398 538.214L129.098 538.09L55.7969 537.75Z" fill="#263238"/>
<path d="M424.766 105.149H199.101C186.501 105.149 176.275 115.548 176.275 128.403V592.934C176.275 605.762 186.5 616.187 199.101 616.187H424.766C437.366 616.187 447.619 605.762 447.619 592.934V128.403C447.617 115.548 437.366 105.149 424.766 105.149ZM433.335 578.571C433.335 590.798 424.178 600.689 412.885 600.689H211.008C199.689 600.689 190.531 590.798 190.531 578.571V146.009C190.531 121.102 199.688 119.887 211.008 119.887H251.453C253.802 119.887 255.725 122.556 255.725 125.867V127.296C255.725 135.05 259.97 135.078 265.175 135.078H358.693C363.952 135.078 368.171 135.052 368.171 127.296V125.867C368.171 122.558 370.067 119.887 372.455 119.887H412.888C424.18 119.887 433.338 123.197 433.338 146.009V578.571H433.335Z" fill="#263238"/>
<path d="M433.335 146.009V578.571C433.335 590.798 424.178 600.689 412.885 600.689H211.008C199.689 600.689 190.531 590.798 190.531 578.571V146.009C190.531 121.101 199.688 119.887 211.008 119.887H251.453C253.802 119.887 255.724 122.556 255.724 125.867V127.296C255.724 135.05 259.97 135.078 265.175 135.078H358.693C363.952 135.078 368.171 135.052 368.171 127.296V125.867C368.171 122.558 370.067 119.887 372.455 119.887H412.888C424.178 119.886 433.335 123.197 433.335 146.009Z" fill="white"/>
<path d="M244.47 129.602C244.34 129.731 244.209 129.86 244.079 129.99C244.005 130.064 243.931 130.138 243.857 130.212C242.807 129.193 241.558 128.65 240.095 128.65C238.632 128.65 237.382 129.191 236.324 130.216C236.254 130.143 236.184 130.068 236.113 129.995C235.985 129.866 235.856 129.737 235.728 129.607C235.725 129.604 235.721 129.603 235.717 129.6C235.717 129.597 235.717 129.593 235.717 129.59C235.727 129.582 235.736 129.575 235.746 129.567C235.911 129.42 236.07 129.269 236.24 129.13C236.591 128.841 236.976 128.602 237.382 128.401C237.864 128.164 238.368 127.989 238.897 127.892C239.147 127.845 239.401 127.822 239.654 127.791C239.74 127.781 240.298 127.778 240.315 127.78C240.487 127.792 240.66 127.801 240.832 127.819C241.309 127.871 241.771 127.986 242.221 128.151C242.546 128.27 242.86 128.418 243.16 128.591C243.479 128.774 243.779 128.982 244.058 129.219C244.199 129.339 244.333 129.466 244.471 129.59C244.47 129.595 244.47 129.597 244.47 129.602Z" fill="white"/>
<path d="M237.564 131.44C237.358 131.235 237.155 131.034 236.947 130.827C237.651 130.138 238.481 129.698 239.459 129.567C240.919 129.368 242.174 129.812 243.238 130.819C243.028 131.028 242.824 131.231 242.618 131.436C241.92 130.757 241.078 130.392 240.092 130.392C239.107 130.392 238.268 130.757 237.564 131.44Z" fill="white"/>
<path d="M242.001 132.056C241.797 132.26 241.593 132.462 241.387 132.669C241.031 132.324 240.599 132.133 240.092 132.133C239.587 132.133 239.157 132.323 238.798 132.672C238.593 132.466 238.389 132.263 238.186 132.059C239.161 131.037 240.919 130.954 242.001 132.056Z" fill="white"/>
<path d="M240.647 133.227C240.647 133.534 240.399 133.781 240.093 133.781C239.788 133.781 239.539 133.533 239.539 133.227C239.539 132.921 239.788 132.673 240.093 132.673C240.399 132.673 240.647 132.921 240.647 133.227Z" fill="white"/>
<path d="M206.369 130.783C206.369 129.893 207.089 129.173 207.979 129.173C208.868 129.173 209.588 129.893 209.588 130.783C209.588 131.672 208.868 132.392 207.979 132.392C207.089 132.392 206.369 131.671 206.369 130.783Z" fill="white"/>
<path d="M211.438 130.783C211.438 129.893 212.158 129.173 213.047 129.173C213.935 129.173 214.657 129.893 214.657 130.783C214.657 131.672 213.936 132.392 213.047 132.392C212.159 132.391 211.438 131.671 211.438 130.783Z" fill="white"/>
<path d="M216.506 130.783C216.506 129.893 217.226 129.173 218.115 129.173C219.005 129.173 219.725 129.893 219.725 130.783C219.725 131.672 219.005 132.392 218.115 132.392C217.226 132.391 216.506 131.671 216.506 130.783Z" fill="white"/>
<path d="M221.574 130.783C221.574 129.893 222.295 129.173 223.184 129.173C224.073 129.173 224.793 129.893 224.793 130.783C224.793 131.672 224.073 132.392 223.184 132.392C222.295 132.391 221.574 131.671 221.574 130.783Z" fill="white"/>
<path d="M226.641 130.783C226.641 129.893 227.361 129.173 228.25 129.173C229.139 129.173 229.86 129.893 229.86 130.783C229.86 131.672 229.139 132.392 228.25 132.392C227.361 132.391 226.641 131.671 226.641 130.783Z" fill="white"/>
<path d="M415.126 134.295H402.027V128.227H415.126V134.295ZM402.695 133.626H414.459V128.894H402.695V133.626Z" fill="white"/>
<path d="M411.558 129.257H403.113V133.263H411.558V129.257Z" fill="white"/>
<path d="M416.3 129.638H415.135V132.884H416.3V129.638Z" fill="white"/>
<path d="M324.695 125.39H299.185C298.314 125.39 297.609 124.685 297.609 123.814C297.609 122.944 298.314 122.238 299.185 122.238H324.695C325.566 122.238 326.271 122.943 326.271 123.814C326.271 124.684 325.566 125.39 324.695 125.39Z" fill="white"/>
<path d="M231.57 268.379C231.57 262.917 236.081 258.568 241.599 258.568C243.908 258.568 246.11 259.356 247.796 260.689C248.502 261.205 248.611 262.211 248.095 262.889C247.578 263.542 246.573 263.678 245.895 263.135C244.725 262.237 243.23 261.666 241.601 261.666C239.643 261.666 237.932 262.399 236.708 263.65C235.43 264.874 234.669 266.531 234.669 268.378C234.669 270.172 235.43 271.83 236.708 273.053C237.932 274.304 239.643 275.037 241.601 275.037C242.959 275.037 244.236 274.629 245.324 274.004V270.281H241.437C240.595 270.281 239.888 269.574 239.888 268.731C239.888 267.862 240.595 267.21 241.437 267.21H246.791C246.819 267.21 246.819 267.21 246.819 267.21C246.845 267.21 246.845 267.21 246.845 267.21C247.715 267.21 248.421 267.862 248.421 268.731V274.738C248.421 274.928 248.367 275.037 248.339 275.199C248.313 275.253 248.313 275.281 248.285 275.336V275.364C248.202 275.608 248.04 275.824 247.768 276.016C246.057 277.347 243.908 278.136 241.599 278.136C236.082 278.136 231.57 273.815 231.57 268.379Z" fill="#A6A6A6"/>
<path d="M253.297 271.34C253.323 267.645 256.205 264.546 259.928 264.546C263.461 264.546 266.26 267.182 266.477 270.85C266.477 270.878 266.477 270.933 266.477 270.986C266.477 271.04 266.477 271.176 266.45 271.23C266.368 271.884 265.797 272.318 265.037 272.318H256.395C256.531 272.943 256.83 273.649 257.319 274.112C257.89 274.763 258.976 275.252 259.928 275.334C260.906 275.417 262.075 275.171 262.753 274.655C263.324 274.057 264.438 274.138 264.793 274.572C265.146 274.953 265.417 275.769 264.793 276.34C263.461 277.562 261.857 278.133 259.928 278.133C256.205 278.108 253.323 275.037 253.297 271.34ZM256.259 270.01H263.95C263.678 268.923 262.293 267.32 259.928 267.129C257.617 267.238 256.476 268.896 256.259 270.01Z" fill="#A6A6A6"/>
<path d="M275.834 266.042C275.834 266.858 275.126 267.538 274.311 267.538H273.631V275.121C274.474 275.121 275.126 275.801 275.126 276.642C275.126 277.484 274.474 278.137 273.631 278.137C271.974 278.137 270.614 276.779 270.614 275.121V267.538H269.827C268.984 267.538 268.332 266.858 268.332 266.042C268.332 265.199 268.984 264.547 269.827 264.547H270.614V260.606C270.614 259.765 271.294 259.111 272.136 259.111C272.979 259.111 273.631 259.765 273.631 260.606V264.547H274.311C275.128 264.547 275.834 265.199 275.834 266.042Z" fill="#A6A6A6"/>
<path d="M291.717 261.149C291.717 261.965 291.092 262.645 290.248 262.645C289.433 262.645 288.781 261.965 288.781 261.149V260.58C288.781 259.765 289.433 259.111 290.248 259.111C291.092 259.111 291.717 259.765 291.717 260.58V261.149ZM291.717 266.069V276.669C291.717 277.483 291.092 278.136 290.248 278.136C289.433 278.136 288.781 277.483 288.781 276.669V266.069C288.781 265.199 289.433 264.574 290.248 264.574C291.092 264.574 291.717 265.199 291.717 266.069Z" fill="#A6A6A6"/>
<path d="M307.729 270.2V276.694C307.729 277.481 307.103 278.135 306.316 278.135C305.555 278.135 304.875 277.481 304.875 276.694V270.2C304.875 268.677 303.598 267.455 302.048 267.455C300.527 267.455 299.33 268.678 299.33 270.2V276.694C299.33 276.776 299.33 276.857 299.276 276.966C299.14 277.618 298.543 278.135 297.835 278.135C297.02 278.135 296.395 277.481 296.395 276.694V270.2V265.988C296.395 265.199 297.02 264.547 297.835 264.547C298.406 264.547 298.923 264.874 299.167 265.389C299.982 264.874 300.987 264.547 302.047 264.547C305.202 264.547 307.729 267.129 307.729 270.2Z" fill="#A6A6A6"/>
<path d="M327.336 266.042C327.336 266.858 326.63 267.538 325.813 267.538H325.133V275.121C325.976 275.121 326.628 275.801 326.628 276.642C326.628 277.484 325.976 278.137 325.133 278.137C323.476 278.137 322.116 276.779 322.116 275.121V267.538H321.329C320.486 267.538 319.834 266.858 319.834 266.042C319.834 265.199 320.486 264.547 321.329 264.547H322.116V260.606C322.116 259.765 322.796 259.111 323.638 259.111C324.481 259.111 325.133 259.765 325.133 260.606V264.547H325.813C326.628 264.547 327.336 265.199 327.336 266.042Z" fill="#A6A6A6"/>
<path d="M332.939 276.151C331.77 274.955 331.062 273.27 331.062 271.368C331.062 269.52 331.77 267.916 332.939 266.612C334.162 265.335 335.738 264.546 337.614 264.546C339.408 264.546 341.038 265.333 342.152 266.612C343.375 267.916 344.054 269.52 344.054 271.368C344.054 273.27 343.374 274.956 342.152 276.151C341.038 277.428 339.408 278.217 337.614 278.217C335.738 278.217 334.163 277.428 332.939 276.151ZM334.026 271.368C334.026 272.537 334.379 273.489 335.005 274.25C335.685 274.902 336.581 275.255 337.614 275.255C338.566 275.255 339.436 274.902 340.114 274.25C340.794 273.489 341.174 272.537 341.174 271.368C341.174 270.254 340.793 269.276 340.114 268.541C339.434 267.944 338.565 267.508 337.614 267.508C336.581 267.508 335.685 267.944 335.005 268.541C334.379 269.276 334.026 270.254 334.026 271.368Z" fill="#A6A6A6"/>
<path d="M353.631 278.136C350.533 278.136 347.979 275.581 347.979 272.484V265.989C347.979 265.229 348.63 264.549 349.419 264.549C350.233 264.549 350.858 265.229 350.858 265.989V272.484C350.858 274.033 352.083 275.256 353.631 275.256C355.207 275.256 356.456 274.033 356.484 272.484V265.989C356.484 265.229 357.082 264.549 357.897 264.549C358.658 264.549 359.364 265.229 359.364 265.989V272.484C359.364 275.581 356.757 278.136 353.631 278.136Z" fill="#A6A6A6"/>
<path d="M363.969 271.368C363.969 267.591 367.121 264.574 370.872 264.547C372.501 264.547 374.024 265.145 375.193 266.042C375.818 266.531 375.925 267.455 375.491 268.053C374.948 268.706 374.079 268.814 373.453 268.325C372.747 267.808 371.877 267.455 370.872 267.455C368.67 267.455 366.849 269.277 366.849 271.368C366.849 273.461 368.67 275.255 370.872 275.255C371.851 275.255 372.747 274.901 373.453 274.385C374.051 273.923 374.948 274.032 375.491 274.685C375.925 275.283 375.818 276.152 375.193 276.695C374.024 277.539 372.501 278.136 370.872 278.136C367.121 278.136 363.969 275.091 363.969 271.368Z" fill="#A6A6A6"/>
<path d="M383.463 276.641C383.463 277.483 382.784 278.136 381.94 278.136C381.261 278.136 380.69 277.647 380.5 277.022C380.473 276.913 380.445 276.778 380.445 276.641V260.606C380.445 259.765 381.125 259.111 381.94 259.111C382.784 259.111 383.463 259.765 383.463 260.606V265.336C384.333 264.874 385.312 264.549 386.371 264.549C389.66 264.549 392.296 267.239 392.296 270.5V276.642C392.296 277.484 391.643 278.137 390.801 278.137C389.958 278.137 389.306 277.484 389.306 276.642V270.5C389.306 268.897 388 267.592 386.37 267.564C384.767 267.592 383.489 268.896 383.462 270.5V276.641H383.463Z" fill="#A6A6A6"/>
<path d="M408.653 293.562H215.211V486.008H408.653V293.562Z" fill="white"/>
<path d="M408.654 486.006L215.212 486.094H215.124V486.006L215.037 293.562V293.387H215.212L408.654 293.474H408.742V293.562L408.654 486.006ZM408.654 486.006L408.566 293.561L408.654 293.647L215.212 293.734L215.386 293.561L215.3 486.005L215.213 485.918L408.654 486.006Z" fill="#DBDBDB"/>
<path d="M233.366 317.607C233.366 317.858 233.156 318.069 232.912 318.069C232.652 318.069 232.45 317.859 232.45 317.607V312.731C232.45 312.731 232.45 312.731 232.45 312.722C232.442 312.58 232.509 312.429 232.634 312.337C232.844 312.193 233.13 312.236 233.272 312.437L235.983 316.19V312.732C235.983 312.489 236.186 312.278 236.437 312.278C236.69 312.278 236.899 312.488 236.899 312.732V317.608C236.899 317.859 236.69 318.07 236.437 318.07C236.303 318.07 236.177 318.003 236.092 317.903C236.075 317.886 236.059 317.869 236.05 317.852L233.364 314.127V317.607H233.366Z" fill="#A6A6A6"/>
<path d="M242.367 315.979V317.623C242.367 317.866 242.166 318.069 241.923 318.069C241.705 318.069 241.536 317.91 241.486 317.709C241.168 317.935 240.79 318.069 240.371 318.069C239.8 318.069 239.304 317.833 238.944 317.456C238.582 317.071 238.373 316.55 238.373 315.979C238.373 315.4 238.582 314.879 238.944 314.502C239.304 314.117 239.8 313.872 240.371 313.872C240.79 313.872 241.168 314.015 241.486 314.242C241.536 314.033 241.705 313.872 241.923 313.872C242.166 313.872 242.367 314.073 242.367 314.326V315.979ZM241.478 315.979C241.478 315.627 241.352 315.324 241.151 315.115C240.949 314.889 240.664 314.77 240.371 314.77C240.069 314.77 239.783 314.889 239.59 315.115C239.388 315.324 239.271 315.627 239.271 315.979C239.271 316.324 239.388 316.625 239.59 316.843C239.783 317.052 240.069 317.171 240.371 317.171C240.664 317.171 240.95 317.054 241.151 316.843C241.351 316.624 241.478 316.322 241.478 315.979Z" fill="#A6A6A6"/>
<path d="M247.518 315.609C247.518 315.617 247.518 315.626 247.518 315.634V317.623C247.518 317.866 247.315 318.069 247.073 318.069C246.837 318.069 246.619 317.866 246.619 317.623V315.634C246.619 315.626 246.619 315.617 246.619 315.609C246.611 315.147 246.225 314.77 245.755 314.77C245.294 314.77 244.907 315.157 244.907 315.634V317.623C244.907 317.64 244.899 317.665 244.899 317.682C244.899 317.69 244.899 317.707 244.899 317.707C244.891 317.724 244.891 317.741 244.874 317.757C244.874 317.766 244.874 317.783 244.874 317.799C244.799 317.95 244.631 318.067 244.455 318.067C244.422 318.067 244.396 318.059 244.371 318.059C244.169 318.009 244.01 317.841 244.01 317.622V315.633C244.01 315.624 244.01 315.624 244.01 315.624V314.323C244.01 314.062 244.212 313.87 244.455 313.87C244.631 313.87 244.79 313.962 244.859 314.121C245.127 313.962 245.436 313.87 245.756 313.87C246.285 313.87 246.754 314.087 247.074 314.449C247.385 314.089 247.863 313.87 248.392 313.87C249.356 313.87 250.137 314.658 250.137 315.631V317.621C250.137 317.864 249.936 318.066 249.693 318.066C249.45 318.066 249.239 317.864 249.239 317.621V315.631C249.239 315.154 248.853 314.767 248.392 314.767C247.913 314.77 247.535 315.147 247.518 315.609Z" fill="#A6A6A6"/>
<path d="M251.691 315.97C251.7 314.829 252.589 313.872 253.739 313.872C254.831 313.872 255.695 314.686 255.762 315.82C255.762 315.828 255.762 315.845 255.762 315.862C255.762 315.878 255.762 315.92 255.754 315.937C255.729 316.138 255.553 316.272 255.317 316.272H252.648C252.69 316.465 252.782 316.682 252.932 316.826C253.108 317.027 253.445 317.178 253.738 317.203C254.041 317.228 254.401 317.153 254.61 316.994C254.786 316.809 255.131 316.835 255.24 316.969C255.349 317.086 255.433 317.339 255.24 317.514C254.83 317.891 254.334 318.069 253.738 318.069C252.589 318.06 251.698 317.111 251.691 315.97ZM252.606 315.559H254.982C254.897 315.222 254.469 314.728 253.739 314.668C253.026 314.703 252.673 315.215 252.606 315.559Z" fill="#A6A6A6"/>
<path opacity="0.2" d="M392.295 323.157H231.57V336.682H392.295V323.157Z" fill="#0A91B1"/>
<path d="M232.443 354.229V349.278C232.443 349.018 232.644 348.815 232.905 348.815H232.914C232.914 348.815 232.914 348.815 232.931 348.815H235.65C235.893 348.815 236.112 349.018 236.112 349.278C236.112 349.539 235.894 349.748 235.65 349.748H233.376V351.284H235.332C235.583 351.284 235.792 351.501 235.792 351.746C235.792 352.007 235.583 352.216 235.332 352.216H233.376V353.76H235.65C235.893 353.76 236.112 353.969 236.112 354.231C236.112 354.483 235.894 354.693 235.65 354.693H232.931C232.914 354.693 232.914 354.684 232.914 354.684L232.905 354.693C232.644 354.691 232.443 354.482 232.443 354.229Z" fill="#A6A6A6"/>
<path d="M240.833 352.232C240.833 352.24 240.833 352.248 240.833 352.257V354.246C240.833 354.49 240.631 354.691 240.388 354.691C240.152 354.691 239.934 354.489 239.934 354.246V352.257C239.934 352.248 239.934 352.24 239.934 352.232C239.926 351.77 239.54 351.393 239.07 351.393C238.608 351.393 238.222 351.779 238.222 352.257V354.246C238.222 354.264 238.214 354.288 238.214 354.306C238.214 354.314 238.214 354.331 238.214 354.331C238.206 354.348 238.206 354.365 238.189 354.381C238.189 354.39 238.189 354.407 238.189 354.423C238.114 354.574 237.946 354.691 237.77 354.691C237.737 354.691 237.711 354.683 237.686 354.683C237.485 354.633 237.326 354.465 237.326 354.246V352.257C237.326 352.248 237.326 352.248 237.326 352.248V350.947C237.326 350.688 237.527 350.494 237.771 350.494C237.947 350.494 238.107 350.586 238.175 350.745C238.443 350.586 238.754 350.494 239.073 350.494C239.602 350.494 240.071 350.711 240.39 351.073C240.702 350.713 241.179 350.494 241.708 350.494C242.673 350.494 243.455 351.282 243.455 352.255V354.245C243.455 354.489 243.254 354.69 243.011 354.69C242.768 354.69 242.557 354.488 242.557 354.245V352.255C242.557 351.778 242.17 351.391 241.71 351.391C241.227 351.393 240.85 351.771 240.833 352.232Z" fill="#A6A6A6"/>
<path d="M248.851 352.601V354.246C248.851 354.49 248.65 354.691 248.407 354.691C248.19 354.691 248.021 354.532 247.971 354.33C247.652 354.556 247.274 354.691 246.855 354.691C246.284 354.691 245.789 354.455 245.428 354.078C245.067 353.693 244.857 353.172 244.857 352.601C244.857 352.023 245.067 351.501 245.428 351.124C245.789 350.739 246.284 350.495 246.855 350.495C247.274 350.495 247.652 350.637 247.971 350.865C248.021 350.655 248.19 350.495 248.407 350.495C248.65 350.495 248.851 350.696 248.851 350.949V352.601ZM247.962 352.601C247.962 352.25 247.836 351.947 247.635 351.737C247.433 351.511 247.148 351.393 246.855 351.393C246.554 351.393 246.267 351.511 246.075 351.737C245.872 351.947 245.755 352.25 245.755 352.601C245.755 352.946 245.872 353.248 246.075 353.467C246.267 353.676 246.554 353.794 246.855 353.794C247.148 353.794 247.434 353.676 247.635 353.467C247.836 353.248 247.962 352.946 247.962 352.601Z" fill="#A6A6A6"/>
<path d="M251.407 349.446C251.407 349.698 251.215 349.909 250.954 349.909C250.702 349.909 250.5 349.699 250.5 349.446V349.271C250.5 349.019 250.702 348.817 250.954 348.817C251.215 348.817 251.407 349.019 251.407 349.271V349.446ZM251.407 350.965V354.239C251.407 354.492 251.215 354.693 250.954 354.693C250.702 354.693 250.5 354.49 250.5 354.239V350.965C250.5 350.697 250.702 350.503 250.954 350.503C251.213 350.503 251.407 350.696 251.407 350.965Z" fill="#A6A6A6"/>
<path d="M253.193 348.816C253.454 348.816 253.663 349.025 253.663 349.278V354.229C253.663 354.482 253.454 354.691 253.193 354.691C252.941 354.691 252.73 354.482 252.73 354.229V349.278C252.732 349.026 252.941 348.816 253.193 348.816Z" fill="#A6A6A6"/>
<path d="M260.828 352.601V354.246C260.828 354.49 260.627 354.691 260.384 354.691C260.166 354.691 259.997 354.532 259.947 354.33C259.629 354.556 259.252 354.691 258.832 354.691C258.261 354.691 257.765 354.455 257.405 354.078C257.043 353.693 256.834 353.172 256.834 352.601C256.834 352.023 257.043 351.501 257.405 351.124C257.765 350.739 258.261 350.495 258.832 350.495C259.252 350.495 259.629 350.637 259.947 350.865C259.997 350.655 260.166 350.495 260.384 350.495C260.627 350.495 260.828 350.696 260.828 350.949V352.601ZM259.939 352.601C259.939 352.25 259.813 351.947 259.612 351.737C259.41 351.511 259.125 351.393 258.832 351.393C258.53 351.393 258.244 351.511 258.051 351.737C257.849 351.947 257.732 352.25 257.732 352.601C257.732 352.946 257.849 353.248 258.051 353.467C258.244 353.676 258.53 353.794 258.832 353.794C259.126 353.794 259.411 353.676 259.612 353.467C259.813 353.248 259.939 352.946 259.939 352.601Z" fill="#A6A6A6"/>
<path d="M266.271 354.238C266.271 354.482 266.068 354.691 265.817 354.691C265.589 354.691 265.413 354.532 265.371 354.33C265.052 354.548 264.65 354.691 264.231 354.691C263.097 354.691 262.191 353.734 262.191 352.6C262.191 351.45 263.097 350.494 264.231 350.494C264.641 350.494 265.045 350.628 265.356 350.845V349.268C265.356 349.025 265.557 348.814 265.818 348.814C266.07 348.814 266.272 349.024 266.272 349.268V352.592C266.272 352.592 266.272 352.592 266.272 352.6L266.271 354.238ZM264.232 351.409C263.929 351.409 263.653 351.535 263.444 351.754C263.234 351.964 263.109 352.267 263.109 352.602C263.109 352.921 263.234 353.223 263.444 353.432C263.653 353.65 263.931 353.777 264.232 353.777C264.542 353.777 264.812 353.65 265.021 353.432C265.231 353.223 265.358 352.92 265.358 352.602C265.358 352.267 265.232 351.964 265.021 351.754C264.81 351.535 264.542 351.409 264.232 351.409Z" fill="#A6A6A6"/>
<path d="M270.591 350.939C270.591 351.173 270.399 351.384 270.147 351.384C269.955 351.384 269.786 351.434 269.643 351.543C269.484 351.644 269.357 351.786 269.258 351.947C269.056 352.215 268.955 352.535 268.913 352.652V354.246C268.913 354.49 268.704 354.691 268.451 354.691C268.208 354.691 268.006 354.489 268.006 354.246V350.939C268.006 350.696 268.208 350.502 268.451 350.502C268.702 350.502 268.913 350.695 268.913 350.939V350.998C268.964 350.939 269.031 350.872 269.089 350.83C269.367 350.646 269.727 350.495 270.147 350.503C270.399 350.503 270.591 350.696 270.591 350.939Z" fill="#A6A6A6"/>
<path d="M270.975 352.593C270.983 351.451 271.872 350.495 273.023 350.495C274.113 350.495 274.977 351.309 275.044 352.442C275.044 352.451 275.044 352.467 275.044 352.484C275.044 352.501 275.044 352.543 275.036 352.56C275.01 352.761 274.833 352.895 274.599 352.895H271.929C271.971 353.087 272.063 353.305 272.216 353.449C272.392 353.65 272.727 353.801 273.021 353.826C273.323 353.851 273.684 353.775 273.894 353.616C274.07 353.431 274.414 353.457 274.523 353.59C274.632 353.707 274.716 353.96 274.523 354.136C274.111 354.514 273.617 354.691 273.021 354.691C271.874 354.684 270.983 353.735 270.975 352.593ZM271.889 352.183H274.265C274.18 351.846 273.753 351.352 273.023 351.292C272.309 351.325 271.957 351.838 271.889 352.183Z" fill="#A6A6A6"/>
<path d="M276.177 353.491C276.328 353.29 276.621 353.265 276.805 353.424C277.024 353.609 277.402 353.802 277.729 353.794C277.955 353.794 278.166 353.718 278.299 353.635C278.416 353.534 278.449 353.45 278.449 353.382C278.449 353.34 278.441 353.323 278.424 353.298C278.415 353.273 278.382 353.239 278.315 353.198C278.197 353.114 277.945 353.022 277.644 352.963H277.636C277.376 352.913 277.123 352.844 276.905 352.745C276.679 352.635 276.477 352.484 276.327 352.258C276.235 352.107 276.185 351.923 276.185 351.73C276.185 351.344 276.403 351.017 276.679 350.806C276.974 350.605 277.326 350.496 277.711 350.496C278.29 350.496 278.702 350.773 278.97 350.958C279.173 351.092 279.231 351.369 279.104 351.58C278.97 351.782 278.694 351.841 278.484 351.697C278.216 351.521 277.98 351.387 277.711 351.387C277.502 351.387 277.317 351.454 277.208 351.538C277.099 351.613 277.074 351.689 277.074 351.732C277.074 351.765 277.074 351.774 277.091 351.799C277.099 351.816 277.123 351.849 277.183 351.883C277.292 351.958 277.51 352.033 277.796 352.085L277.804 352.093H277.813C278.089 352.144 278.35 352.219 278.595 352.336C278.821 352.437 279.047 352.597 279.191 352.832C279.291 352.999 279.35 353.192 279.35 353.386C279.35 353.798 279.124 354.141 278.821 354.36C278.518 354.568 278.141 354.695 277.73 354.695C277.076 354.687 276.572 354.384 276.237 354.116C276.05 353.961 276.026 353.676 276.177 353.491Z" fill="#A6A6A6"/>
<path d="M280.218 353.491C280.369 353.29 280.662 353.265 280.848 353.424C281.066 353.609 281.444 353.802 281.771 353.794C281.997 353.794 282.206 353.718 282.34 353.635C282.459 353.534 282.491 353.45 282.491 353.382C282.491 353.34 282.483 353.323 282.466 353.298C282.458 353.273 282.424 353.239 282.357 353.198C282.238 353.114 281.987 353.022 281.686 352.963H281.677C281.416 352.913 281.165 352.844 280.947 352.745C280.721 352.635 280.519 352.484 280.369 352.258C280.277 352.107 280.225 351.923 280.225 351.73C280.225 351.344 280.443 351.017 280.721 350.806C281.016 350.605 281.367 350.496 281.753 350.496C282.332 350.496 282.744 350.773 283.012 350.958C283.214 351.092 283.272 351.369 283.146 351.58C283.012 351.782 282.735 351.841 282.526 351.697C282.258 351.521 282.022 351.387 281.753 351.387C281.543 351.387 281.359 351.454 281.25 351.538C281.141 351.613 281.115 351.689 281.115 351.732C281.115 351.765 281.115 351.774 281.133 351.799C281.141 351.816 281.165 351.849 281.225 351.883C281.334 351.958 281.552 352.033 281.836 352.085L281.845 352.093H281.853C282.13 352.144 282.391 352.219 282.635 352.336C282.861 352.437 283.087 352.597 283.231 352.832C283.332 352.999 283.39 353.192 283.39 353.386C283.39 353.798 283.164 354.141 282.861 354.36C282.558 354.568 282.181 354.695 281.771 354.695C281.115 354.687 280.612 354.384 280.277 354.116C280.091 353.961 280.066 353.676 280.218 353.491Z" fill="#A6A6A6"/>
<path opacity="0.2" d="M392.295 359.78H231.57V373.304H392.295V359.78Z" fill="#0A91B1"/>
<path d="M236.532 386.228L234.812 388.586V390.853C234.812 391.112 234.61 391.314 234.35 391.314C234.107 391.314 233.888 391.112 233.888 390.853V388.586L232.185 386.228C232.026 386.026 232.066 385.74 232.277 385.59C232.487 385.44 232.773 385.482 232.915 385.691L234.35 387.654L235.785 385.691C235.944 385.482 236.229 385.438 236.432 385.59C236.633 385.741 236.675 386.027 236.532 386.228Z" fill="#A6A6A6"/>
<path d="M236.882 390.701C236.522 390.331 236.303 389.81 236.303 389.223C236.303 388.653 236.521 388.156 236.882 387.754C237.26 387.361 237.748 387.116 238.326 387.116C238.88 387.116 239.384 387.361 239.727 387.754C240.104 388.156 240.315 388.653 240.315 389.223C240.315 389.81 240.105 390.331 239.727 390.701C239.384 391.095 238.88 391.339 238.326 391.339C237.748 391.339 237.26 391.096 236.882 390.701ZM237.219 389.224C237.219 389.586 237.327 389.88 237.52 390.115C237.729 390.317 238.007 390.426 238.326 390.426C238.619 390.426 238.888 390.317 239.098 390.115C239.307 389.88 239.424 389.586 239.424 389.224C239.424 388.881 239.307 388.578 239.098 388.352C238.888 388.167 238.619 388.032 238.326 388.032C238.007 388.032 237.729 388.167 237.52 388.352C237.327 388.578 237.219 388.881 237.219 389.224Z" fill="#A6A6A6"/>
<path d="M243.265 391.314C242.308 391.314 241.52 390.525 241.52 389.569V387.562C241.52 387.327 241.721 387.118 241.963 387.118C242.216 387.118 242.409 387.327 242.409 387.562V389.569C242.409 390.048 242.787 390.425 243.265 390.425C243.752 390.425 244.137 390.047 244.145 389.569V387.562C244.145 387.327 244.33 387.118 244.582 387.118C244.817 387.118 245.036 387.327 245.036 387.562V389.569C245.036 390.525 244.231 391.314 243.265 391.314Z" fill="#A6A6A6"/>
<path d="M249.33 387.561C249.33 387.797 249.137 388.007 248.886 388.007C248.694 388.007 248.525 388.057 248.382 388.166C248.223 388.266 248.096 388.409 247.997 388.568C247.794 388.836 247.694 389.156 247.653 389.273V390.869C247.653 391.111 247.444 391.313 247.191 391.313C246.949 391.313 246.746 391.11 246.746 390.869V387.561C246.746 387.319 246.949 387.125 247.191 387.125C247.443 387.125 247.653 387.319 247.653 387.561V387.62C247.704 387.561 247.771 387.494 247.829 387.453C248.107 387.268 248.467 387.118 248.888 387.126C249.137 387.126 249.33 387.319 249.33 387.561Z" fill="#A6A6A6"/>
<path d="M256.452 388.854C256.452 388.864 256.452 388.872 256.452 388.881V390.87C256.452 391.113 256.249 391.314 256.006 391.314C255.772 391.314 255.552 391.112 255.552 390.87V388.881C255.552 388.872 255.552 388.864 255.552 388.854C255.544 388.394 255.159 388.017 254.688 388.017C254.226 388.017 253.841 388.402 253.841 388.881V390.87C253.841 390.887 253.833 390.912 253.833 390.929C253.833 390.937 253.833 390.955 253.833 390.955C253.824 390.972 253.824 390.987 253.807 391.004C253.807 391.014 253.807 391.031 253.807 391.046C253.732 391.197 253.565 391.314 253.389 391.314C253.355 391.314 253.329 391.306 253.304 391.306C253.102 391.255 252.943 391.088 252.943 390.869V388.879C252.943 388.871 252.943 388.871 252.943 388.871V387.57C252.943 387.31 253.144 387.116 253.389 387.116C253.565 387.116 253.724 387.208 253.792 387.369C254.06 387.21 254.371 387.116 254.69 387.116C255.219 387.116 255.688 387.334 256.008 387.696C256.319 387.334 256.796 387.116 257.325 387.116C258.29 387.116 259.072 387.905 259.072 388.879V390.869C259.072 391.112 258.871 391.313 258.628 391.313C258.385 391.313 258.174 391.11 258.174 390.869V388.879C258.174 388.401 257.787 388.015 257.327 388.015C256.847 388.017 256.468 388.394 256.452 388.854Z" fill="#A6A6A6"/>
<path d="M260.627 389.216C260.635 388.075 261.526 387.118 262.675 387.118C263.767 387.118 264.631 387.932 264.698 389.065C264.698 389.075 264.698 389.092 264.698 389.107C264.698 389.122 264.698 389.166 264.689 389.184C264.664 389.385 264.488 389.519 264.252 389.519H261.583C261.625 389.711 261.717 389.929 261.868 390.073C262.044 390.275 262.38 390.426 262.673 390.451C262.976 390.478 263.337 390.401 263.546 390.242C263.722 390.058 264.065 390.083 264.176 390.218C264.284 390.335 264.37 390.588 264.176 390.764C263.765 391.142 263.27 391.318 262.673 391.318C261.525 391.306 260.634 390.356 260.627 389.216ZM261.541 388.805H263.917C263.834 388.469 263.405 387.973 262.675 387.915C261.962 387.95 261.608 388.461 261.541 388.805Z" fill="#A6A6A6"/>
<path d="M265.826 390.115C265.977 389.912 266.27 389.889 266.455 390.048C266.673 390.232 267.052 390.426 267.378 390.418C267.606 390.418 267.815 390.341 267.949 390.259C268.066 390.158 268.1 390.073 268.1 390.006C268.1 389.964 268.092 389.947 268.075 389.921C268.066 389.896 268.033 389.862 267.966 389.82C267.849 389.737 267.596 389.644 267.294 389.586H267.286C267.025 389.536 266.774 389.469 266.556 389.368C266.328 389.259 266.127 389.108 265.977 388.881C265.885 388.73 265.834 388.546 265.834 388.352C265.834 387.966 266.052 387.638 266.33 387.429C266.623 387.227 266.976 387.118 267.363 387.118C267.941 387.118 268.353 387.394 268.622 387.58C268.823 387.714 268.882 387.99 268.756 388.2C268.622 388.402 268.344 388.459 268.135 388.317C267.867 388.141 267.632 388.007 267.363 388.007C267.153 388.007 266.968 388.074 266.859 388.156C266.75 388.233 266.725 388.307 266.725 388.35C266.725 388.384 266.725 388.392 266.742 388.417C266.75 388.435 266.775 388.468 266.834 388.503C266.943 388.578 267.16 388.653 267.447 388.705L267.455 388.713H267.463C267.74 388.764 268.001 388.839 268.244 388.956C268.47 389.057 268.696 389.216 268.84 389.452C268.94 389.619 268.999 389.812 268.999 390.006C268.999 390.418 268.771 390.761 268.47 390.979C268.168 391.188 267.79 391.314 267.378 391.314C266.724 391.306 266.22 391.003 265.885 390.735C265.699 390.584 265.674 390.298 265.826 390.115Z" fill="#A6A6A6"/>
<path d="M269.869 390.115C270.019 389.912 270.313 389.889 270.498 390.048C270.716 390.232 271.094 390.426 271.421 390.418C271.649 390.418 271.858 390.341 271.992 390.259C272.111 390.158 272.143 390.073 272.143 390.006C272.143 389.964 272.134 389.947 272.118 389.921C272.109 389.896 272.076 389.862 272.009 389.82C271.89 389.737 271.639 389.644 271.336 389.586H271.328C271.066 389.536 270.815 389.469 270.597 389.368C270.37 389.259 270.169 389.108 270.018 388.881C269.926 388.73 269.876 388.546 269.876 388.352C269.876 387.966 270.093 387.638 270.371 387.429C270.664 387.227 271.018 387.118 271.404 387.118C271.984 387.118 272.394 387.394 272.664 387.58C272.866 387.714 272.925 387.99 272.798 388.2C272.664 388.402 272.387 388.459 272.178 388.317C271.91 388.141 271.674 388.007 271.406 388.007C271.196 388.007 271.011 388.074 270.902 388.156C270.793 388.233 270.768 388.307 270.768 388.35C270.768 388.384 270.768 388.392 270.785 388.417C270.793 388.435 270.818 388.468 270.877 388.503C270.986 388.578 271.203 388.653 271.489 388.705L271.498 388.713H271.506C271.784 388.764 272.044 388.839 272.288 388.956C272.514 389.057 272.74 389.216 272.884 389.452C272.985 389.619 273.043 389.812 273.043 390.006C273.043 390.418 272.817 390.761 272.514 390.979C272.211 391.188 271.834 391.314 271.422 391.314C270.768 391.306 270.264 391.003 269.929 390.735C269.742 390.584 269.717 390.298 269.869 390.115Z" fill="#A6A6A6"/>
<path d="M277.747 389.224V390.87C277.747 391.113 277.545 391.314 277.302 391.314C277.084 391.314 276.917 391.155 276.865 390.954C276.547 391.18 276.168 391.314 275.748 391.314C275.179 391.314 274.683 391.079 274.323 390.701C273.961 390.316 273.752 389.795 273.752 389.223C273.752 388.645 273.961 388.124 274.323 387.746C274.684 387.361 275.179 387.116 275.748 387.116C276.168 387.116 276.545 387.26 276.865 387.486C276.915 387.277 277.083 387.116 277.302 387.116C277.546 387.116 277.747 387.319 277.747 387.57V389.224ZM276.857 389.224C276.857 388.872 276.731 388.569 276.53 388.36C276.328 388.134 276.043 388.017 275.748 388.017C275.447 388.017 275.16 388.134 274.968 388.36C274.765 388.569 274.648 388.872 274.648 389.224C274.648 389.569 274.765 389.871 274.968 390.088C275.16 390.298 275.447 390.416 275.748 390.416C276.043 390.416 276.328 390.298 276.53 390.088C276.732 389.871 276.857 389.569 276.857 389.224Z" fill="#A6A6A6"/>
<path d="M283.433 389.242V390.803C283.433 391.902 282.536 392.816 281.42 392.816C281.109 392.816 280.799 392.741 280.538 392.607C280.32 392.506 280.22 392.228 280.337 392.002C280.446 391.776 280.707 391.691 280.941 391.793C281.085 391.87 281.244 391.91 281.42 391.91C281.966 391.91 282.41 391.525 282.519 391.013C282.217 391.222 281.832 391.348 281.42 391.348C280.867 391.348 280.354 391.103 279.992 390.71C279.632 390.34 279.404 389.819 279.404 389.231C279.404 388.653 279.632 388.133 279.992 387.739C280.354 387.361 280.866 387.118 281.42 387.118C281.857 387.118 282.242 387.253 282.545 387.471C282.587 387.268 282.771 387.118 282.989 387.118C283.242 387.118 283.433 387.32 283.433 387.562V389.231V389.242ZM282.537 389.233C282.537 388.898 282.401 388.578 282.219 388.378C282.001 388.142 281.74 388.017 281.422 388.017C281.127 388.017 280.851 388.142 280.648 388.378C280.447 388.579 280.313 388.898 280.313 389.233C280.313 389.586 280.448 389.904 280.648 390.098C280.849 390.324 281.127 390.442 281.422 390.442C281.741 390.442 282.001 390.324 282.219 390.098C282.401 389.904 282.537 389.586 282.537 389.233Z" fill="#A6A6A6"/>
<path d="M284.926 389.216C284.934 388.075 285.823 387.118 286.974 387.118C288.065 387.118 288.93 387.932 288.997 389.065C288.997 389.075 288.997 389.092 288.997 389.107C288.997 389.122 288.997 389.166 288.988 389.184C288.962 389.385 288.786 389.519 288.551 389.519H285.882C285.924 389.711 286.016 389.929 286.167 390.073C286.343 390.275 286.679 390.426 286.972 390.451C287.275 390.478 287.637 390.401 287.845 390.242C288.022 390.058 288.366 390.083 288.474 390.218C288.583 390.335 288.668 390.588 288.474 390.764C288.064 391.142 287.568 391.318 286.972 391.318C285.823 391.306 284.934 390.356 284.926 389.216ZM285.84 388.805H288.215C288.131 388.469 287.704 387.973 286.972 387.915C286.26 387.95 285.907 388.461 285.84 388.805Z" fill="#A6A6A6"/>
<path opacity="0.2" d="M392.295 396.404H231.57V465.439H392.295V396.404Z" fill="#0A91B1"/>
<path d="M314.106 229.761C312.586 227.446 311.731 224.842 311.731 222.091C311.731 212.376 322.401 204.499 335.553 204.499C348.706 204.499 359.364 212.376 359.364 222.091C359.364 231.807 348.706 239.685 335.553 239.685C329.176 239.685 323.393 237.836 319.122 234.817L310.916 236.904L314.106 229.761Z" fill="#0A91B1"/>
<path d="M320.926 203.079C322.821 200.193 323.886 196.948 323.886 193.518C323.886 181.406 310.585 171.584 294.187 171.584C277.79 171.584 264.5 181.405 264.5 193.518C264.5 205.629 277.789 215.452 294.187 215.452C302.139 215.452 309.347 213.148 314.672 209.383L324.902 211.984L320.926 203.079Z" fill="#CEE9EF"/>
<path d="M320.926 203.079C322.661 200.38 323.709 197.228 323.764 194.033C323.788 190.843 322.943 187.657 321.265 184.952C317.927 179.505 312.273 175.788 306.251 173.877C300.199 171.927 293.669 171.557 287.423 172.645C281.187 173.699 275.137 176.44 270.664 180.878C268.45 183.101 266.688 185.791 265.771 188.771C264.844 191.735 264.755 194.979 265.65 197.971C266.518 200.971 268.241 203.692 270.426 205.945C272.614 208.206 275.253 210.023 278.088 211.423C280.922 212.84 283.99 213.767 287.105 214.349C290.222 214.92 293.416 215.186 296.594 214.998C302.934 214.674 309.271 212.796 314.535 209.188L314.628 209.124L314.732 209.151L324.931 211.872L324.798 212.03L320.926 203.079ZM320.926 203.079L325.006 211.936L325.105 212.15L324.874 212.094L314.613 209.614L314.81 209.577C309.525 213.353 303.088 215.325 296.638 215.748C290.183 216.138 283.561 215.103 277.683 212.253C274.759 210.825 272.023 208.963 269.732 206.618C267.446 204.281 265.616 201.43 264.681 198.25C263.721 195.08 263.788 191.616 264.773 188.464C265.763 185.301 267.636 182.478 269.955 180.172C272.278 177.857 275.037 176.026 277.976 174.631C280.916 173.225 284.06 172.268 287.265 171.741C290.468 171.215 293.73 171.014 296.969 171.257C300.204 171.522 303.409 172.145 306.484 173.181C309.558 174.208 312.502 175.667 315.117 177.596C317.728 179.514 320.042 181.897 321.655 184.726C323.306 187.532 324.091 190.809 323.99 194.04C323.859 197.278 322.724 200.422 320.926 203.079Z" fill="#0A91B1"/>
<path d="M353.313 506.184H270.553V531.274H353.313V506.184Z" fill="#0A91B1"/>
<path d="M292.485 521.258C292.787 520.889 293.34 520.839 293.708 521.141C294.445 521.744 295.717 522.446 296.907 522.431C297.744 522.431 298.497 522.179 298.999 521.811C299.502 521.442 299.72 521.023 299.72 520.606C299.72 520.388 299.669 520.237 299.569 520.07C299.468 519.902 299.318 519.735 299.066 519.569C298.58 519.25 297.76 518.966 296.773 518.781H296.739C295.953 518.632 295.216 518.431 294.579 518.128C293.943 517.827 293.39 517.408 293.023 516.823C292.772 516.421 292.638 515.952 292.638 515.449C292.638 514.445 293.207 513.574 293.976 513.005C294.764 512.437 295.784 512.117 296.873 512.117C298.48 512.117 299.668 512.906 300.522 513.457C300.908 513.725 301.025 514.26 300.757 514.646C300.506 515.049 299.969 515.166 299.567 514.898C298.713 514.33 297.894 513.826 296.872 513.826C296.118 513.826 295.448 514.06 294.995 514.395C294.543 514.729 294.36 515.099 294.36 515.449C294.36 515.652 294.394 515.784 294.478 515.918C294.561 516.054 294.712 516.203 294.93 516.355C295.365 516.657 296.119 516.923 297.022 517.091H297.056C297.909 517.258 298.696 517.475 299.366 517.794C300.053 518.128 300.656 518.565 301.042 519.183C301.293 519.586 301.444 520.088 301.444 520.607C301.444 521.68 300.841 522.601 300.004 523.203C299.183 523.806 298.096 524.157 296.907 524.157C295.099 524.139 293.574 523.236 292.621 522.484C292.251 522.179 292.201 521.627 292.485 521.258Z" fill="white"/>
<path d="M303.258 519.986C303.275 517.708 305.049 515.8 307.343 515.8C309.52 515.8 311.243 517.424 311.378 519.685C311.378 519.701 311.378 519.733 311.378 519.768C311.378 519.802 311.378 519.886 311.36 519.919C311.311 520.32 310.96 520.588 310.49 520.588H305.166C305.251 520.972 305.434 521.409 305.736 521.692C306.087 522.094 306.758 522.396 307.343 522.446C307.946 522.496 308.665 522.345 309.083 522.027C309.435 521.659 310.122 521.709 310.338 521.977C310.556 522.211 310.724 522.714 310.338 523.064C309.519 523.818 308.53 524.17 307.343 524.17C305.05 524.155 303.275 522.263 303.258 519.986ZM305.082 519.165H309.822C309.654 518.497 308.8 517.507 307.344 517.39C305.92 517.458 305.216 518.478 305.082 519.165Z" fill="white"/>
<path d="M321.024 519.283V523.284C321.024 523.769 320.64 524.171 320.155 524.171C319.686 524.171 319.267 523.769 319.267 523.284V519.283C319.267 518.344 318.479 517.591 317.526 517.591C316.588 517.591 315.852 518.344 315.852 519.283V523.284C315.852 523.334 315.852 523.384 315.819 523.451C315.735 523.853 315.366 524.171 314.931 524.171C314.43 524.171 314.043 523.769 314.043 523.284V519.283V516.687C314.043 516.202 314.428 515.8 314.931 515.8C315.283 515.8 315.6 516.002 315.752 516.319C316.253 516.001 316.874 515.8 317.526 515.8C319.468 515.8 321.024 517.391 321.024 519.283Z" fill="white"/>
<path d="M331.563 523.268C331.563 523.754 331.161 524.171 330.658 524.171C330.208 524.171 329.856 523.853 329.771 523.451C329.135 523.887 328.331 524.171 327.494 524.171C325.234 524.171 323.426 522.263 323.426 520.003C323.426 517.708 325.234 515.8 327.494 515.8C328.315 515.8 329.117 516.068 329.738 516.503V513.355C329.738 512.869 330.141 512.452 330.658 512.452C331.161 512.452 331.563 512.871 331.563 513.355V519.986C331.563 519.986 331.563 519.986 331.563 520.003V523.268ZM327.494 517.625C326.891 517.625 326.339 517.877 325.92 518.312C325.502 518.731 325.25 519.333 325.25 520.003C325.25 520.639 325.502 521.243 325.92 521.661C326.339 522.097 326.891 522.347 327.494 522.347C328.114 522.347 328.65 522.095 329.068 521.661C329.487 521.243 329.738 520.641 329.738 520.003C329.738 519.333 329.487 518.731 329.068 518.312C328.65 517.875 328.115 517.625 327.494 517.625Z" fill="white"/>
<path d="M465.67 602.055C463.002 600.141 410.865 528.039 410.616 524.028C410.509 522.513 420.577 514.306 433.008 504.742C435.687 502.665 472.494 460.448 472.494 460.448L506.605 507.332L466.765 551.126C466.765 551.126 474.373 587.665 474.177 592.079C473.972 596.483 468.33 603.957 465.67 602.055Z" fill="#AD6359"/>
<path d="M465.66 602.052C463.001 600.142 410.86 528.04 410.62 524.028C410.507 522.506 420.569 514.308 433.012 504.744C433.947 504.011 439.071 498.35 445.35 491.306L479.095 537.58L466.77 551.127C466.77 551.127 474.368 587.665 474.174 592.077C473.972 596.48 468.331 603.955 465.66 602.052Z" fill="#EBEBEB"/>
<path d="M465.729 602.343C463.05 600.424 410.615 527.918 410.364 523.89C410.269 522.39 420.14 514.7 431.685 504.505C434.471 502.044 436.952 498.884 440.069 496.531L474.316 543.598L466.82 551.134C466.82 551.134 474.478 587.874 474.281 592.322C474.072 596.754 468.407 604.264 465.729 602.343Z" fill="#0A91B1"/>
<path d="M467.876 599.206C459.384 586.837 423.969 537.746 414.637 526.164C414.56 526.07 414.494 526.118 414.56 526.219C422.709 538.663 458.52 587.466 467.678 599.352C467.871 599.602 468.056 599.468 467.876 599.206Z" fill="#263238"/>
<path d="M470.758 550.894C468.191 545.465 463.227 540.147 457.177 538.956C456.942 538.91 456.879 539.244 457.041 539.364C461.941 543.008 466.083 546.724 470.14 551.311C470.426 551.635 470.943 551.282 470.758 550.894Z" fill="#263238"/>
<path d="M471.174 555.849C468.609 550.422 463.644 545.103 457.594 543.912C457.36 543.866 457.298 544.2 457.459 544.32C462.359 547.962 466.499 551.678 470.557 556.267C470.842 556.592 471.359 556.239 471.174 555.849Z" fill="#263238"/>
<path d="M471.59 560.807C469.025 555.378 464.06 550.06 458.01 548.87C457.776 548.824 457.714 549.157 457.875 549.277C462.775 552.921 466.917 556.637 470.973 561.226C471.258 561.548 471.775 561.196 471.59 560.807Z" fill="#263238"/>
<path d="M472.006 565.764C469.44 560.336 464.474 555.018 458.424 553.827C458.19 553.781 458.128 554.114 458.289 554.234C463.189 557.878 467.329 561.593 471.387 566.183C471.674 566.505 472.19 566.152 472.006 565.764Z" fill="#263238"/>
<path d="M488.206 551.728C489.435 547.977 485.74 545.319 482.618 544.536C477.563 543.267 471.273 543.507 466.335 545.093C466.214 545.132 466.201 545.241 466.245 545.331C465.891 545.608 465.742 546.213 466.19 546.513C470.508 549.404 474.767 553.031 479.844 554.512C482.81 555.375 487.044 555.276 488.206 551.728ZM473.635 549.558C471.477 548.187 469.398 546.718 467.19 545.428C470.366 545.328 473.522 545.092 476.706 545.312C478.226 545.417 479.784 545.554 481.278 545.867C483.601 546.352 490.432 549.993 484.574 552.946C481.345 554.572 476.208 551.191 473.635 549.558Z" fill="#263238"/>
<path d="M458.795 532.034C459.966 537.191 463.328 541.661 465.954 546.146C466.226 546.611 466.839 546.499 467.138 546.163C467.224 546.21 467.334 546.205 467.38 546.086C469.262 541.254 469.882 534.989 468.922 529.867C468.328 526.704 465.899 522.855 462.08 523.855C458.466 524.801 458.112 529.023 458.795 532.034ZM460.645 527.409C463.945 521.741 467.167 528.778 467.512 531.126C467.734 532.635 467.776 534.2 467.788 535.723C467.816 538.916 467.389 542.051 467.097 545.216C465.943 542.934 464.602 540.77 463.366 538.534C461.89 535.866 458.824 530.533 460.645 527.409Z" fill="#263238"/>
<path d="M499.802 418.718C496.573 434.671 443.65 484.815 443.65 484.815L489.799 538.085C489.799 538.085 570.505 457.792 565.601 422.543C561.335 391.881 515.43 268.576 515.43 268.576H462.47C462.47 268.576 502.978 403.029 499.802 418.718Z" fill="#263238"/>
<path d="M499.802 418.718C496.573 434.671 443.65 484.815 443.65 484.815L489.799 538.085C489.799 538.085 570.505 457.792 565.601 422.543C561.335 391.881 515.43 268.576 515.43 268.576H462.47C462.47 268.576 502.978 403.029 499.802 418.718Z" fill="#37474F"/>
<path d="M495.049 525.42C488.917 517.786 490.784 519.892 484.568 512.327C481.526 508.624 461.51 484.32 458.067 481.366C457.992 481.301 457.863 481.408 457.914 481.495C460.221 485.402 480.656 509.355 483.769 512.995C490.131 520.439 488.384 518.232 494.83 525.603C494.951 525.741 495.165 525.564 495.049 525.42Z" fill="#263238"/>
<path d="M506.378 410.941C505.62 406.958 504.759 402.991 503.916 399.026C502.193 390.926 500.373 382.848 498.45 374.794C494.638 358.82 490.509 342.932 486.008 327.136C481.493 311.286 476.722 295.466 471.226 279.926C470.546 278.005 469.845 276.093 469.146 274.18C469.093 274.035 468.868 274.099 468.914 274.25C473.673 289.818 478.578 305.34 483.043 320.996C487.488 336.59 491.6 352.265 495.478 368.008C497.424 375.912 499.236 383.849 501.008 391.793C501.878 395.696 502.728 399.605 503.557 403.518C504.397 407.486 505.527 411.542 505.775 415.601C506.018 419.589 504.717 423.124 502.664 426.485C500.678 429.734 498.342 432.791 496.084 435.852C491.56 441.989 461.726 476.507 460.338 477.812C460.229 477.914 460.395 478.069 460.506 477.971C466.291 472.778 489.593 446.705 494.237 440.579C496.535 437.549 498.774 434.473 500.973 431.371C503.029 428.468 505.097 425.504 506.235 422.099C507.453 418.439 507.086 414.662 506.378 410.941Z" fill="#263238"/>
<path d="M506.267 268.571L496.654 394.754C487.477 351.565 462.475 268.571 462.475 268.571H506.267Z" fill="#263238"/>
<path d="M599.539 615.357C596.42 616.384 507.443 616.028 504.057 613.866C502.769 613.06 502.07 600.09 501.668 584.41C501.569 581.022 489.145 526.408 489.145 526.408L547.123 526.471L559.034 584.465C559.034 584.465 593.039 599.846 596.491 602.606C599.931 605.367 602.645 614.329 599.539 615.357Z" fill="#AD6359"/>
<path d="M599.533 615.362C596.423 616.386 507.445 616.031 504.061 613.862C502.764 613.056 502.069 600.096 501.674 584.408C501.633 583.221 500.078 575.744 498.086 566.522H555.358L559.042 584.462C559.042 584.462 593.04 599.851 596.491 602.607C599.928 605.363 602.644 614.325 599.533 615.362Z" fill="#EBEBEB"/>
<path d="M599.809 615.48C596.679 616.513 507.201 616.158 503.796 613.989C502.528 613.182 502.131 600.674 500.695 585.34C500.349 581.639 499.258 577.772 499.193 573.866L557.401 573.928L559.073 584.426C559.073 584.426 593.271 599.884 596.749 602.665C600.208 605.445 602.939 614.447 599.809 615.48Z" fill="#0A91B1"/>
<path d="M599.809 615.48C596.679 616.513 507.201 616.158 503.796 613.989C502.528 613.182 502.131 600.674 500.695 585.34C500.349 581.639 499.258 577.772 499.193 573.866L557.401 573.928L559.073 584.426C559.073 584.426 593.271 599.884 596.749 602.665C600.208 605.445 602.939 614.447 599.809 615.48Z" fill="#0A91B1"/>
<path d="M598.538 611.895C583.541 611.468 523.009 611.158 508.152 611.874C508.03 611.88 508.03 611.962 508.152 611.969C523.008 612.717 583.54 612.537 598.538 612.141C598.855 612.132 598.855 611.905 598.538 611.895Z" fill="#263238"/>
<path d="M561.201 581.101C555.303 579.975 548.08 580.853 543.554 585.04C543.379 585.202 543.612 585.449 543.803 585.389C549.634 583.577 555.076 582.42 561.175 581.845C561.605 581.806 561.623 581.182 561.201 581.101Z" fill="#263238"/>
<path d="M565.451 583.685C559.553 582.559 552.332 583.437 547.804 587.624C547.629 587.786 547.862 588.033 548.054 587.974C553.885 586.162 559.327 585.005 565.426 584.43C565.855 584.391 565.874 583.765 565.451 583.685Z" fill="#263238"/>
<path d="M569.701 586.27C563.803 585.145 556.58 586.023 552.054 590.21C551.879 590.371 552.112 590.619 552.303 590.559C558.134 588.747 563.576 587.589 569.675 587.014C570.105 586.975 570.123 586.351 569.701 586.27Z" fill="#263238"/>
<path d="M573.951 588.854C568.053 587.729 560.83 588.607 556.304 592.793C556.129 592.955 556.362 593.202 556.554 593.142C562.385 591.33 567.827 590.173 573.926 589.598C574.355 589.559 574.374 588.935 573.951 588.854Z" fill="#263238"/>
<path d="M572.154 567.494C569.848 564.29 565.523 565.71 563.051 567.77C559.047 571.108 555.535 576.33 553.907 581.254C553.867 581.375 553.948 581.449 554.045 581.468C554.061 581.917 554.461 582.393 554.968 582.209C559.849 580.423 565.289 579.12 569.475 575.889C571.921 574.005 574.336 570.524 572.154 567.494ZM561.814 577.99C559.435 578.927 557.024 579.741 554.681 580.764C556.472 578.138 558.14 575.449 560.193 573.006C561.173 571.841 562.202 570.661 563.334 569.639C565.096 568.048 572.062 564.675 570.996 571.147C570.409 574.715 564.651 576.873 561.814 577.99Z" fill="#263238"/>
<path d="M538.912 579.654C543.768 581.747 549.361 581.665 554.532 582.187C555.068 582.241 555.339 581.678 555.242 581.24C555.332 581.198 555.392 581.106 555.323 580.999C552.528 576.631 547.831 572.44 543.126 570.198C540.221 568.813 535.679 568.509 534.238 572.183C532.875 575.66 536.076 578.433 538.912 579.654ZM536.265 575.436C533.631 569.429 541.214 570.973 543.315 572.078C544.665 572.789 545.953 573.675 547.191 574.563C549.787 576.423 552.069 578.614 554.453 580.715C551.929 580.303 549.392 580.111 546.855 579.792C543.831 579.413 537.717 578.747 536.265 575.436Z" fill="#263238"/>
<path d="M514.848 268.575C514.786 269.686 511.828 279.828 510.298 295.001C509.194 306.084 507.809 315.89 506.332 317.11C504.658 318.486 496.289 323.864 493.471 325.582C493.471 325.582 519.569 404.687 526.302 431.054C536.063 469.282 556.077 562.327 556.077 562.327L493.778 562.317C493.778 562.317 478.201 474.777 469.92 438.383C462.82 407.183 435.623 313.582 435.623 313.582C425.73 289.251 437.825 268.574 437.825 268.574C437.825 268.574 514.855 268.533 514.848 268.575Z" fill="#37474F"/>
<path d="M549.911 550.266C540.787 550.203 543.406 550.083 534.28 550.13C529.814 550.154 500.472 550.334 496.312 551.14C496.22 551.158 496.223 551.324 496.315 551.339C500.498 552.016 529.833 551.286 534.296 551.17C543.418 550.934 540.797 550.897 549.915 550.55C550.086 550.545 550.082 550.267 549.911 550.266Z" fill="#263238"/>
<path d="M510.745 313.986C504.672 317.188 498.968 321.285 493.559 325.49C493.346 325.655 493.556 325.991 493.79 325.845C499.614 322.196 505.581 318.643 511.197 314.678C511.638 314.367 511.211 313.74 510.745 313.986Z" fill="#263238"/>
<path d="M505.988 270.948C505.937 270.735 505.551 270.746 505.588 270.979C506.789 278.381 507.329 284.973 507.779 291.993C507.988 295.253 508.16 313.419 502.385 312.989C501.417 312.918 500.799 312.072 500.434 310.688C499.996 309.024 500.31 306.851 500.328 305.125C500.37 301.31 500.288 297.502 500.023 293.696C499.53 286.592 498.47 279.574 496.533 272.716C496.47 272.491 496.14 272.559 496.177 272.791C497.691 282.498 498.942 292.226 498.984 302.067C499.003 306.795 497.757 314.114 502.699 314.074C507.734 314.033 509.109 301.887 509.215 298.606C509.513 289.452 508.089 279.838 505.988 270.948Z" fill="#263238"/>
<path d="M502.608 313.444C502.29 314.716 502.077 316.02 501.925 317.321C501.808 318.332 501.607 319.436 501.875 320.428C501.927 320.621 502.189 320.599 502.274 320.451C502.799 319.52 502.9 318.344 503.112 317.304C503.359 316.099 503.633 314.899 503.845 313.688C503.984 312.886 502.803 312.661 502.608 313.444Z" fill="#263238"/>
<path d="M488.2 528.617C488.013 526.863 487.794 525.113 487.565 523.365C487.124 520.007 482.034 492.764 479.351 479.493C477.835 471.989 476.07 464.575 474.209 457.164C474.08 456.649 473.404 456.897 473.488 457.4C474.618 464.184 475.706 470.972 476.994 477.724C478.277 484.457 485.502 519.171 486.181 522.933C486.522 524.811 486.874 526.687 487.248 528.558C487.621 530.422 488.161 532.256 488.444 534.136C488.471 534.314 488.719 534.231 488.693 534.055C488.422 532.261 488.393 530.424 488.2 528.617Z" fill="#263238"/>
<path d="M532.859 454.747C530.784 444.41 527.987 434.206 525.175 424.051C519.514 403.608 512.85 383.462 506.201 363.323C504.285 357.52 502.373 351.717 500.453 345.915C499.494 343.016 494.798 327.372 494.215 325.887C494.156 325.736 493.931 325.8 493.972 325.961C495.317 331.289 497.166 339.059 498.719 344.335C500.256 349.549 501.934 354.724 503.554 359.913C506.735 370.112 509.973 380.294 513.062 390.523C519.169 410.737 525.234 430.945 530.191 451.481C531.578 457.231 532.962 462.977 534.23 468.755C535.496 474.524 536.578 480.33 537.788 486.111C537.821 486.269 538.085 486.227 538.07 486.066C537.027 475.531 534.94 465.115 532.859 454.747Z" fill="#263238"/>
<path d="M494.13 508.821C490.701 489.101 486.593 469.487 482.043 449.998C477.469 430.412 472.377 410.948 466.766 391.633C461.157 372.319 454.938 353.177 448.261 334.207C445.096 325.215 441.877 316.208 439.8 306.888C437.746 297.676 436.703 287.712 438.847 278.42C439.393 276.058 440.08 273.752 440.978 271.498C441.039 271.343 440.813 271.212 440.746 271.37C433.254 288.827 438.116 307.923 443.82 325.135C446.946 334.565 450.281 343.923 453.362 353.368C456.525 363.062 459.556 372.801 462.457 382.577C468.205 401.95 473.544 421.44 478.325 441.076C483.105 460.708 487.364 480.467 491.112 500.322C494.873 520.249 494.667 518.616 497.873 538.636C498.291 541.24 498.62 543.858 498.962 546.473C498.98 546.618 499.211 546.615 499.192 546.467C496.793 526.631 497.555 528.512 494.13 508.821Z" fill="#263238"/>
<path d="M553.698 121.562L547.859 159.943C547.564 161.08 548.202 161.921 549.283 161.817L568.619 159.959C569.698 159.856 570.815 158.847 571.109 157.709L576.949 119.329C577.243 118.188 576.605 117.351 575.526 117.454L556.19 119.312C555.11 119.415 553.994 120.422 553.698 121.562Z" fill="#455A64"/>
<path d="M555.993 121.322L550.154 159.702C549.859 160.84 550.497 161.681 551.578 161.577L570.914 159.719C571.993 159.616 573.11 158.607 573.404 157.467L579.244 119.087C579.54 117.947 578.9 117.108 577.821 117.212L558.485 119.071C557.405 119.175 556.288 120.182 555.993 121.322Z" fill="#37474F"/>
<path d="M561.458 122.524C561.525 123.433 560.843 124.225 559.934 124.292C559.025 124.359 558.234 123.676 558.167 122.767C558.1 121.858 558.782 121.067 559.691 121C560.6 120.933 561.391 121.616 561.458 122.524Z" fill="#263238"/>
<path d="M499.524 183.506C512.51 205.873 543.312 236.002 553.496 235.249C558.342 234.89 567.086 235.293 572.952 229.177C585.753 215.832 595.315 191.611 596.519 178.116C596.948 173.316 573.062 165.083 570.002 169.228C562.838 178.933 555.136 197.424 553.721 197.439C548.48 197.498 524.321 182.344 508.881 173.04C489.506 161.367 494.349 174.592 499.524 183.506Z" fill="#F2D1CC"/>
<path d="M594.959 153.644C591.69 144.261 589.409 142.354 590.855 132.969C591.803 126.811 588.278 123.563 584.426 128.773C578.126 137.295 579.801 150.287 581.68 154.624L594.959 153.644Z" fill="#F2D1CC"/>
<path d="M595.756 182.332C595.756 182.332 598.873 168.587 596.379 158.242C594.653 151.089 589.164 135.946 568.157 129.532C563.175 128.011 554.997 129.377 562.232 134.818C567.373 138.682 571.798 139.579 574.379 142.371C574.379 142.371 564.183 145.343 562.854 150.394C562.26 152.651 560.783 158.851 560.321 163.84C560.321 163.84 561.381 164.233 562.795 164.54C562.795 164.54 561.999 169.376 566.011 175.653L595.756 182.332Z" fill="#F2D1CC"/>
<path d="M593.64 151.678C590.494 149.449 583.744 144.835 576.912 142.981C569.322 140.922 554.146 139.001 552.683 144.619C551.611 148.738 557.34 149.982 557.34 149.982C557.34 149.982 550.9 150.51 550.745 154.444C550.604 158.029 555.094 158.724 555.094 158.724C555.094 158.724 551.242 159.717 551.771 163.194C552.408 167.378 560.375 164.612 564.682 168.294C565.651 169.121 593.64 151.678 593.64 151.678Z" fill="#F2D1CC"/>
<path d="M576.074 151.364C572.771 149.752 564.329 148.017 557.454 149.865C557.298 149.907 557.246 150.046 557.397 150.038C565.399 149.612 572.899 150.758 576.054 151.435C576.096 151.445 576.112 151.382 576.074 151.364Z" fill="#263238"/>
<path d="M573.771 158.965C570.778 157.868 561.997 156.468 555.095 158.579C554.94 158.626 554.899 158.77 555.048 158.756C563.389 157.966 570.566 158.549 573.756 159.038C573.799 159.045 573.81 158.979 573.771 158.965Z" fill="#263238"/>
<path d="M534.533 186.162L520.233 217.123C520.233 217.123 497.37 187.391 493.114 176.75C488.324 164.774 495.495 164.945 506.804 169.678C518.113 174.412 534.533 186.162 534.533 186.162Z" fill="#0A91B1"/>
<path opacity="0.1" d="M534.533 186.162L520.233 217.123C520.233 217.123 497.37 187.391 493.114 176.75C488.324 164.774 495.495 164.945 506.804 169.678C518.113 174.412 534.533 186.162 534.533 186.162Z" fill="black"/>
<path d="M528.431 184.666C526.076 188.361 520.576 200.441 519.648 202.429C519.158 203.477 517.388 207.743 516.891 208.783C516.826 208.916 517.046 208.99 517.108 208.857C518.056 206.871 519.214 204.978 520.18 202.993C521.168 200.963 527.185 188.924 528.586 184.741C528.614 184.65 528.484 184.582 528.431 184.666Z" fill="#263238"/>
<path d="M431.688 283.318C431.688 283.311 524.335 286.482 524.335 286.489C524.269 288.305 521.64 213.746 499.085 169.167C497.548 166.128 483.097 162.425 476.475 168.123C447.458 193.095 431.646 284.496 431.688 283.318Z" fill="#0A91B1"/>
<path opacity="0.1" d="M474.881 169.578L499.792 170.644C499.874 170.773 499.944 170.916 499.998 171.048L474.482 169.962C474.606 169.826 474.745 169.702 474.881 169.578ZM467.982 177.732L503.638 179.228C503.596 179.096 503.541 178.964 503.473 178.833L468.256 177.331C468.16 177.466 468.063 177.599 467.982 177.732ZM463.008 185.546L506.738 187.395C506.696 187.262 506.656 187.13 506.601 186.997L463.229 185.151C463.145 185.285 463.077 185.417 463.008 185.546ZM458.861 193.4L509.425 195.552C509.382 195.405 509.342 195.272 509.3 195.14L459.04 193.011C458.984 193.141 458.915 193.271 458.861 193.4ZM455.251 201.279L511.766 203.675C511.739 203.541 511.698 203.408 511.656 203.274L455.417 200.891C455.361 201.021 455.307 201.15 455.251 201.279ZM452.029 209.186L513.834 211.798C513.806 211.664 513.766 211.532 513.738 211.396L452.18 208.786C452.124 208.916 452.071 209.059 452.029 209.186ZM449.108 217.091L515.654 219.909C515.626 219.775 515.598 219.641 515.571 219.506L449.245 216.693C449.203 216.82 449.161 216.947 449.108 217.091ZM446.421 225.01L517.279 228.01C517.251 227.876 517.223 227.742 517.195 227.608L446.558 224.612C446.519 224.753 446.477 224.88 446.421 225.01ZM443.968 232.934L518.712 236.104C518.698 235.969 518.67 235.835 518.642 235.699L444.077 232.537C444.038 232.68 443.998 232.807 443.968 232.934ZM441.654 240.856L519.993 244.173C519.965 244.039 519.953 243.916 519.925 243.782L441.765 240.474C441.736 240.601 441.696 240.728 441.654 240.856ZM439.519 248.801L521.096 252.26C521.096 252.123 521.069 252.002 521.055 251.866L439.617 248.42C439.588 248.547 439.547 248.675 439.519 248.801ZM437.508 256.747L522.075 260.334C522.076 260.21 522.062 260.075 522.034 259.941L437.605 256.367C437.577 256.493 437.548 256.618 437.508 256.747ZM435.634 264.705L522.927 268.392L522.888 268.012L435.718 264.313C435.689 264.439 435.662 264.58 435.634 264.705ZM433.871 272.667L523.631 276.468C523.617 276.333 523.603 276.197 523.602 276.059L433.952 272.26C433.926 272.4 433.899 272.54 433.871 272.667ZM432.246 280.627L524.196 284.515C524.184 284.392 524.184 284.255 524.169 284.119L432.315 280.236C432.287 280.363 432.26 280.502 432.246 280.627Z" fill="black"/>
<path d="M497.001 180.206C492.624 181.398 483.256 176.508 479.897 170.308C479.67 169.881 480.34 165.415 480.897 159.95C481.222 156.631 481.505 152.929 481.522 149.533C481.522 148.835 502.804 154.804 502.804 154.804C502.804 154.804 500.678 161.915 500.688 167.838C500.693 168.333 500.741 168.795 500.827 169.233C500.834 169.297 500.853 169.374 500.857 169.463C501.278 172.114 501.685 178.931 497.001 180.206Z" fill="#F2D1CC"/>
<path d="M500.836 169.232C500.837 169.3 500.854 169.381 500.857 169.463C500.191 169.551 499.468 169.586 498.676 169.568C486.137 169.234 482.899 153.524 482.277 149.542C486.061 150.102 502.807 154.804 502.807 154.804C502.807 154.804 500.679 161.922 500.686 167.845C500.7 168.335 500.742 168.798 500.836 169.232Z" fill="#263238"/>
<path d="M477.687 123.069C475.589 130.684 480.171 152.39 485.675 157.109C493.655 163.948 506.421 164.274 512.157 154.751C517.718 145.519 511.244 117.335 505.124 113.079C496.109 106.808 480.786 111.82 477.687 123.069Z" fill="#F2D1CC"/>
<path d="M499.324 135.547C499.3 135.494 499.224 135.641 499.239 135.699C499.587 137.153 499.74 138.877 498.516 139.636C498.478 139.66 498.498 139.732 498.545 139.716C500.113 139.155 499.887 136.868 499.324 135.547Z" fill="#263238"/>
<path d="M497.702 134.288C495.312 134.594 496.099 139.354 498.315 139.069C500.494 138.79 499.705 134.031 497.702 134.288Z" fill="#263238"/>
<path d="M507.899 134.375C507.901 134.316 508.027 134.425 508.035 134.486C508.232 135.969 508.708 137.632 510.122 137.901C510.167 137.909 510.175 137.983 510.123 137.985C508.458 138.025 507.848 135.81 507.899 134.375Z" fill="#263238"/>
<path d="M508.962 132.617C511.303 132.045 512.276 136.769 510.108 137.299C507.972 137.821 506.999 133.096 508.962 132.617Z" fill="#263238"/>
<path d="M495.464 132.423C496.085 132.152 496.613 131.799 497.199 131.468C497.861 131.094 498.426 130.865 498.784 130.157C498.975 129.778 498.771 129.187 498.421 128.967C497.603 128.453 496.677 128.708 495.862 129.126C494.977 129.578 494.412 130.153 494.012 131.062C493.626 131.941 494.645 132.779 495.464 132.423Z" fill="#263238"/>
<path d="M510.403 129.916C509.726 129.917 509.1 129.806 508.43 129.739C507.674 129.662 507.064 129.679 506.453 129.173C506.125 128.902 506.075 128.28 506.308 127.936C506.851 127.138 507.801 127.001 508.715 127.055C509.706 127.114 510.456 127.414 511.186 128.086C511.892 128.736 511.296 129.913 510.403 129.916Z" fill="#263238"/>
<path d="M500.228 149.456C500.638 149.742 501.07 150.159 501.611 150.116C502.132 150.074 502.695 149.743 503.134 149.482C503.178 149.457 503.234 149.498 503.211 149.548C502.922 150.177 502.175 150.665 501.473 150.658C500.786 150.652 500.361 150.13 500.098 149.546C500.059 149.464 500.168 149.414 500.228 149.456Z" fill="#263238"/>
<path d="M501.046 144.785C502.083 145.928 503.412 146.426 504.766 146.463C505.371 146.484 505.99 146.401 506.585 146.246C506.704 146.224 506.82 146.192 506.923 146.15C507.029 146.119 507.124 146.09 507.237 146.047C507.405 145.994 507.476 145.836 507.479 145.668L507.477 145.657C507.467 145.603 507.459 145.56 507.438 145.509C507.438 145.509 507.438 145.509 507.437 145.498L507.413 145.37C507.257 144.229 506.86 142.522 506.86 142.522C507.31 142.661 509.581 143.262 509.45 142.674C508.344 137.813 507.114 132.408 504.987 127.805C504.924 127.65 504.682 127.728 504.723 127.888C505.601 132.6 507.303 137.128 508.26 141.849C507.543 141.704 506.363 141.412 505.771 141.522C505.618 141.596 506.596 144.81 506.626 145.328C506.626 145.328 506.63 145.349 506.626 145.384C504.759 145.943 503.226 145.606 501.163 144.631C501.037 144.564 500.938 144.683 501.046 144.785Z" fill="#263238"/>
<path d="M505.821 145.783C505.821 145.783 505.04 147.307 503.743 148.026C503.265 148.293 502.731 148.455 502.132 148.398C500.903 148.283 500.695 147.208 500.758 146.248C500.807 145.459 501.051 144.746 501.051 144.746C501.051 144.746 503.038 146.069 505.821 145.783Z" fill="#263238"/>
<path d="M503.743 148.026C503.265 148.293 502.731 148.455 502.132 148.398C500.903 148.283 500.695 147.208 500.758 146.248C502.042 146.167 503.433 146.817 503.743 148.026Z" fill="#FF99BA"/>
<path d="M509.462 119.785C508.347 118.047 507.105 116.315 505.919 116.129C504.732 115.943 504.442 118.809 501.908 119.403C498.488 120.204 496.291 117.302 491.398 117.758C484.37 118.416 482.264 124.721 483.714 134.608C485.01 143.438 479.826 145.139 479.826 145.139C479.826 145.139 473.416 126.251 477.836 118.924C482.255 111.596 494.343 106.696 503.783 111.447C507.221 113.179 509.462 119.785 509.462 119.785Z" fill="#263238"/>
<path d="M483.697 140.944C483.697 140.944 478.434 134.129 475.318 136.037C472.202 137.947 476.393 147.99 480.215 149.21C484.036 150.43 485.235 146.915 485.235 146.915L483.697 140.944Z" fill="#F2D1CC"/>
<path d="M476.59 138.887C476.53 138.884 476.521 138.969 476.574 138.988C479.257 139.931 480.759 142.307 481.85 144.792C481.02 143.854 479.929 143.37 478.668 144.364C478.603 144.416 478.672 144.521 478.746 144.503C479.814 144.221 480.602 144.37 481.371 145.199C481.917 145.787 482.305 146.544 482.708 147.232C482.842 147.461 483.262 147.316 483.159 147.049C483.152 147.029 483.142 147.008 483.135 146.989C483.043 143.627 480.211 139.053 476.59 138.887Z" fill="#263238"/>
<path d="M463.319 179.982C449.867 197.791 421.361 232.745 424.029 249.069C426.999 267.236 438.723 295.849 446.309 304.116C448.128 306.098 458.398 305.209 466.284 301.262C472.727 298.039 477.218 292.081 477.191 289.731C477.13 284.505 459.909 251.947 458.683 248.237C457.457 244.525 473.631 207.106 479.251 189.014C486.342 166.191 474.706 164.908 463.319 179.982Z" fill="#F2D1CC"/>
<path d="M471.94 213.983L438.367 207.991C438.367 207.991 461.337 178.343 470.553 171.529C480.926 163.861 482.577 170.842 480.863 182.982C479.147 195.122 471.94 213.983 471.94 213.983Z" fill="#0A91B1"/>
<path opacity="0.1" d="M471.94 213.983L438.367 207.991C438.367 207.991 461.337 178.343 470.553 171.529C480.926 163.861 482.577 170.842 480.863 182.982C479.147 195.122 471.94 213.983 471.94 213.983Z" fill="black"/>
<path d="M471.842 207.7C467.671 206.357 454.592 204.097 452.434 203.701C451.296 203.493 446.721 202.861 445.588 202.645C445.443 202.617 445.427 202.847 445.571 202.874C447.733 203.288 449.858 203.928 452.022 204.359C454.236 204.802 467.406 207.571 471.807 207.867C471.904 207.874 471.936 207.73 471.842 207.7Z" fill="#263238"/>
<path d="M477.2 200.322C477.951 198.686 478.698 197.048 479.393 195.385C479.407 195.351 479.357 195.331 479.34 195.363C478.741 196.546 478.17 197.739 477.609 198.938C478.339 196.398 479.022 193.846 479.584 191.276C479.593 191.238 479.531 191.223 479.519 191.259C478.099 194.997 476.887 198.814 475.557 202.587C474.252 206.29 473.011 210.007 471.772 213.732C470.987 213.714 470.205 213.68 469.42 213.634C469.271 213.626 469.251 213.829 469.394 213.863C470.233 214.053 471.069 214.245 471.9 214.473C472.095 214.527 472.311 214.473 472.394 214.264C474.168 209.704 475.792 205.04 477.2 200.322Z" fill="#263238"/>
<path d="M444.732 304.567C448.185 304.854 451.541 304.537 454.817 303.962C458.088 303.349 461.276 302.404 464.352 301.155C470.461 298.932 475.14 293.915 478.01 287.63C477.693 291.108 476.232 294.493 474.04 297.345C471.865 300.217 468.751 302.47 465.388 303.747C462.096 305.029 458.618 305.926 455.077 306.123C451.563 306.324 447.933 305.995 444.732 304.567Z" fill="#263238"/>
</svg>
