<svg width="170" height="67" viewBox="0 0 170 67" fill="none" xmlns="http://www.w3.org/2000/svg">
<path d="M30.9462 24.8204C30.9462 24.8204 15.6358 22.3618 10.6307 34.7243C8.63573 39.6519 9.01852 45.452 11.792 49.9873C13.6206 52.9776 16.6491 55.996 21.628 57.1869C32.8526 59.8717 39.7107 52.3479 42.9546 43.8556C46.1985 35.3634 50.4858 27.7963 52.1747 26.312L46.7318 26.1448C46.7318 26.1448 40.11 37.6056 38.5982 42.0427C37.0865 46.4798 31.6104 57.2792 19.3858 51.0983C19.3858 51.0983 10.8344 46.8701 14.9444 36.3503C14.9444 36.3503 17.2632 28.9014 29.1333 29.1767L30.9462 24.8204Z" fill="#0B3546"/>
<path d="M47.1173 42.393C47.1173 42.393 62.4277 44.8516 67.4328 32.4891C69.4277 27.5615 69.045 21.7614 66.2715 17.2261C64.4428 14.2358 61.4144 11.2174 56.4354 10.0265C45.2109 7.34171 38.3528 14.8655 35.1089 23.3578C31.865 31.85 27.5777 39.4171 25.8888 40.9014L31.3317 41.0686C31.3317 41.0686 37.9535 29.6077 39.4652 25.1707C40.977 20.7336 46.4531 9.93421 58.6777 16.1151C58.6777 16.1151 67.229 20.3432 63.119 30.8631C63.119 30.8631 60.8003 38.312 48.9301 38.0367L47.1173 42.393Z" fill="#0A91B1"/>
<path d="M53.5443 36.5876C53.5443 36.5876 61.0364 36.3355 62.6937 27.7409C64.351 19.1463 56.1816 14.6977 51.8627 15.1545C47.5438 15.6113 45.8548 17.0956 43.6226 19.4027C43.6226 19.4027 53.9033 12.5155 59.7684 21.7921C59.7684 21.7921 65.3395 32.3235 53.5443 36.5876Z" fill="#35899D"/>
<path d="M34.3578 47.6656C34.3578 47.6656 30.3933 54.0279 22.1216 51.1659C13.8498 48.3038 14.0819 39.0046 16.6369 35.4927C19.192 31.9808 21.3219 31.2603 24.4361 30.4807C24.4361 30.4807 13.3312 35.9405 18.4325 45.658C18.4325 45.658 24.7674 55.7485 34.3578 47.6656Z" fill="#1A5C77"/>
<circle cx="57.7136" cy="7.83068" r="5.73254" transform="rotate(-30 57.7136 7.83068)" fill="#0A91B1"/>
<circle cx="21.0769" cy="59.025" r="5.73254" transform="rotate(-30 21.0769 59.025)" fill="#0B3546"/>
<path d="M82.2612 36.751C82.2612 38.3465 82.6109 39.658 83.3104 40.6852C84.0098 41.6907 85.1573 42.1934 86.7529 42.1934C87.4086 42.1934 88.0862 42.106 88.7856 41.9311C89.5069 41.7562 90.3921 41.4612 91.4412 41.0459L92.6543 44.4556C91.474 44.9802 90.3812 45.3517 89.3757 45.5703C88.3922 45.7889 87.4414 45.8982 86.5234 45.8982C84.6874 45.8982 83.1464 45.5047 81.9006 44.7179C80.6766 43.931 79.7586 42.8491 79.1466 41.4721C78.5346 40.0951 78.2286 38.5214 78.2286 36.751V32.0626C78.2286 30.2922 78.5346 28.7185 79.1466 27.3415C79.7586 25.9645 80.6766 24.8935 81.9006 24.1285C83.1464 23.3416 84.6874 22.9482 86.5234 22.9482C87.4195 22.9482 88.3484 23.0575 89.3102 23.276C90.2719 23.4727 91.321 23.8225 92.4576 24.3252L91.2445 27.8005C90.2391 27.3852 89.3976 27.0901 88.72 26.9152C88.0424 26.7404 87.3867 26.653 86.7529 26.653C85.1573 26.653 84.0098 27.1557 83.3104 28.1611C82.6109 29.1665 82.2612 30.467 82.2612 32.0626V36.751ZM105.528 45.5703V43.3737C104.522 44.248 103.582 44.8927 102.708 45.308C101.834 45.7015 100.948 45.8982 100.052 45.8982C98.5661 45.8982 97.4186 45.3955 96.6098 44.39C95.8011 43.3627 95.3968 41.9311 95.3968 40.0951V28.948H99.1671V39.6361C99.1671 41.4721 99.8447 42.3901 101.2 42.3901C101.746 42.3901 102.336 42.259 102.97 41.9967C103.626 41.7344 104.413 41.2317 105.331 40.4885V28.948H109.101V45.5703H105.528ZM124.292 45.013C123.724 45.2752 123.068 45.4829 122.325 45.6359C121.582 45.8107 120.828 45.8982 120.063 45.8982C118.795 45.8982 117.779 45.6359 117.014 45.1113C116.249 44.5867 115.691 43.8545 115.342 42.9147C115.014 41.9748 114.85 40.9038 114.85 39.7017V32.2265H112.161V28.948H114.85V24.6202H118.62V28.948H123.8V32.2265H118.62V39.7017C118.62 40.7071 118.806 41.4065 119.177 41.8C119.571 42.1715 120.128 42.3573 120.85 42.3573C121.199 42.3573 121.571 42.3245 121.964 42.259C122.38 42.1715 122.839 42.0295 123.341 41.8327L124.292 45.013ZM132.11 23.276L138.339 38.5214L144.536 23.276H148.831V45.5703H145.06V37.046L145.552 29.243L140.011 42.9475H136.503L131.094 29.2102L131.586 37.046V45.5703H127.815V23.276H132.11ZM167.129 44.6195C165.992 45.0785 164.921 45.4064 163.916 45.6031C162.91 45.7998 161.959 45.8982 161.063 45.8982C158.593 45.8982 156.725 45.1987 155.457 43.7999C154.189 42.401 153.555 40.5432 153.555 38.2263V36.2592C153.555 34.7073 153.839 33.3631 154.408 32.2265C154.976 31.09 155.785 30.2047 156.834 29.5709C157.883 28.937 159.118 28.6201 160.539 28.6201C161.697 28.6201 162.779 28.8605 163.784 29.3414C164.812 29.8004 165.642 30.5326 166.276 31.538C166.932 32.5216 167.26 33.7893 167.26 35.3412C167.26 35.8002 167.227 36.292 167.161 36.8165C167.096 37.3192 166.987 37.8547 166.834 38.423H157.195C157.238 39.7782 157.577 40.7945 158.211 41.4721C158.845 42.1497 159.861 42.4885 161.26 42.4885C162.003 42.4885 162.768 42.401 163.555 42.2262C164.364 42.0513 165.194 41.789 166.047 41.4393L167.129 44.6195ZM160.539 31.8003C159.533 31.8003 158.746 32.1282 158.178 32.7839C157.632 33.4177 157.315 34.3357 157.227 35.5379H163.522C163.544 35.4286 163.555 35.3302 163.555 35.2428C163.555 35.1335 163.555 35.0352 163.555 34.9477C163.555 33.8986 163.26 33.1117 162.67 32.5872C162.08 32.0626 161.369 31.8003 160.539 31.8003Z" fill="#0A91B1"/>
</svg>
