<svg width="167" height="51" viewBox="0 0 167 51" fill="none" xmlns="http://www.w3.org/2000/svg">
<path d="M31.3815 14.1788C31.3815 14.1788 19.3515 4.39437 8.83576 12.5981C4.64424 15.868 2.07572 21.0824 2.20997 26.3968C2.29848 29.9008 3.41197 34.029 7.12843 37.5499C15.5068 45.4872 25.208 42.4005 32.2634 36.6679C39.3188 30.9354 46.8152 26.5258 49.0201 26.0848L44.3899 23.2185C44.3899 23.2185 32.9249 29.833 29.3971 32.9198C25.8694 36.0065 15.7272 42.621 8.23084 31.1559C8.23084 31.1559 2.93926 23.2185 11.7586 16.1631C11.7586 16.1631 17.4911 10.8715 27.6333 17.045L31.3815 14.1788Z" fill="#0A91B1"/>
<path d="M36.6 37.4829C36.6 37.4829 48.6299 47.2672 59.1457 39.0636C63.3372 35.7936 65.9057 30.5792 65.7715 25.2648C65.683 21.7608 64.5695 17.6326 60.853 14.1117C52.4747 6.17438 42.7735 9.26113 35.718 14.9937C28.6626 20.7262 21.1662 25.1359 18.9614 25.5768L23.5915 28.4431C23.5915 28.4431 35.0566 21.8286 38.5843 18.7419C42.112 15.6551 52.2542 9.04065 59.7506 20.5057C59.7506 20.5057 65.0422 28.4431 56.2229 35.4985C56.2229 35.4985 50.4904 40.7901 40.3482 34.6166L36.6 37.4829Z" fill="#34728D"/>
<path d="M45.0682 35.6682C45.0682 35.6682 51.6827 39.1959 57.4152 32.5814C63.1477 25.9669 58.2971 18.0296 54.3284 16.2657C50.3598 14.5019 48.1549 14.9428 45.0682 15.8248C45.0682 15.8248 57.4152 15.0006 57.8562 25.9669C57.8562 25.9669 57.4152 37.873 45.0682 35.6682Z" fill="#5E93AA"/>
<path d="M22.9133 35.6691C22.9133 35.6691 16.2988 39.1969 10.5662 32.5824C4.8337 25.9679 9.68432 18.0306 13.653 16.2667C17.6217 14.5028 19.8265 14.9438 22.9133 15.8257C22.9133 15.8257 10.5662 15.0016 10.1253 25.9679C10.1253 25.9679 10.5662 37.874 22.9133 35.6691Z" fill="#5FCCE6"/>
<circle cx="63.0577" cy="12.8488" r="5.73254" fill="#34728D"/>
<circle cx="5.73254" cy="38.8661" r="5.73254" fill="#0A91B1"/>
<path d="M77.2612 29.1806C77.2612 30.7762 77.6109 32.0876 78.3104 33.1149C79.0098 34.1204 80.1573 34.6231 81.7529 34.6231C82.4086 34.6231 83.0862 34.5356 83.7856 34.3608C84.5069 34.1859 85.3921 33.8909 86.4412 33.4756L87.6543 36.8853C86.474 37.4099 85.3812 37.7814 84.3757 38C83.3922 38.2186 82.4414 38.3279 81.5234 38.3279C79.6874 38.3279 78.1464 37.9344 76.9006 37.1476C75.6766 36.3607 74.7586 35.2788 74.1466 33.9018C73.5346 32.5248 73.2286 30.9511 73.2286 29.1806V24.4923C73.2286 22.7219 73.5346 21.1481 74.1466 19.7711C74.7586 18.3941 75.6766 17.3231 76.9006 16.5581C78.1464 15.7713 79.6874 15.3779 81.5234 15.3779C82.4195 15.3779 83.3484 15.4871 84.3102 15.7057C85.2719 15.9024 86.321 16.2521 87.4576 16.7549L86.2445 20.2301C85.2391 19.8149 84.3976 19.5198 83.72 19.3449C83.0424 19.1701 82.3867 19.0826 81.7529 19.0826C80.1573 19.0826 79.0098 19.5854 78.3104 20.5908C77.6109 21.5962 77.2612 22.8967 77.2612 24.4923V29.1806ZM100.528 38V35.8034C99.5221 36.6776 98.5823 37.3224 97.708 37.7377C96.8337 38.1311 95.9485 38.3279 95.0523 38.3279C93.5661 38.3279 92.4186 37.8251 91.6098 36.8197C90.8011 35.7924 90.3968 34.3608 90.3968 32.5248V21.3776H94.1671V32.0658C94.1671 33.9018 94.8447 34.8198 96.1998 34.8198C96.7463 34.8198 97.3364 34.6886 97.9703 34.4264C98.626 34.1641 99.4128 33.6614 100.331 32.9182V21.3776H104.101V38H100.528ZM119.292 37.4426C118.724 37.7049 118.068 37.9126 117.325 38.0656C116.582 38.2404 115.828 38.3279 115.063 38.3279C113.795 38.3279 112.779 38.0656 112.014 37.541C111.249 37.0164 110.691 36.2842 110.342 35.3444C110.014 34.4045 109.85 33.3335 109.85 32.1314V24.6562H107.161V21.3776H109.85V17.0499H113.62V21.3776H118.8V24.6562H113.62V32.1314C113.62 33.1368 113.806 33.8362 114.177 34.2296C114.571 34.6012 115.128 34.787 115.85 34.787C116.199 34.787 116.571 34.7542 116.964 34.6886C117.38 34.6012 117.839 34.4591 118.341 34.2624L119.292 37.4426ZM126.094 26.4922V38H122.323V21.3776H125.897V23.5743C126.924 22.6781 127.875 22.0334 128.749 21.6399C129.624 21.2465 130.52 21.0498 131.438 21.0498C133.471 21.0498 134.858 21.9459 135.602 23.7382C136.694 22.7765 137.711 22.088 138.651 21.6727C139.591 21.2574 140.541 21.0498 141.503 21.0498C143.033 21.0498 144.202 21.5634 145.011 22.5907C145.82 23.5961 146.224 25.0169 146.224 26.8529V38H142.454V27.3119C142.454 25.4759 141.754 24.5579 140.356 24.5579C139.809 24.5579 139.208 24.689 138.552 24.9513C137.897 25.2136 137.099 25.7272 136.159 26.4922V38H132.389V27.3119C132.389 25.4759 131.689 24.5579 130.29 24.5579C129.744 24.5579 129.143 24.689 128.487 24.9513C127.831 25.2136 127.034 25.7272 126.094 26.4922ZM163.826 37.0492C162.689 37.5082 161.618 37.8361 160.613 38.0328C159.607 38.2295 158.656 38.3279 157.76 38.3279C155.29 38.3279 153.422 37.6284 152.154 36.2296C150.886 34.8307 150.252 32.9729 150.252 30.656V28.6889C150.252 27.137 150.536 25.7928 151.105 24.6562C151.673 23.5196 152.482 22.6344 153.531 22.0006C154.58 21.3667 155.815 21.0498 157.236 21.0498C158.394 21.0498 159.476 21.2902 160.481 21.7711C161.509 22.2301 162.339 22.9623 162.973 23.9677C163.629 24.9513 163.957 26.219 163.957 27.7709C163.957 28.2299 163.924 28.7216 163.858 29.2462C163.793 29.7489 163.683 30.2844 163.53 30.8527H153.891C153.935 32.2079 154.274 33.2242 154.908 33.9018C155.542 34.5794 156.558 34.9181 157.957 34.9181C158.7 34.9181 159.465 34.8307 160.252 34.6559C161.061 34.481 161.891 34.2187 162.744 33.869L163.826 37.0492ZM157.236 24.23C156.23 24.23 155.443 24.5579 154.875 25.2136C154.329 25.8474 154.012 26.7654 153.924 27.9676H160.219C160.241 27.8583 160.252 27.7599 160.252 27.6725C160.252 27.5632 160.252 27.4649 160.252 27.3774C160.252 26.3283 159.957 25.5414 159.367 25.0169C158.777 24.4923 158.066 24.23 157.236 24.23Z" fill="#093344"/>
</svg>
