<svg width="432" height="422" viewBox="0 0 432 422" fill="none" xmlns="http://www.w3.org/2000/svg">
<path d="M222.184 404.906C337.816 404.906 431.556 314.265 431.556 202.453C431.556 90.6413 337.816 0 222.184 0C106.551 0 12.8115 90.6413 12.8115 202.453C12.8115 314.265 106.551 404.906 222.184 404.906Z" fill="white"/>
<path d="M224.503 421.891C338.855 421.891 431.556 415.182 431.556 406.907C431.556 398.632 338.855 391.923 224.503 391.923C110.151 391.923 17.4502 398.632 17.4502 406.907C17.4502 415.182 110.151 421.891 224.503 421.891Z" fill="#C1E8F1"/>
<path d="M327.439 113.165C331.482 104.701 338.763 98.122 346.847 93.364C354.931 88.606 363.858 85.498 372.719 82.421C361.066 96.704 345.001 107.563 327.439 113.165Z" fill="#FFB612"/>
<path d="M307.696 169.58C296.485 166.625 286.814 159.303 279.17 150.587C271.526 141.87 265.69 131.747 259.907 121.699C279.942 132.55 296.837 149.549 307.696 169.58Z" fill="#FFB612"/>
<path d="M303.405 184.268C292.932 182.407 283.54 176.437 275.897 169.039C268.254 161.641 262.159 152.822 256.117 144.067C275.251 152.488 291.974 166.765 303.405 184.268Z" fill="#FFB612"/>
<path d="M298.994 198.268C290.366 197.711 282.239 193.738 275.396 188.453C268.553 183.168 262.832 176.595 257.16 170.069C273.378 175.141 288.178 185.162 298.994 198.268Z" fill="#FFB612"/>
<path d="M288.059 349.167C286.383 311.322 287.078 271.312 306.242 238.635C321.791 212.122 347.636 193.656 371.222 173.948C394.809 154.24 417.862 130.65 423.974 100.527C432.3 125.69 433.877 152.956 423.032 177.14C415.465 194.015 402.501 207.896 388.584 220.076C374.667 232.256 359.571 243.079 346.172 255.827C319.671 281.039 297.516 313.833 288.059 349.167Z" fill="#CFDDAD"/>
<path d="M425.535 119.065C425.682 117.718 423.577 117.661 423.431 119.001C421.716 134.705 414.309 149.125 404.803 161.539C404.482 157.642 404.603 153.713 405.18 149.844C405.264 149.281 404.681 148.776 404.16 148.76C403.536 148.741 403.16 149.215 403.076 149.78C402.378 154.462 402.346 159.19 402.916 163.887C402.918 163.901 402.929 163.911 402.932 163.925C396.428 172.021 389.042 179.32 381.411 186.363C380.79 181.268 380.911 176.082 381.803 171.026C382.036 169.707 380.026 169.074 379.791 170.405C378.756 176.267 378.665 182.202 379.527 188.091C375.349 191.909 371.118 195.667 366.937 199.453C366.379 199.958 365.827 200.47 365.271 200.977C364.58 196.663 364.259 192.306 364.35 187.933C364.378 186.579 362.274 186.512 362.246 187.869C362.143 192.83 362.547 197.79 363.415 202.674C356.858 208.702 350.435 214.88 344.267 221.302C343.508 216.559 343.444 211.738 344.064 206.968C344.238 205.626 342.133 205.571 341.96 206.904C341.254 212.334 341.438 217.838 342.462 223.216C338.649 227.251 334.928 231.373 331.349 235.624C330.038 237.181 328.747 238.756 327.473 240.344C325.695 235.885 324.858 231.097 325.011 226.293C325.054 224.939 322.95 224.873 322.906 226.229C322.731 231.736 323.801 237.189 325.987 242.24C321.706 247.687 317.664 253.319 313.927 259.147C312.33 254.21 311.563 249.051 311.688 243.847C311.721 242.493 309.616 242.426 309.584 243.783C309.44 249.778 310.422 255.759 312.49 261.386C309.196 266.682 306.157 272.137 303.438 277.763C296.157 292.828 291.08 309.015 289.432 325.705C289.224 327.812 289.076 329.924 288.976 332.039C288.912 333.393 291.017 333.457 291.08 332.103C291.878 315.077 296.381 298.429 303.34 282.913C305.482 278.138 307.884 273.491 310.462 268.944C310.507 268.953 310.541 268.976 310.59 268.98C316.687 269.422 322.773 268.409 328.425 266.096C329.677 265.584 328.662 263.737 327.418 264.247C322.412 266.296 317.005 267.174 311.613 266.919C312.486 265.425 313.387 263.947 314.302 262.478C314.587 262.332 314.776 262.074 314.765 261.726C317.55 257.296 320.516 252.979 323.631 248.772C323.699 248.793 323.755 248.827 323.832 248.835C331.408 249.65 339.073 249.176 346.496 247.46C347.815 247.155 347.322 245.108 345.998 245.414C339.134 247.001 332.094 247.462 325.086 246.834C326.824 244.537 328.59 242.261 330.408 240.031C333.361 236.409 336.424 232.881 339.56 229.419C349.845 229.703 360.124 228.304 369.954 225.262C371.241 224.864 370.756 222.814 369.456 223.216C360.385 226.024 350.962 227.4 341.477 227.33C347.662 220.633 354.139 214.201 360.791 207.967C360.914 208.032 361.057 208.078 361.221 208.091C373.327 209.085 385.569 207.447 396.981 203.289C398.239 202.831 397.758 200.778 396.483 201.243C385.706 205.169 374.247 206.817 362.812 206.091C363.772 205.201 364.73 204.307 365.697 203.424C372.298 197.39 379.047 191.478 385.568 185.339C394.05 184.916 402.315 182.477 409.637 178.164C410.802 177.478 409.802 175.624 408.63 176.315C402.308 180.039 395.249 182.342 387.962 183.052C393.229 177.994 398.321 172.762 403.007 167.141C405.147 164.573 407.204 161.91 409.156 159.167C409.359 159.248 409.587 159.286 409.822 159.258C414.208 158.741 418.454 157.168 422.123 154.71C422.595 154.394 422.834 153.814 422.544 153.282C422.291 152.818 421.591 152.543 421.116 152.861C417.948 154.983 414.397 156.385 410.654 157.016C417.273 147.266 422.431 136.491 424.66 124.888C425.033 122.956 425.322 121.015 425.535 119.065Z" fill="#37666B"/>
<path d="M298.652 326.485C306.062 310.682 311.271 293.391 322.759 280.25C324.481 278.281 326.751 276.254 329.453 277.047C331.113 277.534 332.294 278.968 332.776 280.629C333.625 283.553 332.565 286.432 331.515 289.158C326.634 301.821 321.476 314.377 316.044 326.814C314.659 329.986 319.343 332.193 320.869 329.086C320.982 328.856 321.091 328.627 321.196 328.401C329.75 309.989 338.304 291.578 346.858 273.166C349.522 267.432 352.477 261.353 358.596 258.802C360.583 257.973 362.897 258.06 364.673 259.278C368.379 261.82 367.107 266.907 365.556 270.787C359.98 284.735 353.751 298.422 346.894 311.787C345.794 313.93 344.646 316.227 344.906 318.622C345.166 321.017 347.52 323.331 349.812 322.588C356.872 313.112 361.497 302.094 366.938 291.604C372.379 281.114 378.965 270.775 388.712 264.093C390.421 262.922 392.457 261.817 394.541 262.959C395.88 263.693 396.67 265.115 396.855 266.63C397.195 269.41 395.794 271.889 394.436 274.226C389.479 282.757 384.523 291.289 379.566 299.82C379.054 300.702 378.518 301.698 379.093 302.721C379.572 303.573 380.605 303.937 381.568 303.768C383.28 303.469 384.326 302.038 385.295 300.706C391.49 292.196 398.706 284.43 406.742 277.632C408.435 276.2 410.683 275.501 412.849 275.978C417.484 276.999 417.733 282.068 416.573 285.848C412.644 298.652 398.871 305.633 386.743 310.704C385.149 311.37 383.95 312.813 383.784 314.533C383.484 317.639 386.623 318.823 389.244 318.966C395.088 319.285 400.887 316.921 406.749 318.625C408.596 319.162 410.287 320.206 411.5 321.699C415.357 326.446 412.149 331.481 407.959 333.366C405.071 334.664 401.796 334.744 398.632 334.632C390.635 334.348 382.677 332.971 375.049 330.551C373.012 329.905 370.89 329.173 368.765 330.003C367.687 330.424 366.821 331.34 366.639 332.483C366.244 334.963 368.909 336.395 371.135 337.214L394.647 345.864C396.014 346.367 397.306 347.076 398.395 348.043C403.982 353.008 399.665 358.595 394.897 359.62C391.589 360.331 388.171 359.406 384.93 358.435C371.096 354.288 357.558 349.156 344.451 343.091C343.534 342.667 342.514 342.464 341.517 342.62C338.291 343.125 338.327 346.276 339.728 348.042C340.711 349.282 342.197 349.997 343.635 350.655C355.475 356.076 367.782 360.478 380.375 363.795C382.372 364.321 384.174 365.495 385.292 367.231C388.271 371.857 384.419 375.715 380.475 377.093C373.738 379.446 366.344 377.135 359.663 374.628C345.495 369.313 331.677 363.067 318.325 355.945C316.175 354.798 313.744 356.919 314.563 359.214C314.989 360.408 315.677 361.532 316.527 362.459C318.608 364.727 321.48 366.074 324.274 367.365C331.114 370.525 337.954 373.684 344.794 376.844C347.64 378.159 350.588 379.547 352.26 382.355C353.174 383.89 353.498 385.753 352.863 387.423C351.398 391.272 346.455 391.439 342.631 390.631C330.396 388.045 319.753 380.773 308.285 375.787C296.94 370.854 286.014 369.63 274.352 373.82C272.435 374.509 268.853 376.191 267.639 373.38C266.752 371.326 271.543 367.624 273.098 365.828C277.907 360.271 282.357 354.403 286.414 348.275C291.015 341.323 295.112 334.035 298.652 326.485Z" fill="#0A91B1"/>
<path d="M405.12 326.27C392.536 326.156 379.987 324.087 368.028 320.17C374.663 315.791 381.124 311.149 387.392 306.25C396.824 298.878 405.808 290.938 414.297 282.498C415.01 281.789 413.811 280.79 413.104 281.493C397.989 296.521 381.264 309.915 363.303 321.391C363.045 321.556 362.781 321.711 362.523 321.875C367.901 308.3 374.501 295.217 382.272 282.853C384.603 279.145 387.044 275.508 389.577 271.935C390.154 271.121 388.965 270.111 388.384 270.93C379.521 283.432 371.845 296.769 365.531 310.735C363.751 314.673 362.081 318.661 360.516 322.69C360.453 322.852 360.458 322.999 360.487 323.138C352.458 328.144 344.206 332.792 335.734 337.006C333.747 337.994 331.746 338.951 329.742 339.903C336.855 320.14 344.693 300.64 353.256 281.461C355.744 275.889 358.294 270.345 360.901 264.828C361.33 263.92 359.913 263.268 359.484 264.176C350.331 283.545 341.908 303.258 334.252 323.266C332.071 328.965 329.953 334.688 327.895 340.433C327.848 340.564 327.841 340.686 327.855 340.802C320.804 344.116 313.683 347.28 306.629 350.587C303.585 352.014 300.555 353.476 297.547 354.982C303.094 335.8 310.369 317.122 319.266 299.246C321.801 294.152 324.47 289.126 327.262 284.168C327.754 283.293 326.335 282.646 325.845 283.516C315.87 301.233 307.514 319.85 300.929 339.087C299.084 344.475 297.382 349.912 295.811 355.386C295.759 355.568 295.786 355.716 295.844 355.843C288.802 359.429 281.914 363.309 275.383 367.771C274.552 368.339 275.449 369.616 276.277 369.049C281.226 365.667 286.367 362.637 291.62 359.811C305.14 366.17 318.66 372.529 332.18 378.888C336.06 380.713 339.939 382.538 343.819 384.362C344.728 384.789 345.38 383.373 344.471 382.945C330.951 376.586 317.431 370.227 303.91 363.868C300.383 362.209 296.857 360.55 293.33 358.892C301.606 354.529 310.147 350.651 318.672 346.756C318.678 346.759 318.68 346.764 318.686 346.767C333.348 354.255 348.553 360.666 364.158 365.912C368.491 367.369 372.854 368.733 377.241 370.015C378.201 370.295 378.447 368.754 377.493 368.475C361.882 363.915 346.608 358.208 331.831 351.414C328.014 349.659 324.237 347.821 320.488 345.924C324.832 343.936 329.167 341.935 333.456 339.851C337.221 338.022 340.947 336.113 344.632 334.131C344.661 334.152 344.678 334.179 344.712 334.198C356.121 340.435 368.01 345.78 380.257 350.148C383.773 351.402 387.318 352.573 390.886 353.669C391.831 353.959 392.496 352.546 391.538 352.252C379.108 348.437 366.981 343.655 355.304 337.935C352.252 336.44 349.236 334.872 346.248 333.253C353.104 329.513 359.813 325.511 366.358 321.253C378.901 325.484 392.032 327.701 405.269 327.821C406.274 327.832 406.117 326.279 405.12 326.27Z" fill="white"/>
<path d="M192.33 386.192C175.048 365.093 155.455 343.97 129.48 335.654C108.405 328.906 85.675 331.42 63.559 332.182C41.443 332.944 17.748 331.369 0 318.151C7.623 335.644 19.876 351.024 37.31 358.783C49.475 364.197 63.095 365.413 76.409 365.259C89.723 365.105 103.018 363.657 116.328 364.056C142.65 364.844 170.285 371.787 192.33 386.192Z" fill="#D32F56"/>
<path d="M8.0679 328.842C7.3419 328.19 8.4429 327.148 9.1659 327.797C17.6299 335.394 28.5289 339.569 39.5899 341.659C37.8899 339.415 35.9379 337.366 33.7699 335.569C33.4539 335.307 33.5249 334.756 33.7959 334.497C34.1219 334.187 34.5509 334.261 34.8669 334.523C37.4909 336.698 39.7789 339.218 41.7299 342.011C41.7359 342.019 41.7339 342.03 41.7399 342.039C49.1169 343.256 56.5849 343.622 64.0599 343.733C61.9449 340.702 59.3899 337.979 56.4819 335.697C55.7239 335.102 56.4969 333.796 57.2629 334.397C60.6339 337.044 63.5339 340.182 65.9009 343.754C69.9749 343.794 74.0499 343.777 78.1109 343.798C78.6529 343.801 79.1949 343.81 79.7359 343.815C78.0339 341.17 76.1129 338.679 73.9629 336.378C73.2979 335.666 74.3939 334.619 75.0609 335.333C77.4989 337.944 79.6659 340.797 81.5459 343.834C87.9579 343.917 94.3699 344.144 100.763 344.625C98.8919 341.716 96.6099 339.101 93.9859 336.84C93.2469 336.204 94.3499 335.163 95.0839 335.795C98.0709 338.368 100.617 341.408 102.651 344.784C106.634 345.116 110.61 345.539 114.571 346.099C116.022 346.304 117.471 346.528 118.917 346.768C117.728 343.523 115.877 340.553 113.487 338.051C112.813 337.345 113.91 336.299 114.585 337.006C117.325 339.875 119.371 343.313 120.624 347.072C125.536 347.936 130.409 349.015 135.213 350.345C133.698 346.93 131.631 343.795 129.063 341.065C128.395 340.355 129.491 339.308 130.161 340.02C133.119 343.166 135.464 346.845 137.059 350.856C141.37 352.113 145.62 353.579 149.781 355.29C160.923 359.871 171.421 366.112 180.323 374.271C181.447 375.301 182.541 376.362 183.61 377.449C184.295 378.145 183.197 379.19 182.512 378.494C173.905 369.747 163.492 362.983 152.307 358.006C148.864 356.474 145.344 355.136 141.777 353.936C141.757 353.962 141.75 353.991 141.725 354.017C138.668 357.184 134.917 359.564 130.775 361.038C129.858 361.364 129.515 359.887 130.427 359.563C134.096 358.257 137.417 356.13 140.186 353.403C139 353.021 137.807 352.662 136.611 352.313C136.388 352.372 136.163 352.324 136.002 352.132C132.38 351.094 128.716 350.204 125.024 349.444C124.998 349.488 124.984 349.533 124.947 349.575C121.276 353.651 116.938 357.08 112.133 359.725C111.279 360.195 110.56 358.86 111.417 358.389C115.86 355.943 119.857 352.808 123.314 349.104C121.278 348.708 119.238 348.335 117.192 348.013C113.868 347.49 110.531 347.069 107.186 346.719C101.807 351.812 95.6229 356 88.8899 359.091C88.0089 359.496 87.2839 358.163 88.1739 357.755C94.3869 354.903 100.101 351.114 105.154 346.52C98.6199 345.9 92.0569 345.562 85.4949 345.415C85.4609 345.509 85.4059 345.602 85.3239 345.688C79.3099 352.036 71.9579 357.039 63.8409 360.292C62.9459 360.65 62.2179 359.319 63.1249 358.955C70.7899 355.883 77.7269 351.263 83.5099 345.379C82.5669 345.363 81.6239 345.344 80.6819 345.334C74.2429 345.269 67.7839 345.341 61.3379 345.182C56.5859 349.03 50.9829 351.692 44.9839 352.897C44.0299 353.088 43.6749 351.614 44.6349 351.422C49.8139 350.382 54.7059 348.226 58.9549 345.106C53.6999 344.924 48.4569 344.565 43.2429 343.801C40.8619 343.452 38.4799 343.012 36.1149 342.479C36.0449 342.62 35.9409 342.75 35.8019 342.848C33.2009 344.678 30.1689 345.874 27.0209 346.318C26.6159 346.375 26.2089 346.179 26.1089 345.755C26.0219 345.384 26.2649 344.9 26.6719 344.843C29.3909 344.459 31.9679 343.505 34.2779 342.045C26.0439 339.996 18.1019 336.696 11.3329 331.545C10.2059 330.688 9.1189 329.786 8.0679 328.842Z" fill="#8E0E33"/>
<path d="M160.757 344.417C142.026 327.821 124.423 309.958 108.123 290.967C91.8636 272.024 76.8867 251.98 63.3306 231.017C55.6856 219.194 48.5006 207.077 41.7836 194.704C41.1736 193.58 39.5406 194.721 40.1476 195.838C52.1286 217.906 65.6126 239.152 80.4836 259.386C95.3186 279.569 111.525 298.745 128.949 316.741C138.742 326.856 148.924 336.591 159.462 345.928C160.422 346.78 161.716 345.267 160.757 344.417Z" fill="#FC7800"/>
<path d="M53.473 218.391C43.294 210.569 36.559 198.95 32.491 186.774C28.423 174.598 26.804 161.763 25.207 149.026C41.01 168.692 50.973 193.287 53.473 218.391Z" fill="#FC7800"/>
<path d="M71.1299 246.228C64.7699 236.718 62.4019 224.986 62.4439 213.545C62.4859 202.104 64.7839 190.806 67.0729 179.596C74.7999 200.711 76.1879 224.32 71.1299 246.228Z" fill="#FFB612"/>
<path d="M70.0029 241.422C58.8739 244.074 47.0509 242.209 36.3409 238.187C25.6309 234.165 15.8389 228.077 6.12793 222.029C28.6109 222.137 51.2269 229.055 70.0029 241.422Z" fill="#FFB612"/>
<path d="M85.6444 264.861C75.7224 271.261 63.5744 273.503 51.7694 273.263C39.9644 273.023 28.3454 270.457 16.8174 267.903C38.7384 260.292 63.1244 259.266 85.6444 264.861Z" fill="#FC7800"/>
<path d="M100.465 282.545C90.4839 290.646 77.6029 294.51 64.7989 295.648C51.9949 296.786 39.1159 295.385 26.3379 293.985C49.1599 283.154 75.4299 279.156 100.465 282.545Z" fill="#FFB612"/>
<path d="M118.01 302.057C107.931 311.976 94.2321 317.561 80.3301 320.152C66.4281 322.743 52.1781 322.561 38.0391 322.371C61.8931 308.113 90.2401 300.975 118.01 302.057Z" fill="#FC7800"/>
<path d="M130.744 315.702C122.272 325.528 110.163 331.661 97.6456 335.073C85.1276 338.484 72.0846 339.387 59.1406 340.272C79.8836 325.446 105.27 316.794 130.744 315.702Z" fill="#FFB612"/>
<path d="M142.682 329.043C136.726 337.746 127.5 343.796 117.696 347.683C107.893 351.57 97.4365 353.479 87.0605 355.364C102.478 341.512 122.202 332.228 142.682 329.043Z" fill="#FC7800"/>
<path d="M86.5771 265.682C81.9701 255.21 81.6821 243.244 83.7161 231.986C85.7501 220.727 89.9811 210.002 94.1871 199.363C98.1181 221.5 95.3731 244.99 86.5771 265.682Z" fill="#FFB612"/>
<path d="M99.5444 282.61C97.1594 270.941 99.4964 258.702 104.041 247.694C108.586 236.685 115.249 226.702 121.868 216.801C121.001 240.191 113.043 263.489 99.5444 282.61Z" fill="#FFB612"/>
<path d="M117.465 303.088C114.503 288.597 117.406 273.397 123.05 259.725C128.694 246.053 136.97 233.655 145.19 221.358C144.113 250.407 134.23 279.341 117.465 303.088Z" fill="#FC7800"/>
<path d="M128.592 316.66C128.147 303.774 132.846 291.13 139.68 280.197C146.514 269.264 155.425 259.806 164.274 250.428C159.136 275.241 146.446 298.679 128.592 316.66Z" fill="#FFB612"/>
<path d="M141.56 327.614C143.568 317.94 149.363 309.38 156.436 302.481C163.509 295.582 171.86 290.159 180.15 284.784C171.82 302.324 158.116 317.469 141.56 327.614Z" fill="#FFB612"/>
<path d="M133.246 165.125H135.213C135.808 165.125 136.29 164.416 136.29 163.542V140.968C136.29 140.094 135.808 139.385 135.213 139.385H133.246C132.651 139.385 132.169 140.094 132.169 140.968V163.542C132.168 164.416 132.651 165.125 133.246 165.125Z" fill="#002923"/>
<path d="M133.246 131.035H135.213C135.808 131.035 136.29 130.326 136.29 129.452V106.878C136.29 106.004 135.808 105.295 135.213 105.295H133.246C132.651 105.295 132.169 106.004 132.169 106.878V129.452C132.168 130.327 132.651 131.035 133.246 131.035Z" fill="#002923"/>
<path d="M309.155 131.035H311.122C311.717 131.035 312.199 130.326 312.199 129.452V106.878C312.199 106.004 311.717 105.295 311.122 105.295H309.155C308.56 105.295 308.078 106.004 308.078 106.878V129.452C308.078 130.327 308.56 131.035 309.155 131.035Z" fill="#002923"/>
<path d="M158.799 406.907H285.57C299.139 406.907 310.14 395.907 310.14 382.338V76.453C310.14 62.884 299.139 51.884 285.57 51.884H158.799C145.23 51.884 134.229 62.884 134.229 76.453V382.337C134.229 395.907 145.229 406.907 158.799 406.907Z" fill="#002923"/>
<path d="M304.194 82.307V376.487C304.194 387.217 295.494 395.917 284.764 395.917H159.604C148.874 395.917 140.174 387.217 140.174 376.487V82.307C140.174 71.577 148.874 62.877 159.604 62.877H284.764C291.514 62.877 297.464 66.317 300.944 71.547C303.004 74.627 304.194 78.327 304.194 82.307Z" fill="white"/>
<path d="M244.804 199.384C246.348 199.384 247.893 199.384 249.612 199.384C249.698 201.038 249.778 202.554 249.873 204.382C254.933 204.382 259.874 204.382 264.816 204.382L264.74 204.3C264.74 207.599 264.74 210.897 264.74 214.4C268.378 214.4 271.609 214.4 274.84 214.4L274.762 214.322C274.762 217.625 274.762 220.928 274.762 224.426C276.722 224.426 278.285 224.426 279.849 224.426L279.773 224.344C279.772 226.04 279.771 227.736 279.77 229.432L279.851 229.355C278.226 229.355 276.6 229.355 274.992 229.355C274.992 231.25 274.992 232.759 274.992 234.444C276.737 234.444 278.294 234.444 279.851 234.444L279.77 234.367C279.77 237.664 279.77 240.96 279.77 244.427C281.708 244.427 283.266 244.427 284.823 244.427C284.823 246.097 284.823 247.768 284.823 249.438C271.46 249.438 258.097 249.438 244.734 249.438C244.734 247.819 244.734 246.2 244.734 244.326C248.276 244.326 251.453 244.326 254.71 244.326C254.71 242.497 254.71 240.941 254.71 239.385C258.009 239.385 261.308 239.385 264.891 239.385C264.891 241.277 264.891 242.794 264.891 244.294C266.632 244.294 268.079 244.294 269.642 244.294C269.642 235.977 269.642 227.793 269.642 219.549C267.98 219.549 266.471 219.549 264.673 219.549C264.673 222.909 264.673 226.1 264.673 229.465C262.929 229.465 261.479 229.465 259.893 229.465C259.801 231.164 259.718 232.689 259.62 234.486C257.934 234.486 256.417 234.486 254.789 234.486C254.789 236.339 254.789 237.902 254.789 239.465C246.49 239.465 238.191 239.465 229.701 239.465C229.701 242.987 229.701 246.213 229.701 249.439C226.36 249.439 223.02 249.439 219.679 249.439C219.664 247.758 219.648 246.078 219.633 244.397C221.256 244.397 222.879 244.397 224.508 244.397C224.508 242.587 224.508 241.082 224.508 239.614C222.812 239.614 221.307 239.614 219.712 239.614C219.712 241.365 219.712 242.921 219.712 244.476C218.085 244.476 216.457 244.476 214.668 244.476C214.668 246.328 214.668 247.883 214.668 249.438C212.998 249.438 211.327 249.438 209.657 249.438C209.643 246.085 209.628 242.732 209.614 239.378C211.248 239.378 212.883 239.378 214.63 239.378C214.63 237.491 214.63 235.926 214.63 234.361C216.263 234.361 217.896 234.361 219.641 234.361C219.641 232.479 219.641 230.915 219.641 229.35C221.338 229.352 223.035 229.353 224.732 229.355C224.732 230.979 224.732 232.604 224.732 234.217C228.222 234.217 231.4 234.217 234.674 234.217C234.674 232.471 234.674 230.911 234.674 229.35C236.302 229.35 237.93 229.35 239.518 229.35C239.518 224.181 239.518 219.334 239.518 214.202C234.466 214.202 229.614 214.202 224.58 214.202C224.58 212.46 224.58 211.008 224.58 209.279C222.872 209.279 221.352 209.279 219.632 209.279C219.632 207.43 219.632 205.868 219.632 204.306C221.255 204.306 222.878 204.306 224.507 204.306C224.507 202.496 224.507 200.991 224.507 199.523C222.811 199.523 221.306 199.523 219.711 199.523C219.711 201.274 219.711 202.83 219.711 204.385C218.015 204.381 216.32 204.378 214.624 204.374C214.624 202.744 214.624 201.114 214.624 199.202C212.799 199.202 211.287 199.202 209.586 199.202C209.586 195.792 209.586 192.676 209.586 189.431C207.881 189.338 206.358 189.254 204.836 189.171C204.836 187.468 204.836 185.959 204.836 184.336C208.252 184.336 211.478 184.336 214.704 184.336L214.628 184.254C214.628 187.537 214.628 190.82 214.628 194.142C216.489 194.142 217.995 194.142 219.776 194.142C219.776 192.46 219.776 190.95 219.776 189.258C221.611 189.258 223.165 189.258 224.719 189.258C224.719 190.881 224.719 192.504 224.719 194.133C226.529 194.133 228.034 194.133 229.502 194.133C229.502 192.437 229.502 190.932 229.502 189.337C227.751 189.337 226.195 189.337 224.64 189.337C224.64 187.708 224.64 186.079 224.64 184.332C228.288 184.332 231.519 184.332 234.75 184.332L234.672 184.254C234.672 185.876 234.672 187.498 234.672 189.386C236.547 189.386 238.055 189.386 239.834 189.386C239.834 191.173 239.834 192.682 239.834 194.354C241.665 194.354 243.219 194.354 244.772 194.354L244.69 194.278C244.756 196.004 244.822 197.731 244.884 199.455C243.194 199.452 241.507 199.452 239.754 199.452C239.754 201.292 239.754 202.839 239.754 204.386C238.125 204.386 236.496 204.386 234.59 204.386C234.59 202.466 234.59 200.95 234.59 199.462C232.851 199.462 231.406 199.462 229.861 199.462C229.861 202.776 229.861 205.954 229.861 209.169C233.207 209.169 236.388 209.169 239.675 209.169C239.675 207.429 239.675 205.868 239.675 204.307C241.298 204.307 242.921 204.307 244.802 204.307C244.804 202.473 244.804 200.928 244.804 199.384ZM259.653 209.556C254.554 209.556 249.706 209.556 244.867 209.556C244.867 214.545 244.867 219.326 244.867 224.226C249.846 224.226 254.693 224.226 259.653 224.226C259.653 219.289 259.653 214.508 259.653 209.556Z" fill="#002923"/>
<path d="M194.623 124.162C194.623 135.731 194.623 147.301 194.623 159.239C182.818 159.239 171.182 159.239 159.546 159.239C159.546 147.547 159.546 135.854 159.546 124.162C171.238 124.162 182.931 124.162 194.623 124.162ZM189.482 129.328C181.031 129.328 172.91 129.328 164.737 129.328C164.737 137.672 164.737 145.859 164.737 154.023C173.106 154.023 181.294 154.023 189.482 154.023C189.482 145.697 189.482 137.575 189.482 129.328Z" fill="#002923"/>
<path d="M284.822 159.239C273.253 159.239 261.683 159.239 249.745 159.239C249.745 147.434 249.745 135.798 249.745 124.162C261.438 124.162 273.13 124.162 284.822 124.162C284.822 135.854 284.822 147.547 284.822 159.239ZM254.913 129.305C254.913 137.625 254.913 145.812 254.913 154.047C263.258 154.047 271.446 154.047 279.606 154.047C279.606 145.676 279.606 137.488 279.606 129.305C271.277 129.305 263.156 129.305 254.913 129.305Z" fill="#002923"/>
<path d="M159.546 214.361C171.115 214.361 182.685 214.361 194.623 214.361C194.623 226.167 194.623 237.803 194.623 249.438C182.977 249.438 171.331 249.438 159.546 249.438C159.546 237.746 159.546 226.054 159.546 214.361ZM189.427 244.292C189.427 235.917 189.427 227.729 189.427 219.582C181.052 219.582 172.864 219.582 164.694 219.582C164.694 227.915 164.694 236.037 164.694 244.292C172.95 244.292 181.072 244.292 189.427 244.292Z" fill="#002923"/>
<path d="M239.722 124.162C239.722 127.391 239.722 130.62 239.722 134.038C241.429 134.134 242.949 134.22 244.596 134.313C244.596 137.558 244.596 140.675 244.596 144.094C243.092 144.094 241.578 144.094 239.855 144.094C239.767 145.899 239.693 147.427 239.613 149.077C238.028 149.077 236.575 149.077 234.824 149.077C234.824 144.262 234.824 139.4 234.824 134.364C233.02 134.364 231.509 134.364 229.795 134.364C229.795 135.861 229.795 137.316 229.795 138.982C228.09 138.982 226.574 138.982 224.646 138.982C224.646 135.741 224.646 132.438 224.646 129.136C227.945 129.136 231.244 129.136 234.712 129.136C234.712 127.281 234.712 125.722 234.712 124.162C236.382 124.162 238.051 124.162 239.722 124.162Z" fill="#002923"/>
<path d="M264.816 204.382C264.816 202.825 264.816 201.268 264.816 199.52C269.735 199.52 274.566 199.52 279.688 199.52C279.688 200.962 279.688 202.468 279.688 204.339C281.58 204.339 283.201 204.339 284.822 204.339C284.822 207.68 284.822 211.02 284.822 214.361C281.468 214.348 278.115 214.335 274.761 214.322L274.839 214.4C274.839 212.778 274.839 211.156 274.839 209.268C272.966 209.268 271.457 209.268 269.677 209.268C269.677 207.48 269.677 205.972 269.677 204.3C267.847 204.3 266.293 204.3 264.739 204.3L264.816 204.382Z" fill="#002923"/>
<path d="M214.667 124.162C214.667 125.714 214.667 127.267 214.667 129.099C212.997 129.099 211.486 129.099 209.798 129.099C209.703 130.879 209.623 132.398 209.535 134.042C207.975 134.042 206.531 134.042 204.802 134.042C204.802 132.597 204.802 131.087 204.802 129.292C203.018 129.292 201.508 129.292 199.633 129.292C199.633 127.404 199.633 125.783 199.633 124.162C204.645 124.162 209.656 124.162 214.667 124.162Z" fill="#002923"/>
<path d="M284.822 169.261C283.274 169.261 281.727 169.261 279.996 169.261C279.996 167.612 279.996 166.109 279.996 164.25C281.59 164.25 283.206 164.25 284.822 164.25C284.822 165.921 284.822 167.591 284.822 169.261Z" fill="#002923"/>
<path d="M164.594 189.263C162.911 189.277 161.228 189.292 159.546 189.306C159.546 187.636 159.546 185.965 159.546 184.295C161.229 184.309 162.912 184.324 164.595 184.338L164.519 184.256C164.519 185.952 164.519 187.648 164.519 189.345L164.594 189.263Z" fill="#002923"/>
<path d="M224.69 124.162C224.703 125.845 224.716 127.529 224.729 129.212C223.17 129.212 221.611 129.212 219.679 129.212C219.679 127.412 219.679 125.787 219.679 124.162C221.349 124.162 223.019 124.162 224.69 124.162Z" fill="#002923"/>
<path d="M279.848 224.426C279.848 222.866 279.848 221.307 279.848 219.372C281.571 219.372 283.196 219.372 284.822 219.372C284.822 221.042 284.822 222.713 284.822 224.383C283.139 224.37 281.455 224.357 279.772 224.344L279.848 224.426Z" fill="#002923"/>
<path d="M164.596 179.322C162.913 179.309 161.229 179.296 159.546 179.283C159.546 177.613 159.546 175.942 159.546 174.272C161.102 174.272 162.657 174.272 164.596 174.272C164.596 176.062 164.596 177.692 164.596 179.322Z" fill="#002923"/>
<path d="M279.769 229.432C281.453 229.419 283.138 229.407 284.822 229.394C284.822 231.065 284.822 232.735 284.822 234.405C283.138 234.392 281.453 234.38 279.769 234.367L279.85 234.444C279.85 232.748 279.85 231.052 279.85 229.355L279.769 229.432Z" fill="#002923"/>
<path d="M159.546 164.25C161.094 164.25 162.642 164.25 164.372 164.25C164.372 165.9 164.372 167.402 164.372 169.261C162.778 169.261 161.162 169.261 159.546 169.261C159.546 167.591 159.546 165.921 159.546 164.25Z" fill="#002923"/>
<path d="M199.634 249.438C199.634 247.891 199.634 246.343 199.634 244.612C201.283 244.612 202.786 244.612 204.645 244.612C204.645 246.206 204.645 247.822 204.645 249.438C202.975 249.438 201.305 249.438 199.634 249.438Z" fill="#002923"/>
<path d="M234.712 249.438C234.712 247.891 234.712 246.343 234.712 244.612C236.361 244.612 237.864 244.612 239.723 244.612C239.723 246.206 239.723 247.822 239.723 249.438C238.052 249.438 236.382 249.438 234.712 249.438Z" fill="#002923"/>
<path d="M209.695 169.3C206.473 169.3 203.251 169.3 199.757 169.3C199.757 175.904 199.757 182.409 199.757 189.109C196.317 189.109 193.143 189.109 189.655 189.109C189.655 187.507 189.655 185.882 189.655 184.257L189.573 184.333C191.198 184.333 192.824 184.333 194.432 184.333C194.432 182.438 194.432 180.929 194.432 179.244C192.687 179.244 191.13 179.244 189.573 179.244L189.651 179.322C189.651 177.626 189.651 175.93 189.651 174.233L189.573 174.311C191.198 174.311 192.824 174.311 194.432 174.311C194.432 172.416 194.432 170.907 194.432 169.222C192.687 169.222 191.13 169.222 189.573 169.222L189.655 169.298C189.655 167.735 189.655 166.173 189.655 164.318C192.947 164.318 196.135 164.318 199.602 164.318C199.602 155.844 199.602 147.657 199.602 139.335C201.329 139.335 202.776 139.335 204.519 139.335C204.519 140.812 204.519 142.328 204.519 144.254C206.428 144.254 208.058 144.254 209.689 144.254L209.61 144.175C209.611 145.868 209.612 147.561 209.613 149.254L209.695 149.178C208.07 149.178 206.445 149.178 204.832 149.178C204.832 152.748 204.832 155.925 204.832 159.278C206.576 159.278 208.136 159.278 209.695 159.278L209.613 159.202C209.641 162.568 209.668 165.934 209.695 169.3Z" fill="#002923"/>
<path d="M179.62 189.26C178.058 189.26 176.497 189.26 174.65 189.26C174.65 194.309 174.65 199.165 174.65 204.177C172.857 204.177 171.348 204.177 169.636 204.177C169.636 200.966 169.636 197.849 169.636 194.439C167.934 194.439 166.421 194.439 164.594 194.439C164.594 192.526 164.594 190.895 164.594 189.264L164.518 189.346C166.152 189.346 167.787 189.346 169.607 189.346C169.607 187.384 169.607 185.821 169.607 184.257L169.531 184.339C171.095 184.339 172.658 184.339 174.628 184.339C174.628 180.844 174.628 177.543 174.628 174.241L174.549 174.32C176.242 174.319 177.935 174.318 179.628 174.317L179.552 174.235C179.552 175.866 179.552 177.498 179.552 179.324C183.188 179.324 186.42 179.324 189.652 179.324L189.574 179.246C189.574 180.942 189.574 182.639 189.574 184.335L189.656 184.259C186.424 184.259 183.193 184.259 179.542 184.259C179.542 186.082 179.542 187.711 179.542 189.341L179.62 189.26Z" fill="#002923"/>
<path d="M259.804 189.263C258.246 189.263 256.687 189.263 254.844 189.263C254.844 190.962 254.844 192.476 254.844 194.28C251.273 194.28 247.982 194.28 244.69 194.28L244.772 194.356C244.772 191.057 244.772 187.759 244.772 184.256C241.134 184.256 237.903 184.256 234.672 184.256L234.75 184.334C234.75 182.706 234.75 181.077 234.75 179.174C236.574 179.174 238.088 179.174 239.784 179.174C239.784 177.439 239.784 175.993 239.784 174.424C243.152 174.424 246.327 174.424 249.793 174.424C249.793 177.746 249.793 180.927 249.793 184.38C253.263 184.38 256.446 184.38 259.727 184.38C259.727 186.225 259.727 187.785 259.727 189.346L259.804 189.263Z" fill="#002923"/>
<path d="M244.696 164.293C252.937 164.293 261.178 164.293 269.746 164.293C269.746 166.038 269.746 167.668 269.746 169.299L269.828 169.223C268.194 169.223 266.559 169.223 264.647 169.223C264.647 171.145 264.647 172.663 264.647 174.37C262.898 174.37 261.447 174.37 259.706 174.37C259.706 176.08 259.706 177.606 259.706 179.069C257.889 179.069 256.379 179.069 254.667 179.069C254.667 175.737 254.667 172.617 254.667 169.205C251.271 169.205 248.079 169.205 244.773 169.205C244.773 167.343 244.773 165.777 244.773 164.212L244.696 164.293Z" fill="#002923"/>
<path d="M269.746 169.299C271.307 169.299 272.867 169.299 274.713 169.299C274.713 172.578 274.713 175.761 274.713 179.142C276.498 179.235 278.015 179.313 279.666 179.399C279.666 180.962 279.666 182.409 279.666 184.147C278.216 184.147 276.702 184.147 274.9 184.147C274.9 185.941 274.9 187.455 274.9 189.263C271.327 189.263 268.034 189.263 264.74 189.263L264.816 189.345C264.816 187.716 264.816 186.088 264.816 184.18C266.638 184.18 268.148 184.18 269.827 184.18C269.827 178.999 269.827 174.111 269.827 169.223L269.746 169.299Z" fill="#002923"/>
<path d="M224.659 159.285C226.352 159.284 228.045 159.283 229.738 159.282L229.662 159.2C229.662 160.834 229.662 162.469 229.662 164.289C231.624 164.289 233.187 164.289 234.751 164.289L234.673 164.211C234.673 165.832 234.673 167.453 234.673 169.336C231.202 169.336 228.029 169.336 224.585 169.336C224.585 171.12 224.585 172.631 224.585 174.233C222.751 174.233 221.196 174.233 219.64 174.233L219.722 174.309C219.722 171.09 219.722 167.871 219.722 164.361C221.323 164.361 222.833 164.361 224.739 164.361C224.739 162.458 224.739 160.832 224.739 159.206L224.659 159.285Z" fill="#002923"/>
<path d="M179.627 174.315C179.627 171.1 179.627 167.886 179.627 164.461C181.211 164.461 182.714 164.461 184.51 164.461C184.51 165.903 184.51 167.419 184.51 169.299C186.405 169.299 188.03 169.299 189.654 169.299L189.572 169.223C189.572 170.919 189.572 172.616 189.572 174.312L189.65 174.234C186.283 174.234 182.917 174.234 179.55 174.234L179.627 174.315Z" fill="#002923"/>
<path d="M234.674 159.282C236.229 159.282 237.785 159.282 239.621 159.282C239.621 157.596 239.621 156.084 239.621 154.402C241.405 154.402 242.911 154.402 244.696 154.402C244.696 157.725 244.696 161.009 244.696 164.293L244.772 164.211C241.405 164.211 238.039 164.211 234.672 164.211L234.75 164.289C234.75 162.593 234.75 160.896 234.75 159.2L234.674 159.282Z" fill="#002923"/>
<path d="M209.613 149.255C211.173 149.255 212.733 149.255 214.48 149.255C214.48 152.531 214.48 155.708 214.48 159.202C212.863 159.202 211.238 159.202 209.613 159.202L209.695 159.278C209.695 155.911 209.695 152.545 209.695 149.178L209.613 149.255Z" fill="#002923"/>
<path d="M214.705 184.337C214.68 180.969 214.654 177.601 214.629 174.233C216.327 174.258 218.024 174.284 219.722 174.309L219.64 174.233C219.64 177.537 219.64 180.841 219.64 184.255C217.758 184.255 216.194 184.255 214.629 184.255L214.705 184.337Z" fill="#002923"/>
<path d="M174.627 174.239C173.072 174.239 171.517 174.239 169.765 174.239C169.765 172.643 169.765 171.136 169.765 169.442C171.234 169.442 172.739 169.442 174.548 169.442C174.548 171.072 174.548 172.695 174.548 174.318L174.627 174.239Z" fill="#002923"/>
<path d="M264.74 189.263C264.74 190.821 264.74 192.378 264.74 194.126C263.132 194.126 261.624 194.126 259.804 194.126C259.804 192.516 259.804 190.89 259.804 189.263L259.728 189.345C261.424 189.345 263.121 189.345 264.817 189.345L264.74 189.263Z" fill="#002923"/>
<path d="M164.594 184.337C164.568 182.64 164.543 180.942 164.518 179.244C166.082 179.244 167.646 179.244 169.53 179.244C169.53 181.069 169.53 182.703 169.53 184.337L169.606 184.255C167.91 184.255 166.213 184.255 164.517 184.255L164.594 184.337Z" fill="#002923"/>
<path d="M209.689 144.255C209.689 142.699 209.689 141.144 209.689 139.393C211.285 139.393 212.792 139.393 214.485 139.393C214.485 140.862 214.485 142.367 214.485 144.176C212.856 144.176 211.233 144.176 209.61 144.176L209.689 144.255Z" fill="#002923"/>
<path d="M219.815 144.319C221.425 144.319 222.869 144.319 224.502 144.319C224.502 145.867 224.502 147.377 224.502 149.055C222.976 149.055 221.466 149.055 219.815 149.055C219.815 147.524 219.815 146.079 219.815 144.319Z" fill="#002923"/>
<path d="M224.738 159.206C223.183 159.206 221.627 159.206 219.876 159.206C219.876 157.61 219.876 156.103 219.876 154.41C221.344 154.41 222.85 154.41 224.659 154.41C224.659 156.04 224.659 157.663 224.659 159.285L224.738 159.206Z" fill="#002923"/>
<path d="M229.738 159.282C229.738 157.724 229.738 156.167 229.738 154.419C231.346 154.419 232.856 154.419 234.674 154.419C234.674 156.029 234.674 157.655 234.674 159.282L234.75 159.2C233.054 159.2 231.358 159.2 229.661 159.2L229.738 159.282Z" fill="#002923"/>
<path d="M214.706 174.311C213.142 174.311 211.578 174.311 209.617 174.311C209.617 172.491 209.617 170.857 209.617 169.222C211.181 169.222 212.745 169.222 214.706 169.222C214.706 171.043 214.706 172.677 214.706 174.311Z" fill="#002923"/>
<path d="M209.694 209.311C209.694 211.007 209.694 212.704 209.694 214.4C208.134 214.4 206.574 214.4 204.729 214.4C204.729 216.014 204.729 217.536 204.729 219.209C202.935 219.209 201.425 219.209 199.773 219.209C199.773 214.277 199.773 209.434 199.773 204.466C201.355 204.466 202.799 204.466 204.534 204.466C204.534 205.974 204.534 207.488 204.534 209.311C206.437 209.311 208.066 209.311 209.694 209.311Z" fill="#002923"/>
<path d="M179.541 189.339C181.104 189.339 182.666 189.339 184.414 189.339C184.414 195.956 184.414 202.467 184.414 209.165C182.923 209.165 181.415 209.165 179.621 209.165C179.621 202.511 179.621 195.885 179.621 189.26L179.541 189.339Z" fill="#002923"/>
<path d="M214.706 234.444C213.143 234.444 211.579 234.444 209.695 234.444C209.695 236.189 209.695 237.822 209.695 239.455C208.13 239.455 206.566 239.455 204.694 239.455C204.694 235.966 204.694 232.663 204.694 229.361L204.615 229.44C207.979 229.412 211.342 229.383 214.706 229.355C214.706 231.051 214.706 232.748 214.706 234.444Z" fill="#002923"/>
<path d="M209.618 214.322C211.183 214.322 212.748 214.322 214.707 214.322C214.707 217.816 214.707 221.119 214.707 224.422C213.142 224.422 211.577 224.422 209.618 224.422C209.618 220.928 209.618 217.625 209.618 214.322Z" fill="#002923"/>
<path d="M189.739 199.177C189.739 197.61 189.739 196.165 189.739 194.517C191.246 194.517 192.757 194.517 194.448 194.517C194.448 196.001 194.448 197.511 194.448 199.177C192.958 199.177 191.51 199.177 189.739 199.177Z" fill="#002923"/>
<path d="M189.731 209.156C189.731 207.516 189.731 206.071 189.731 204.483C191.29 204.483 192.737 204.483 194.404 204.483C194.404 205.934 194.404 207.445 194.404 209.156C192.977 209.156 191.467 209.156 189.731 209.156Z" fill="#002923"/>
<path d="M214.706 204.3C214.706 205.863 214.706 207.427 214.706 209.389C212.886 209.389 211.252 209.389 209.617 209.389C209.617 207.825 209.617 206.261 209.617 204.3C211.438 204.3 213.072 204.3 214.706 204.3Z" fill="#002923"/>
<path d="M204.694 229.361C203.139 229.361 201.583 229.361 199.832 229.361C199.832 227.765 199.832 226.258 199.832 224.565C201.3 224.565 202.806 224.565 204.615 224.565C204.615 226.194 204.615 227.817 204.615 229.44L204.694 229.361Z" fill="#002923"/>
<path d="M219.717 229.433C218.021 229.433 216.325 229.433 214.628 229.433C214.628 227.737 214.628 226.04 214.628 224.344C216.324 224.344 218.021 224.344 219.717 224.344C219.717 226.04 219.717 227.737 219.717 229.433Z" fill="#002923"/>
<path d="M224.651 229.433C224.651 227.737 224.651 226.04 224.651 224.344C226.206 224.344 227.762 224.344 229.598 224.344C229.598 222.741 229.598 221.229 229.598 219.547C231.381 219.547 232.888 219.547 234.75 219.547C234.75 222.865 234.75 226.149 234.75 229.433C231.384 229.433 228.017 229.433 224.651 229.433Z" fill="#002923"/>
<path d="M224.728 224.422C223.032 224.422 221.335 224.422 219.639 224.422C219.639 222.865 219.639 221.309 219.639 219.563C221.324 219.563 222.833 219.563 224.728 219.563C224.728 221.171 224.728 222.796 224.728 224.422Z" fill="#002923"/>
<path d="M254.548 219.266C252.951 219.266 251.506 219.266 249.903 219.266C249.903 217.652 249.903 216.142 249.903 214.495C251.448 214.495 252.893 214.495 254.548 214.495C254.548 215.978 254.548 217.489 254.548 219.266Z" fill="#002923"/>
<path d="M184.471 134.375C184.471 139.374 184.471 144.155 184.471 149.076C179.562 149.076 174.781 149.076 169.783 149.076C169.783 144.265 169.783 139.416 169.783 134.375C174.572 134.375 179.42 134.375 184.471 134.375Z" fill="#002923"/>
<path d="M259.971 134.301C264.93 134.301 269.711 134.301 274.646 134.301C274.646 139.196 274.646 143.977 274.646 148.989C269.875 148.989 265.026 148.989 259.971 148.989C259.971 144.24 259.971 139.392 259.971 134.301Z" fill="#002923"/>
<path d="M169.782 224.49C174.71 224.49 179.491 224.49 184.436 224.49C184.436 229.442 184.436 234.288 184.436 239.276C179.559 239.276 174.778 239.276 169.782 239.276C169.782 234.461 169.782 229.613 169.782 224.49Z" fill="#002923"/>
<path d="M291.563 256.083H152.805V247.026H154.805V254.083H289.563V247.026H291.563V256.083Z" fill="#D32F56"/>
<path d="M291.563 125.598H289.563V118.54H154.805V125.598H152.805V116.54H291.563V125.598Z" fill="#D32F56"/>
<g opacity="0.3">
<path d="M300.944 71.547L169.774 395.917H159.604C148.874 395.917 140.174 387.217 140.174 376.487V351.437L274.444 62.877H284.764C291.514 62.877 297.464 66.317 300.944 71.547Z" fill="white"/>
<path d="M304.194 104.647V145.807L200.244 395.917H181.604L304.194 104.647Z" fill="white"/>
</g>
<path d="M250.992 296.277H193.071C188.204 296.277 184.258 292.331 184.258 287.464C184.258 282.597 188.204 278.651 193.071 278.651H250.992C255.859 278.651 259.805 282.597 259.805 287.464C259.804 292.332 255.859 296.277 250.992 296.277Z" fill="#1E9D7E"/>
<path d="M196.926 285.678C196.883 285.31 196.705 285.023 196.395 284.819C196.084 284.616 195.703 284.514 195.252 284.514C194.922 284.514 194.633 284.567 194.386 284.674C194.141 284.781 193.949 284.927 193.811 285.114C193.675 285.301 193.607 285.513 193.607 285.751C193.607 285.95 193.654 286.121 193.749 286.264C193.846 286.405 193.97 286.523 194.12 286.617C194.271 286.71 194.428 286.786 194.593 286.847C194.758 286.905 194.91 286.952 195.048 286.989L195.805 287.192C195.999 287.243 196.215 287.314 196.453 287.404C196.693 287.493 196.923 287.616 197.141 287.771C197.362 287.924 197.544 288.121 197.687 288.361C197.83 288.601 197.902 288.896 197.902 289.245C197.902 289.648 197.796 290.012 197.585 290.337C197.376 290.662 197.071 290.921 196.668 291.112C196.268 291.304 195.781 291.4 195.208 291.4C194.675 291.4 194.212 291.314 193.822 291.141C193.433 290.969 193.128 290.729 192.904 290.421C192.684 290.113 192.559 289.755 192.53 289.347H193.461C193.486 289.629 193.58 289.861 193.745 290.046C193.913 290.228 194.124 290.364 194.379 290.454C194.636 290.541 194.912 290.585 195.208 290.585C195.553 290.585 195.862 290.529 196.136 290.417C196.411 290.303 196.628 290.145 196.788 289.944C196.948 289.74 197.028 289.502 197.028 289.231C197.028 288.983 196.959 288.782 196.821 288.626C196.682 288.471 196.5 288.345 196.275 288.248C196.049 288.151 195.805 288.066 195.543 287.993L194.626 287.731C194.044 287.564 193.583 287.325 193.243 287.014C192.903 286.703 192.733 286.297 192.733 285.795C192.733 285.377 192.846 285.013 193.072 284.703C193.3 284.39 193.606 284.147 193.989 283.975C194.375 283.8 194.806 283.713 195.281 283.713C195.762 283.713 196.189 283.799 196.562 283.971C196.936 284.141 197.232 284.374 197.45 284.67C197.671 284.966 197.788 285.302 197.8 285.678H196.926ZM205.384 286.144H204.481C204.428 285.885 204.334 285.656 204.201 285.46C204.07 285.263 203.91 285.098 203.721 284.965C203.534 284.829 203.326 284.727 203.098 284.659C202.87 284.591 202.632 284.557 202.385 284.557C201.934 284.557 201.525 284.671 201.158 284.899C200.794 285.128 200.504 285.464 200.288 285.908C200.075 286.352 199.968 286.896 199.968 287.542C199.968 288.187 200.075 288.732 200.288 289.176C200.504 289.62 200.794 289.956 201.158 290.184C201.525 290.412 201.934 290.526 202.385 290.526C202.632 290.526 202.87 290.492 203.098 290.424C203.326 290.356 203.534 290.256 203.721 290.122C203.91 289.986 204.07 289.82 204.201 289.624C204.334 289.425 204.428 289.197 204.481 288.939H205.384C205.316 289.32 205.192 289.661 205.013 289.962C204.833 290.263 204.61 290.519 204.343 290.73C204.076 290.939 203.776 291.098 203.444 291.207C203.114 291.316 202.761 291.371 202.385 291.371C201.749 291.371 201.184 291.215 200.689 290.905C200.194 290.594 199.804 290.153 199.52 289.58C199.237 289.007 199.095 288.328 199.095 287.542C199.095 286.756 199.237 286.076 199.52 285.504C199.804 284.931 200.194 284.489 200.689 284.179C201.184 283.868 201.749 283.713 202.385 283.713C202.761 283.713 203.114 283.768 203.444 283.877C203.776 283.986 204.076 284.146 204.343 284.357C204.61 284.566 204.833 284.821 205.013 285.121C205.192 285.42 205.316 285.761 205.384 286.144ZM207.148 291.269H206.202L208.939 283.815H209.871L212.608 291.269H211.661L209.434 284.994H209.376L207.148 291.269ZM207.498 288.357H211.312V289.158H207.498V288.357ZM219.679 283.815V291.269H218.806L214.744 285.416H214.671V291.269H213.769V283.815H214.642L218.719 289.682H218.791V283.815H219.679ZM230.279 283.815V291.269H229.405L225.344 285.416H225.271V291.269H224.368V283.815H225.242L229.318 289.682H229.391V283.815H230.279ZM238.374 287.542C238.374 288.328 238.232 289.007 237.949 289.58C237.665 290.153 237.275 290.594 236.78 290.905C236.285 291.215 235.72 291.371 235.084 291.371C234.448 291.371 233.883 291.215 233.388 290.905C232.893 290.594 232.504 290.153 232.22 289.58C231.936 289.007 231.794 288.328 231.794 287.542C231.794 286.756 231.936 286.076 232.22 285.504C232.504 284.931 232.893 284.489 233.388 284.179C233.883 283.868 234.448 283.713 235.084 283.713C235.72 283.713 236.285 283.868 236.78 284.179C237.275 284.489 237.665 284.931 237.949 285.504C238.232 286.076 238.374 286.756 238.374 287.542ZM237.501 287.542C237.501 286.896 237.393 286.352 237.177 285.908C236.963 285.464 236.673 285.128 236.307 284.899C235.943 284.671 235.535 284.557 235.084 284.557C234.633 284.557 234.224 284.671 233.858 284.899C233.494 285.128 233.204 285.464 232.988 285.908C232.774 286.352 232.667 286.896 232.667 287.542C232.667 288.187 232.774 288.732 232.988 289.176C233.204 289.62 233.494 289.956 233.858 290.184C234.224 290.412 234.633 290.526 235.084 290.526C235.535 290.526 235.943 290.412 236.307 290.184C236.673 289.956 236.963 289.62 237.177 289.176C237.393 288.732 237.501 288.187 237.501 287.542ZM241.246 291.269L239.208 283.815H240.125L241.683 289.886H241.756L243.342 283.815H244.362L245.948 289.886H246.021L247.579 283.815H248.496L246.458 291.269H245.526L243.881 285.329H243.823L242.178 291.269H241.246Z" fill="#FCF4BE"/>
<path d="M193.938 97.3095H194.797L195.516 98.2565L195.706 98.509L196.779 99.9358H195.92L195.213 98.9888L195.036 98.7489L193.938 97.3095ZM197.044 96.0974C197.044 96.7792 196.921 97.3684 196.675 97.8651C196.428 98.3617 196.091 98.7447 195.661 99.0141C195.232 99.2834 194.742 99.4181 194.19 99.4181C193.639 99.4181 193.149 99.2834 192.72 99.0141C192.29 98.7447 191.952 98.3617 191.706 97.8651C191.46 97.3684 191.337 96.7792 191.337 96.0974C191.337 95.4156 191.46 94.8263 191.706 94.3297C191.952 93.8331 192.29 93.4501 192.72 93.1807C193.149 92.9114 193.639 92.7767 194.19 92.7767C194.742 92.7767 195.232 92.9114 195.661 93.1807C196.091 93.4501 196.428 93.8331 196.675 94.3297C196.921 94.8263 197.044 95.4156 197.044 96.0974ZM196.286 96.0974C196.286 95.5376 196.193 95.0652 196.006 94.6801C195.82 94.295 195.569 94.0035 195.251 93.8057C194.935 93.6079 194.582 93.509 194.19 93.509C193.799 93.509 193.444 93.6079 193.127 93.8057C192.811 94.0035 192.56 94.295 192.372 94.6801C192.187 95.0652 192.095 95.5376 192.095 96.0974C192.095 96.6571 192.187 97.1296 192.372 97.5147C192.56 97.8998 192.811 98.1912 193.127 98.3891C193.444 98.5869 193.799 98.6858 194.19 98.6858C194.582 98.6858 194.935 98.5869 195.251 98.3891C195.569 98.1912 195.82 97.8998 196.006 97.5147C196.193 97.1296 196.286 96.6571 196.286 96.0974ZM198.36 99.3297V92.8651H200.545C201.05 92.8651 201.464 92.9513 201.788 93.1239C202.112 93.2944 202.352 93.529 202.508 93.8278C202.664 94.1266 202.742 94.4665 202.742 94.8474C202.742 95.2283 202.664 95.566 202.508 95.8606C202.352 96.1553 202.113 96.3867 201.792 96.5551C201.47 96.7213 201.058 96.8045 200.557 96.8045H198.79V96.0974H200.532C200.877 96.0974 201.155 96.0469 201.365 95.9459C201.578 95.8449 201.732 95.7018 201.826 95.5166C201.923 95.3293 201.971 95.1062 201.971 94.8474C201.971 94.5885 201.923 94.3623 201.826 94.1687C201.729 93.9751 201.575 93.8257 201.362 93.7205C201.15 93.6132 200.869 93.5595 200.519 93.5595H199.143V99.3297H198.36ZM201.403 96.4257L202.994 99.3297H202.085L200.519 96.4257H201.403ZM210.081 94.4812C210.044 94.1614 209.89 93.913 209.621 93.7363C209.351 93.5595 209.021 93.4711 208.629 93.4711C208.343 93.4711 208.093 93.5174 207.878 93.61C207.666 93.7026 207.499 93.8299 207.379 93.992C207.262 94.154 207.203 94.3381 207.203 94.5444C207.203 94.7169 207.244 94.8653 207.326 94.9894C207.41 95.1115 207.517 95.2135 207.648 95.2956C207.778 95.3756 207.915 95.4419 208.058 95.4945C208.201 95.545 208.333 95.586 208.453 95.6176L209.109 95.7944C209.278 95.8385 209.465 95.8996 209.671 95.9774C209.879 96.0553 210.078 96.1616 210.268 96.2962C210.459 96.4288 210.617 96.5993 210.741 96.8076C210.865 97.0159 210.927 97.2716 210.927 97.5747C210.927 97.924 210.836 98.2396 210.653 98.5216C210.472 98.8036 210.207 99.0277 209.857 99.194C209.51 99.3602 209.088 99.4433 208.592 99.4433C208.129 99.4433 207.728 99.3686 207.389 99.2192C207.052 99.0698 206.787 98.8615 206.593 98.5942C206.402 98.327 206.294 98.0166 206.268 97.663H207.076C207.097 97.9072 207.18 98.1092 207.323 98.2691C207.468 98.4269 207.651 98.5448 207.872 98.6226C208.095 98.6984 208.335 98.7363 208.592 98.7363C208.89 98.7363 209.159 98.6879 209.396 98.5911C209.634 98.4922 209.823 98.3554 209.961 98.1807C210.1 98.004 210.17 97.7977 210.17 97.562C210.17 97.3474 210.11 97.1727 209.99 97.038C209.87 96.9034 209.712 96.7939 209.516 96.7098C209.321 96.6256 209.109 96.5519 208.882 96.4888L208.086 96.2615C207.581 96.1163 207.182 95.909 206.887 95.6397C206.592 95.3703 206.445 95.0178 206.445 94.5822C206.445 94.2203 206.543 93.9046 206.739 93.6353C206.936 93.3638 207.202 93.1534 207.534 93.0039C207.869 92.8524 208.242 92.7767 208.655 92.7767C209.071 92.7767 209.442 92.8514 209.766 93.0008C210.09 93.1481 210.347 93.3501 210.536 93.6069C210.727 93.8636 210.828 94.155 210.839 94.4812H210.081ZM217.417 94.8853H216.634C216.587 94.6601 216.506 94.4623 216.391 94.2918C216.277 94.1214 216.138 93.9783 215.974 93.8625C215.812 93.7447 215.632 93.6563 215.434 93.5974C215.236 93.5385 215.03 93.509 214.816 93.509C214.424 93.509 214.07 93.6079 213.752 93.8057C213.436 94.0035 213.185 94.295 212.997 94.6801C212.812 95.0652 212.72 95.5376 212.72 96.0974C212.72 96.6571 212.812 97.1296 212.997 97.5147C213.185 97.8998 213.436 98.1912 213.752 98.3891C214.07 98.5869 214.424 98.6858 214.816 98.6858C215.03 98.6858 215.236 98.6563 215.434 98.5974C215.632 98.5385 215.812 98.4511 215.974 98.3354C216.138 98.2175 216.277 98.0734 216.391 97.9029C216.506 97.7304 216.587 97.5326 216.634 97.3095H217.417C217.358 97.6399 217.25 97.9356 217.095 98.1965C216.939 98.4574 216.745 98.6795 216.514 98.8625C216.282 99.0435 216.022 99.1814 215.734 99.2761C215.448 99.3707 215.142 99.4181 214.816 99.4181C214.264 99.4181 213.774 99.2834 213.345 99.0141C212.915 98.7447 212.578 98.3617 212.331 97.8651C212.085 97.3684 211.962 96.7792 211.962 96.0974C211.962 95.4156 212.085 94.8263 212.331 94.3297C212.578 93.8331 212.915 93.4501 213.345 93.1807C213.774 92.9114 214.264 92.7767 214.816 92.7767C215.142 92.7767 215.448 92.824 215.734 92.9187C216.022 93.0134 216.282 93.1523 216.514 93.3354C216.745 93.5164 216.939 93.7373 217.095 93.9983C217.25 94.2571 217.358 94.5528 217.417 94.8853ZM218.947 99.3297H218.126L220.5 92.8651H221.308L223.682 99.3297H222.861L220.929 93.8878H220.878L218.947 99.3297ZM219.25 96.8045H222.558V97.4989H219.25V96.8045ZM229.815 92.8651V99.3297H229.057L225.534 94.2539H225.471V99.3297H224.688V92.8651H225.446L228.981 97.9534H229.045V92.8651H229.815ZM236.507 92.8651V99.3297H235.75L232.227 94.2539H232.164V99.3297H231.381V92.8651H232.139L235.674 97.9534H235.737V92.8651H236.507ZM238.074 99.3297V92.8651H241.975V93.5595H238.857V95.7438H241.773V96.4383H238.857V98.6353H242.026V99.3297H238.074ZM243.386 99.3297V92.8651H245.571C246.076 92.8651 246.49 92.9513 246.814 93.1239C247.139 93.2944 247.378 93.529 247.534 93.8278C247.69 94.1266 247.768 94.4665 247.768 94.8474C247.768 95.2283 247.69 95.566 247.534 95.8606C247.378 96.1553 247.14 96.3867 246.818 96.5551C246.496 96.7213 246.084 96.8045 245.583 96.8045H243.816V96.0974H245.558C245.903 96.0974 246.181 96.0469 246.391 95.9459C246.604 95.8449 246.758 95.7018 246.852 95.5166C246.949 95.3293 246.998 95.1062 246.998 94.8474C246.998 94.5885 246.949 94.3623 246.852 94.1687C246.756 93.9751 246.601 93.8257 246.388 93.7205C246.176 93.6132 245.895 93.5595 245.546 93.5595H244.169V99.3297H243.386ZM246.429 96.4257L248.02 99.3297H247.111L245.546 96.4257H246.429Z" fill="#002923"/>
<path d="M290.241 323.541H154.127C152.544 323.541 151.261 322.258 151.261 320.675C151.261 319.092 152.544 317.809 154.127 317.809H290.241C291.824 317.809 293.107 319.092 293.107 320.675C293.107 322.258 291.824 323.541 290.241 323.541Z" fill="#525252"/>
<path d="M290.241 337.299H154.127C152.544 337.299 151.261 336.016 151.261 334.433C151.261 332.85 152.544 331.567 154.127 331.567H290.241C291.824 331.567 293.107 332.85 293.107 334.433C293.107 336.016 291.824 337.299 290.241 337.299Z" fill="#525252"/>
<path d="M290.241 351.057H154.127C152.544 351.057 151.261 349.774 151.261 348.191C151.261 346.608 152.544 345.325 154.127 345.325H290.241C291.824 345.325 293.107 346.608 293.107 348.191C293.107 349.774 291.824 351.057 290.241 351.057Z" fill="#525252"/>
<path d="M233.537 376.977L222.184 368.728L210.831 376.976H214.407V387.727H218.532V384.649C218.532 382.627 220.163 380.996 222.185 380.996C223.192 380.996 224.104 381.404 224.767 382.067C225.43 382.723 225.838 383.642 225.838 384.649V387.727H229.963V376.977H233.537Z" fill="#002923"/>
<path d="M252.347 70.366H192.022C183.748 70.366 177.041 63.659 177.041 55.385H267.328C267.327 63.658 260.62 70.366 252.347 70.366Z" fill="#002923"/>
<path d="M223.837 62.875C223.837 63.788 223.097 64.528 222.184 64.528C221.271 64.528 220.531 63.788 220.531 62.875C220.531 61.962 221.271 61.222 222.184 61.222C223.097 61.222 223.837 61.962 223.837 62.875Z" fill="white"/>
<path d="M229.34 62.875C229.34 63.788 228.6 64.528 227.687 64.528C226.774 64.528 226.034 63.788 226.034 62.875C226.034 61.962 226.774 61.222 227.687 61.222C228.6 61.222 229.34 61.962 229.34 62.875Z" fill="white"/>
<path d="M215.028 62.875C215.028 63.788 215.768 64.528 216.681 64.528C217.594 64.528 218.334 63.788 218.334 62.875C218.334 61.962 217.594 61.222 216.681 61.222C215.768 61.222 215.028 61.962 215.028 62.875Z" fill="white"/>
<path d="M284.678 66.7169H284.152V65.8799H277.264V69.7069H284.152V68.8699H284.678V66.7169ZM281.497 68.8699V66.7169H283.482V68.8699H281.497Z" fill="#002923"/>
<path d="M157.371 66.0313V69.9615H156.895V66.5303H156.872L155.912 67.1674V66.6838L156.895 66.0313H157.371ZM159.883 66.0313V69.9615H159.407V66.5303H159.384L158.424 67.1674V66.6838L159.407 66.0313H159.883ZM161.118 69.9922C161.024 69.9922 160.943 69.9583 160.875 69.8905C160.807 69.8227 160.773 69.7414 160.773 69.6468C160.773 69.5521 160.807 69.4709 160.875 69.403C160.943 69.3352 161.024 69.3013 161.118 69.3013C161.213 69.3013 161.294 69.3352 161.362 69.403C161.43 69.4709 161.464 69.5521 161.464 69.6468C161.464 69.7095 161.448 69.767 161.416 69.8195C161.385 69.8719 161.344 69.9142 161.291 69.9461C161.24 69.9768 161.182 69.9922 161.118 69.9922ZM163.181 66.0313V69.9615H162.705V66.5303H162.682L161.722 67.1674V66.6838L162.705 66.0313H163.181ZM165.693 66.0313V69.9615H165.217V66.5303H165.194L164.234 67.1674V66.6838L165.217 66.0313H165.693Z" fill="#002923"/>
<path d="M120.692 220.863C117.484 336.382 112.835 397.392 112.835 397.392C108.246 399.608 103.98 400.491 100.068 397.432C93.7913 336.647 91.2363 246.731 90.1562 246.65L92.3282 220.863H120.692Z" fill="#3C495E"/>
<path d="M100.068 397.432C91.3199 403.553 76.8799 401.172 76.8369 408.997C95.7409 411.449 105.385 407.11 105.385 407.11L105.371 409.625L112.003 408.941C112.003 408.941 114.712 402.622 113.058 397.412L100.068 397.432Z" fill="#1B1B28"/>
<path d="M65.491 221.29L92.107 217.832C93.554 226.399 92.635 235.28 92.219 244.612C92.219 244.612 87.967 285.981 88.928 306.579C90.94 323.542 136.035 372.688 136.035 372.688C136.035 378.228 131.407 383.982 126.873 381.898C106.47 366.647 69.561 327.666 66.176 310.135C59.569 262.176 65.491 221.29 65.491 221.29Z" fill="#3C495E"/>
<path d="M126.873 381.897C125.027 392.413 113.142 400.953 118.65 406.51C133.738 394.86 137.48 384.969 137.48 384.969L139.251 386.755L143.451 381.578C143.451 381.578 140.892 375.197 136.036 372.687L126.873 381.897Z" fill="#1B1B28"/>
<path d="M113.132 122.446L115.305 158.428C120.472 165.288 128.837 175.762 132.673 184.191L120.803 226.449L128.886 230.657C128.886 230.657 145.979 191.091 146.188 180.958C146.511 166.886 113.132 122.446 113.132 122.446Z" fill="#E7AC8D"/>
<path d="M120.861 226.279C120.861 226.279 118.399 239.277 125.581 240.229C132.763 241.181 137.009 237.676 136.405 234.51C135.802 231.344 134.388 234.126 134.04 234.569C133.692 235.011 133.909 227.925 132.181 225.972C130.455 224.018 122.271 224.851 120.861 226.279Z" fill="#E7AC8D"/>
<path d="M94.7491 320.446C94.7501 319.806 93.7551 319.805 93.7541 320.446C93.7421 331.015 94.2531 341.581 95.2851 352.1C95.3471 352.732 96.3431 352.738 96.2801 352.1C95.2491 341.581 94.7381 331.015 94.7491 320.446Z" fill="#2C394C"/>
<path d="M91.2568 229.299C91.2458 228.659 90.2498 228.657 90.2618 229.299C90.4028 237.095 90.5438 244.892 90.6848 252.688C90.6958 253.328 91.6918 253.33 91.6798 252.688C91.5388 244.891 91.3978 237.095 91.2568 229.299Z" fill="#2C394C"/>
<path d="M91.0779 251.203C89.3469 250.572 89.0809 248.308 88.8369 246.742C88.5249 244.745 88.4169 242.721 88.3609 240.702C88.2499 236.711 88.2299 232.717 88.1709 228.725C88.1619 228.085 87.1659 228.083 87.1759 228.725C87.2409 233.12 87.2229 237.526 87.4079 241.918C87.4979 244.051 87.6739 246.197 88.1059 248.291C88.4439 249.928 89.1369 251.551 90.8129 252.162C91.4169 252.383 91.6759 251.421 91.0779 251.203Z" fill="#2C394C"/>
<path d="M123.094 222.047C123.094 222.047 105.444 230.887 64.0938 222.147C64.3037 219.327 64.5237 216.457 64.7637 213.557C64.8937 211.907 65.0337 210.247 65.1737 208.587C65.3637 206.377 65.5537 204.147 65.7537 201.907C65.8937 200.247 66.0437 198.587 66.1937 196.927C66.3737 194.937 66.5637 192.957 66.7437 190.977C66.9037 189.327 67.0537 187.677 67.2137 186.037C67.4737 183.327 67.7437 180.637 68.0037 177.987C68.1637 176.317 68.3337 174.657 68.5037 173.027C68.7437 170.607 68.9837 168.237 69.2337 165.907C69.3737 164.537 69.5137 163.177 69.6537 161.847C69.6837 161.547 69.7137 161.257 69.7437 160.967C70.0237 158.407 70.2837 155.927 70.5337 153.537C70.7237 151.837 70.9037 150.177 71.0737 148.577C71.3037 146.537 71.5237 144.577 71.7237 142.727C71.9237 140.977 72.1037 139.327 72.2837 137.767C72.5337 135.517 72.7637 133.477 72.9737 131.667C73.2037 129.717 73.3937 128.037 73.5537 126.667C73.8737 123.957 74.0537 122.447 74.0537 122.447C78.3737 120.477 82.7437 118.997 87.1837 118.167H100.094C104.534 118.827 108.874 120.327 113.134 122.447C113.134 122.447 113.354 123.907 113.744 126.577C113.934 127.927 114.174 129.597 114.444 131.547C114.674 133.197 114.924 135.037 115.194 137.077C115.394 138.627 115.614 140.297 115.834 142.067C116.084 143.947 116.324 145.937 116.584 148.027C116.784 149.617 116.984 151.277 117.184 152.987C117.484 155.537 117.784 158.217 118.104 160.997C118.244 162.347 118.394 163.717 118.554 165.117C118.584 165.407 118.614 165.707 118.644 166.007C118.924 168.637 119.204 171.347 119.474 174.127C119.644 175.757 119.804 177.407 119.964 179.087C120.174 181.277 120.374 183.517 120.574 185.787C120.724 187.417 120.864 189.067 121.004 190.737C121.164 192.607 121.314 194.497 121.464 196.407C121.594 198.067 121.714 199.737 121.844 201.417C122.044 204.177 122.234 206.957 122.414 209.757C122.514 211.407 122.614 213.057 122.704 214.717C122.844 217.147 122.974 219.597 123.094 222.047Z" fill="#D32F56"/>
<path d="M74.0533 122.447L73.8633 126.747L73.6333 131.847L73.3633 138.007L73.1433 143.027L72.8833 148.947L72.6533 153.967L72.3233 161.497L72.2533 163.107L69.6533 161.847L66.0033 160.077H65.9933L51.9033 153.247C51.9033 153.247 52.6933 151.437 54.0633 148.687C54.7033 147.387 55.4733 145.877 56.3433 144.257C57.2233 142.617 58.2033 140.867 59.2733 139.087C60.1233 137.657 61.0333 136.197 61.9733 134.777C63.2433 132.877 64.5833 131.037 65.9633 129.357C67.1633 127.897 68.4033 126.557 69.6533 125.437C71.1133 124.117 72.5933 123.077 74.0533 122.447Z" fill="#D32F56"/>
<path d="M134.234 152.257L127.784 157.547C127.774 157.557 127.764 157.557 127.764 157.557L118.554 165.117L118.544 165.127L115.284 161.647L113.134 159.347V122.447C113.134 122.447 114.414 123.507 116.504 125.717C117.494 126.787 118.684 128.117 120.014 129.737C121.134 131.107 122.354 132.667 123.644 134.447C124.584 135.737 125.554 137.147 126.534 138.657C127.604 140.277 128.694 142.037 129.784 143.917C130.594 145.297 131.404 146.747 132.214 148.277C132.884 149.557 133.564 150.877 134.234 152.257Z" fill="#D32F56"/>
<path d="M120.014 129.737C118.184 130.417 116.324 131.027 114.444 131.547C114.004 131.677 113.574 131.787 113.134 131.897C113.094 131.917 113.044 131.927 113.004 131.937C100.164 135.257 86.4539 135.247 73.6339 131.847C73.4139 131.797 73.1939 131.737 72.9739 131.667C70.6039 131.017 68.2639 130.257 65.9639 129.357C67.1639 127.897 68.4039 126.557 69.6539 125.437C70.9439 125.877 72.2439 126.287 73.5539 126.667C73.6539 126.697 73.7639 126.727 73.8639 126.747C75.6939 127.267 77.5439 127.717 79.4139 128.087C90.5239 130.297 102.214 129.837 113.134 126.757C113.344 126.707 113.544 126.647 113.744 126.577C114.674 126.317 115.594 126.037 116.504 125.717C117.494 126.787 118.684 128.117 120.014 129.737Z" fill="#BC1E4B"/>
<path d="M126.533 138.657C123.043 140.017 119.463 141.157 115.833 142.067C115.063 142.257 114.293 142.447 113.523 142.617C113.393 142.647 113.263 142.677 113.133 142.697C100.013 145.577 86.3034 145.697 73.1434 143.027C72.6734 142.937 72.1934 142.837 71.7234 142.727C67.4934 141.807 63.3334 140.597 59.2734 139.087C60.1234 137.657 61.0334 136.197 61.9734 134.777C65.3434 135.977 68.7934 136.977 72.2834 137.767C72.6434 137.857 73.0034 137.937 73.3634 138.007C73.4634 138.037 73.5634 138.057 73.6634 138.077C86.6834 140.817 100.223 140.597 113.133 137.577C113.823 137.427 114.513 137.257 115.193 137.077C118.053 136.337 120.873 135.467 123.643 134.447C124.583 135.737 125.553 137.147 126.533 138.657Z" fill="#BC1E4B"/>
<path d="M132.213 148.277C128.343 149.827 124.393 151.137 120.363 152.207C119.303 152.487 118.253 152.747 117.183 152.987C115.843 153.307 114.493 153.587 113.133 153.847C99.8135 156.397 85.9935 156.447 72.6535 153.967C71.9435 153.827 71.2435 153.687 70.5335 153.537C64.9235 152.377 59.4135 150.767 54.0635 148.687C54.7035 147.387 55.4735 145.877 56.3435 144.257C61.1335 146.067 66.0635 147.517 71.0735 148.577C71.4335 148.657 71.7835 148.737 72.1435 148.807C72.3935 148.857 72.6335 148.907 72.8835 148.947C86.1135 151.537 99.8935 151.467 113.133 148.787C114.283 148.557 115.433 148.307 116.583 148.027C121.073 146.967 125.483 145.597 129.783 143.917C130.593 145.297 131.403 146.747 132.213 148.277Z" fill="#BC1E4B"/>
<path d="M118.554 165.117C118.584 165.407 118.614 165.707 118.644 166.007C107.874 168.637 96.4439 168.817 85.4339 168.097C79.9839 167.737 74.5639 167.047 69.2339 165.907C69.3739 164.537 69.5139 163.177 69.6539 161.847L66.0039 160.077C67.2439 160.407 68.4839 160.707 69.7439 160.967C70.0239 161.037 70.3039 161.097 70.5839 161.157C71.1639 161.277 71.7439 161.397 72.3239 161.497C82.9039 163.517 93.9339 163.907 104.644 163.117C108.214 162.857 111.784 162.397 115.284 161.647C116.234 161.457 117.174 161.237 118.104 160.997C121.424 160.147 124.664 159.027 127.764 157.557L118.554 165.117Z" fill="#BC1E4B"/>
<path d="M119.964 179.087C119.154 179.217 118.354 179.337 117.544 179.457C101.064 181.797 84.2939 181.317 68.0039 177.987C68.1639 176.317 68.3339 174.657 68.5039 173.027C72.1239 173.787 75.7739 174.427 79.4439 174.887C92.7539 176.547 106.254 176.297 119.474 174.127C119.644 175.757 119.804 177.407 119.964 179.087Z" fill="#BC1E4B"/>
<path d="M121.003 190.737C118.653 191.147 116.283 191.497 113.913 191.807C98.2432 193.847 82.3232 193.517 66.7432 190.977C66.9032 189.327 67.0532 187.677 67.2132 186.037C70.7032 186.627 74.2232 187.097 77.7532 187.437C92.0232 188.817 106.453 188.267 120.573 185.787C120.723 187.417 120.863 189.067 121.003 190.737Z" fill="#BC1E4B"/>
<path d="M121.844 201.417C118.504 202.147 115.134 202.757 111.754 203.227C96.4539 205.367 80.8939 204.937 65.7539 201.907C65.8939 200.247 66.0439 198.587 66.1939 196.927C69.5739 197.637 72.9939 198.217 76.4239 198.637C91.4439 200.477 106.714 199.737 121.464 196.407C121.594 198.067 121.714 199.737 121.844 201.417Z" fill="#BC1E4B"/>
<path d="M122.704 214.717C121.754 214.857 120.814 214.987 119.864 215.107C101.554 217.477 82.9137 216.907 64.7637 213.557C64.8937 211.907 65.0337 210.247 65.1737 208.587C69.3937 209.387 73.6437 210.047 77.9137 210.517C92.7137 212.157 107.694 211.907 122.414 209.757C122.514 211.407 122.614 213.057 122.704 214.717Z" fill="#BC1E4B"/>
<path d="M72.0376 144.309C71.2796 149.251 70.5216 154.192 69.7636 159.134C69.6676 159.76 70.6266 160.03 70.7236 159.398C71.4816 154.456 72.2396 149.515 72.9976 144.573C73.0926 143.947 72.1336 143.677 72.0376 144.309Z" fill="#9E1B47"/>
<path d="M115.607 142.489C115.512 141.858 114.553 142.126 114.647 142.754C115.535 148.668 116.423 154.581 117.31 160.495C117.405 161.126 118.364 160.858 118.27 160.231C117.382 154.316 116.494 148.403 115.607 142.489Z" fill="#9E1B47"/>
<path d="M60.5961 143.736L50.6361 145.416C49.4501 145.616 48.3261 144.816 48.1261 143.63L44.6781 123.185C44.4781 121.999 45.2781 120.875 46.4641 120.675L56.4241 118.996C57.6101 118.796 58.7341 119.595 58.9341 120.782L62.3811 141.227C62.5811 142.412 61.7821 143.536 60.5961 143.736Z" fill="#002923"/>
<path d="M55.058 149.945C55.058 149.945 51.303 152.857 46.696 147.557C42.089 142.257 40.769 140.65 41.537 138.485C42.305 136.32 45.137 130.679 46.557 131.488C47.977 132.297 46.503 134.446 46.503 134.446C46.503 134.446 47.887 133.144 48.9 133.518C49.913 133.892 55.693 136.675 56.132 137.561C56.57 138.448 54.949 139.807 54.949 139.807C54.949 139.807 59.346 146.855 55.058 149.945Z" fill="#E7AC8D"/>
<path d="M48.1867 148.623C48.1867 148.623 32.3487 185.742 42.0227 192.277C48.9617 196.965 67.2167 160.657 67.2167 160.657L55.4587 154.967L55.4947 149.656L48.1867 148.623Z" fill="#E7AC8D"/>
<path d="M55.2617 157.146C55.1537 161.121 55.0457 165.095 54.9367 169.069C54.9197 169.71 55.9147 169.709 55.9317 169.069C56.0397 165.095 56.1477 161.12 56.2567 157.146C56.2747 156.506 55.2797 156.506 55.2617 157.146Z" fill="#CC8769"/>
<path d="M114.095 83.703C108.962 91.865 98.4698 94.419 93.4518 102.615C92.3578 104.403 90.9818 106.414 88.6218 106.37C86.4498 106.329 85.0668 104.385 83.9518 102.777C80.7898 98.219 78.3118 93.195 76.5278 87.946C74.8298 82.95 73.1218 77.182 75.3668 72.076C76.9278 68.525 80.8508 65.999 84.5548 66.792C86.6478 64.686 89.3638 63.276 92.2928 62.787C95.2218 62.298 98.7328 62.815 101.396 64.128C101.403 63.243 101.328 62.332 101.015 61.504C103.561 62.118 106.055 63.487 107.728 65.503C107.757 64.523 107.669 63.697 107.402 62.754C110.048 63.68 112.141 65.873 112.935 68.562C113.389 67.89 113.966 67.18 114.421 66.508C116.626 71.937 117.215 78.742 114.095 83.703Z" fill="#5B3D31"/>
<path d="M84.9832 73.747C90.8082 63.067 111.303 66.713 112.896 75.203C116.173 92.669 113.685 99.839 108.831 103.966C103.213 108.741 99.5472 108.133 99.5472 118.165C97.4232 123.505 89.2722 124.233 86.6422 118.165C86.8042 104.876 82.2432 94.805 82.2432 94.805C82.2432 94.805 82.5812 78.15 84.9832 73.747Z" fill="#E7AC8D"/>
<path d="M87.1664 76.113C90.6864 81.187 97.7654 80.017 97.7654 80.017L93.6794 76.498C93.6794 76.498 103.792 82.485 114.234 80.411C114.234 80.411 115.767 76.579 111.074 70.188C108.072 66.099 99.3434 65.091 91.8994 66.466C84.4554 67.841 81.2194 71.078 80.9774 76.417C80.7344 81.757 80.1924 88.425 80.1924 88.425L83.0814 90.628C87.6114 87.605 87.1664 76.113 87.1664 76.113Z" fill="#5B3D31"/>
<path d="M97.502 90.211C97.502 90.937 98.09 91.525 98.816 91.525C99.542 91.525 100.13 90.937 100.13 90.211C100.13 89.485 99.542 88.897 98.816 88.897C98.09 88.897 97.502 89.486 97.502 90.211Z" fill="#002923"/>
<path d="M98.8164 89.852C98.8164 90.118 99.0324 90.333 99.2974 90.333C99.5634 90.333 99.7784 90.118 99.7784 89.852C99.7784 89.586 99.5634 89.371 99.2974 89.371C99.0314 89.371 98.8164 89.586 98.8164 89.852Z" fill="white"/>
<path d="M107.665 90.211C107.665 90.937 108.253 91.525 108.979 91.525C109.705 91.525 110.293 90.937 110.293 90.211C110.293 89.485 109.705 88.897 108.979 88.897C108.253 88.897 107.665 89.486 107.665 90.211Z" fill="#002923"/>
<path d="M108.979 89.852C108.979 90.118 109.194 90.333 109.46 90.333C109.726 90.333 109.941 90.118 109.941 89.852C109.941 89.586 109.726 89.371 109.46 89.371C109.194 89.371 108.979 89.586 108.979 89.852Z" fill="white"/>
<path d="M106.786 85.067C108.436 83.918 110.581 83.984 112.136 85.329C112.427 85.581 112.478 86.087 112.257 86.415C112.031 86.75 111.602 86.806 111.31 86.553C110.672 86.001 109.858 85.752 109.064 85.81C108.663 85.84 108.266 85.947 107.897 86.131C107.57 86.294 107.253 86.576 106.885 86.365C106.797 86.315 106.722 86.24 106.663 86.152C106.458 85.85 106.472 85.285 106.786 85.067Z" fill="#5B3D31"/>
<path d="M101.663 85.067C99.771 83.918 97.312 83.984 95.529 85.329C95.195 85.581 95.137 86.087 95.391 86.415C95.65 86.75 96.142 86.806 96.477 86.553C97.209 86.001 98.142 85.762 99.05 85.823C99.51 85.854 99.965 85.96 100.389 86.138C100.764 86.296 101.132 86.575 101.55 86.365C101.65 86.315 101.736 86.24 101.805 86.152C102.038 85.85 102.023 85.285 101.663 85.067Z" fill="#5B3D31"/>
<path d="M104.41 97.682C105.127 97.682 105.873 97.525 106.592 97.146C106.928 96.97 107.057 96.555 106.88 96.219C106.704 95.884 106.289 95.754 105.953 95.931C104.215 96.843 102.276 95.905 101.722 95.146C101.499 94.842 101.069 94.773 100.763 94.996C100.457 95.22 100.39 95.649 100.614 95.956C101.267 96.848 102.76 97.682 104.41 97.682Z" fill="#CC8769"/>
<path d="M106.032 93.775C106.106 93.775 106.175 93.726 106.197 93.651C106.522 92.531 106.141 92.15 105.765 92.028C105.383 91.906 104.925 92.004 104.404 92.326C104.324 92.376 104.299 92.481 104.348 92.563C104.399 92.643 104.506 92.667 104.585 92.619C105.015 92.354 105.377 92.265 105.659 92.356C105.997 92.465 106.067 92.869 105.867 93.557C105.841 93.647 105.893 93.743 105.984 93.769C106 93.773 106.017 93.775 106.032 93.775Z" fill="#CC8769"/>
<path d="M77.7481 95.187C79.5051 97.282 82.2771 97.85 83.9401 96.455C85.6031 95.061 85.5271 92.232 83.7701 90.137C82.0131 88.042 79.2411 87.475 77.5781 88.869C75.9151 90.264 75.9911 93.093 77.7481 95.187Z" fill="#E7AC8D"/>
<path d="M78.7255 89.895C79.4725 89.5 80.4685 89.518 81.3885 89.947C81.8475 90.16 82.1795 90.419 82.4065 90.739C82.7065 91.163 82.7895 91.695 82.6235 92.127C82.4755 92.515 82.1655 92.767 81.8925 92.99C81.6945 93.151 81.5075 93.303 81.4015 93.485C81.2395 93.764 81.2805 94.155 81.4975 94.394C81.7145 94.633 82.0985 94.71 82.3925 94.574C82.5655 94.494 82.7685 94.57 82.8485 94.742C82.9275 94.914 82.8535 95.118 82.6805 95.198C82.4925 95.285 82.2875 95.327 82.0825 95.327C81.6745 95.327 81.2665 95.161 80.9895 94.856C80.5725 94.397 80.4965 93.675 80.8095 93.14C80.9775 92.851 81.2335 92.642 81.4595 92.459C81.6855 92.275 81.8995 92.1 81.9835 91.883C82.0675 91.665 82.0135 91.373 81.8465 91.137C81.7795 91.042 81.6875 90.957 81.5865 90.874C81.2455 90.871 80.8185 90.976 80.6035 91.211C80.3605 91.477 80.2465 91.862 80.3045 92.217C80.3355 92.404 80.2085 92.581 80.0215 92.611C80.0025 92.614 79.9845 92.616 79.9655 92.616C79.8005 92.616 79.6545 92.497 79.6275 92.328C79.5335 91.763 79.7095 91.172 80.0965 90.748C80.2405 90.591 80.4215 90.484 80.6105 90.397C80.0425 90.244 79.4825 90.274 79.0475 90.504C78.5105 90.788 78.1045 91.52 78.3815 92.117C78.4605 92.289 78.3855 92.493 78.2135 92.573C78.0415 92.652 77.8375 92.578 77.7575 92.405C77.3545 91.534 77.7985 90.386 78.7255 89.895Z" fill="#CC8769"/>
<path d="M383.968 229.957C380.76 339.914 376.111 397.986 376.111 397.986C371.522 400.096 367.256 400.936 363.344 398.024C361.484 337.299 356.87 254.369 356.87 254.369L355.604 229.957H383.968Z" fill="#E7AC8D"/>
<path d="M376.111 397.987C384.416 403.816 398.198 401.586 398.241 409.034C380.297 411.362 371.155 409.624 371.155 409.624L364.859 408.971C364.859 408.971 361.776 402.984 363.344 398.025L376.111 397.987Z" fill="#1B1B28"/>
<path d="M357.568 229.957C350.454 334.433 348.157 398.006 348.157 398.006C343.568 400.116 340.839 400.936 336.927 398.025C332.189 354.349 327.695 246.82 328.642 236.113L329.187 229.958H357.568V229.957Z" fill="#E7AC8D"/>
<path d="M336.928 398.025C328.73 403.854 313.74 401.586 313.697 409.034C331.408 411.361 340.431 409.622 340.431 409.622L346.645 408.969C346.645 408.969 349.705 402.965 348.157 398.006L336.928 398.025Z" fill="#1B1B28"/>
<path d="M327.37 231.179C327.37 231.179 324.54 284.717 324.081 291.518C324.081 291.518 342.245 295.015 353.571 292.31L356.424 247.026L357.568 291.518C357.568 291.518 370.545 295.609 387.823 292.399L386.37 231.084L327.37 231.179Z" fill="#3C495E"/>
<path d="M322.521 292.635L323.504 283.906C323.504 283.906 343.053 286.549 354.794 285.074L354.487 293.629C354.487 293.629 339.795 295.217 322.521 292.635Z" fill="#2C394C"/>
<path d="M389.584 292.635L388.58 283.906C388.58 283.906 368.634 286.549 356.653 285.074L356.967 293.629C356.967 293.629 371.959 295.217 389.584 292.635Z" fill="#2C394C"/>
<path d="M357.569 138.861L325.539 155.399C321.354 162.899 315.157 174.785 309 181.702L265.551 187.935L264.971 197.029C264.971 197.029 308.07 196.662 317.422 192.756C330.423 187.36 357.569 138.861 357.569 138.861Z" fill="#E7AC8D"/>
<path d="M248.461 197.291C248.941 197.815 249.718 197.705 250.213 197.289C251.805 195.952 253.331 194.541 254.788 193.061C256.571 194.737 258.758 196.023 261.106 196.696C263.45 197.368 266.218 197.225 268.13 195.63C268.312 195.572 268.478 195.473 268.603 195.329C270.13 193.57 270.766 191.236 270.625 188.93C270.496 186.818 269.82 184.857 269.087 182.892C268.935 182.485 268.789 182.074 268.669 181.656C268.61 181.449 268.556 181.24 268.513 181.029C268.495 180.942 268.479 180.855 268.464 180.768C268.46 180.747 268.456 180.707 268.453 180.672C268.437 180.444 268.44 180.221 268.438 179.993C268.438 179.969 268.437 179.951 268.437 179.936C268.44 179.925 268.442 179.914 268.445 179.899C268.466 179.798 268.484 179.697 268.511 179.597C268.533 179.513 268.566 179.432 268.588 179.348C268.603 179.308 268.608 179.292 268.605 179.298C268.63 179.235 268.656 179.172 268.681 179.109C268.78 178.856 268.848 178.601 268.846 178.324C268.842 177.566 268.324 176.887 267.591 176.696C267.02 176.547 266.384 176.697 265.889 176.999C264.968 177.56 264.375 178.631 264.075 179.636C263.662 181.02 263.816 182.423 264.171 183.786C263.832 183.64 263.494 183.495 263.155 183.351C258.161 181.223 253.092 179.22 247.822 177.883C247.219 177.73 246.6 178.052 246.37 178.62C246.153 179.156 246.342 179.892 246.898 180.16L252.575 182.905C253.189 183.202 253.803 183.498 254.414 183.802C251.269 184.068 248.125 184.334 244.98 184.601C244.356 184.654 243.893 184.817 243.811 185.46C243.733 186.074 244.357 186.517 244.955 186.684C247.493 187.393 250.277 187.492 252.897 187.515C250.811 188.558 248.241 190.032 246.106 190.97C245.539 191.219 245.369 191.99 245.581 192.512C245.832 193.127 246.567 193.06 247.184 192.97C248.951 192.712 251.141 191.436 252.846 190.93C251.628 192.126 249.765 194.44 248.456 195.539C247.927 195.985 248.04 196.832 248.461 197.291Z" fill="#E7AC8D"/>
<path d="M342.528 134.219C342.528 134.219 328.515 143.083 319.189 162.955L334.488 175.192L344.686 141.7L342.528 134.219Z" fill="#E09C03"/>
<path d="M386.699 234.607C362.839 241.127 344.219 238.677 327.189 232.587C327.569 228.127 328.009 224.567 329.129 221.317C329.899 219.017 330.799 216.797 331.729 214.307C331.749 214.267 331.759 214.217 331.779 214.177C332.329 212.707 334.109 208.907 334.229 208.517C334.459 207.777 334.799 207.057 334.959 206.317C335.029 206.017 335.099 205.707 335.149 205.397C335.459 203.847 335.639 202.207 335.759 200.677C335.789 200.327 335.809 199.977 335.809 199.637C335.939 196.367 335.589 193.057 335.009 189.797C334.309 185.887 333.289 182.057 332.389 178.467C329.739 167.897 329.739 163.317 332.389 152.747C333.939 146.567 342.529 134.217 342.529 134.217C343.399 133.627 344.329 133.097 345.309 132.637C351.009 129.937 358.329 129.397 364.269 130.947C365.469 131.257 366.629 131.507 367.719 131.827C370.049 132.487 372.889 133.567 374.569 135.617C377.429 139.107 378.819 146.367 379.179 150.847C380.429 166.457 378.259 176.377 378.799 190.127C378.889 192.747 379.089 195.517 379.429 198.487C379.469 198.817 379.509 199.147 379.559 199.467C379.749 200.807 379.989 202.107 380.269 203.377C380.569 204.727 380.899 206.047 381.269 207.367C381.429 207.937 381.599 208.507 381.769 209.087C381.919 209.607 382.079 210.127 382.239 210.657C382.519 211.587 382.799 212.527 383.069 213.477C383.279 214.137 383.469 214.807 383.659 215.487C384.189 217.317 384.669 219.227 385.089 221.247C385.909 225.147 386.699 229.437 386.699 234.607Z" fill="#E19C03"/>
<path d="M333.074 152.13C330.476 157.57 329.471 163.686 330.248 169.67C330.329 170.296 331.325 170.304 331.243 169.67C330.49 163.865 331.41 157.918 333.934 152.633C334.208 152.057 333.35 151.552 333.074 152.13Z" fill="#BA5E20"/>
<path d="M373.629 134.665C373.629 134.665 386.308 146.924 392.74 159.708L380.834 167.625L376.251 164.942L373.917 152.561L373.629 134.665Z" fill="#E09C03"/>
<path d="M371.706 170.758C371.706 170.758 395.961 203.012 406.452 197.893C413.979 194.221 391.632 160.277 391.632 160.277L380.832 167.624L376.249 164.941L371.706 170.758Z" fill="#E7AC8D"/>
<path d="M382.624 168.883C386.014 170.961 389.403 173.039 392.793 175.117C393.339 175.452 393.836 174.59 393.29 174.255C389.901 172.177 386.511 170.099 383.121 168.021C382.575 167.686 382.078 168.548 382.624 168.883Z" fill="#845039"/>
<path d="M377.064 165.38C377.064 165.38 374.934 155.008 372.434 154.543C369.933 154.078 373.616 165.903 373.616 165.903L377.064 165.38Z" fill="#E7AC8D"/>
<path d="M368.189 171.476L358.18 170.12C356.988 169.959 356.152 168.861 356.314 167.669L359.098 147.123C359.259 145.931 360.357 145.095 361.549 145.257L371.558 146.613C372.75 146.774 373.586 147.872 373.424 149.064L370.64 169.61C370.478 170.802 369.381 171.638 368.189 171.476Z" fill="#002923"/>
<path d="M360.387 149.835C358.366 150.868 366.947 158.084 366.947 158.084C366.947 158.084 356.167 154.71 355.543 156.436C354.922 158.153 365.285 161.014 365.285 161.014C365.285 161.014 356.518 159.786 356.433 161.235C356.348 162.685 365.334 164.719 365.334 164.719C365.334 164.719 357.217 164.146 357.166 165.419C357.101 167.067 371.982 170.764 371.982 170.764L376.884 166.278C377.473 163.576 376.1 160.966 373.579 158.41C373.579 158.41 361.858 149.083 360.387 149.835Z" fill="#E7AC8D"/>
<path d="M365.186 79.839C361.217 76.182 355.249 75.1559 350.39 77.2949C347.328 76.7169 343.925 77.2139 341.286 78.9559C338.647 80.6979 336.652 83.5009 335.798 86.6649C332.577 89.8189 330.831 94.809 331.453 99.405C331.471 99.535 331.354 99.8259 331.322 99.9529C327.576 103.766 326.192 109.961 327.928 115.144C326.808 116.892 326.06 119.006 325.964 121.115C325.868 123.224 326.647 125.451 328.275 126.672C329.458 127.559 330.974 127.846 332.42 127.726C333.865 127.606 335.259 127.108 336.606 126.542C338.165 128.569 340.698 129.747 343.165 129.893C345.631 130.039 348.14 129.04 349.903 127.21C351.379 128.926 353.772 129.917 355.96 130.071C358.148 130.225 360.383 129.451 362.061 127.958C363.776 129.505 366.166 130.211 368.415 130.063C370.664 129.915 372.844 128.813 374.366 127.054C375.647 128.801 378.46 129.015 380.31 127.985C382.16 126.955 383.282 124.763 383.428 122.557C383.574 120.351 382.846 118.155 381.723 116.289C382.82 111.476 381.556 105.59 378.406 101.928C378.593 99.688 378.385 97.1559 377.873 94.9739C377.361 92.7919 376.182 90.7009 374.34 89.5789C374.435 87.0969 373.577 84.396 371.907 82.648C370.237 80.9019 367.531 79.711 365.186 79.839Z" fill="#1B1B28"/>
<path d="M365.024 87.0669C359.199 76.3869 338.704 80.0319 337.111 88.5229C333.834 105.989 336.322 113.159 341.177 117.285C346.795 122.06 350.461 121.452 350.461 131.484C352.585 136.824 360.736 137.552 363.366 131.484C363.204 118.195 367.765 108.124 367.765 108.124C367.765 108.124 367.426 91.4709 365.024 87.0669Z" fill="#E7AC8D"/>
<path d="M362.84 89.4339C362.84 89.4339 362.395 100.926 366.926 103.948L369.815 101.745C369.815 101.745 369.272 95.0769 369.03 89.7369C368.787 84.3969 365.551 81.1609 358.108 79.7859C350.665 78.4109 341.935 79.4189 338.933 83.5079C337.135 85.9559 336.251 88.0289 335.845 89.6549C336.787 90.6669 337.97 91.2359 339.348 91.3559C340.725 91.4769 342.142 91.0709 343.245 90.2379C346.094 92.1189 350.175 92.0219 352.917 89.9869C354.156 91.3239 356.025 92.0829 357.846 91.9989C359.665 91.9149 361.728 90.8789 362.84 89.4339Z" fill="#1B1B28"/>
<path d="M352.506 103.532C352.506 104.258 351.918 104.846 351.192 104.846C350.466 104.846 349.878 104.258 349.878 103.532C349.878 102.806 350.466 102.218 351.192 102.218C351.917 102.218 352.506 102.806 352.506 103.532Z" fill="#002923"/>
<path d="M351.191 103.173C351.191 103.439 350.976 103.654 350.711 103.654C350.445 103.654 350.229 103.439 350.229 103.173C350.229 102.907 350.445 102.692 350.711 102.692C350.976 102.692 351.191 102.907 351.191 103.173Z" fill="white"/>
<path d="M342.342 103.532C342.342 104.258 341.754 104.846 341.028 104.846C340.302 104.846 339.714 104.258 339.714 103.532C339.714 102.806 340.302 102.218 341.028 102.218C341.754 102.218 342.342 102.806 342.342 103.532Z" fill="#002923"/>
<path d="M341.027 103.173C341.027 103.439 340.812 103.654 340.546 103.654C340.28 103.654 340.065 103.439 340.065 103.173C340.065 102.907 340.281 102.692 340.546 102.692C340.812 102.692 341.027 102.907 341.027 103.173Z" fill="white"/>
<path d="M343.222 98.388C341.572 97.239 339.427 97.3049 337.872 98.6499C337.581 98.9019 337.53 99.4079 337.751 99.7359C337.977 100.071 338.406 100.127 338.698 99.8739C339.336 99.3219 340.15 99.0729 340.944 99.1309C341.345 99.1609 341.742 99.2679 342.111 99.4519C342.438 99.6149 342.755 99.8969 343.123 99.6859C343.21 99.6359 343.286 99.5619 343.345 99.4729C343.549 99.1699 343.535 98.606 343.222 98.388Z" fill="#1B1B28"/>
<path d="M348.344 98.388C350.236 97.239 352.695 97.3049 354.478 98.6499C354.812 98.9019 354.87 99.4079 354.616 99.7359C354.357 100.071 353.865 100.127 353.53 99.8739C352.798 99.3219 351.866 99.0829 350.957 99.1439C350.497 99.1749 350.042 99.2809 349.618 99.4589C349.243 99.6169 348.875 99.8949 348.457 99.6859C348.357 99.6359 348.271 99.5609 348.202 99.4729C347.969 99.1699 347.985 98.606 348.344 98.388Z" fill="#1B1B28"/>
<path d="M343.975 107.095C343.901 107.095 343.832 107.046 343.81 106.971C343.485 105.851 343.866 105.47 344.242 105.348C344.624 105.226 345.082 105.324 345.603 105.646C345.684 105.696 345.708 105.801 345.659 105.883C345.608 105.963 345.501 105.987 345.422 105.939C344.992 105.674 344.63 105.585 344.348 105.676C344.01 105.785 343.94 106.189 344.14 106.877C344.166 106.967 344.114 107.063 344.023 107.09C344.007 107.093 343.99 107.095 343.975 107.095Z" fill="#845039"/>
<path d="M348.85 108.073C348.359 107.403 347.212 108.201 345.8 108.395C344.388 108.589 343.068 108.129 342.776 108.907C342.406 109.89 343.937 111.998 346.25 111.681C348.564 111.363 349.47 108.92 348.85 108.073Z" fill="#8E4136"/>
<path d="M348.86 109.613C348.41 109.617 347.934 109.646 347.435 109.715C345.792 109.94 344.431 110.471 343.841 111.046C344.454 111.508 345.276 111.814 346.25 111.681C347.641 111.489 348.512 110.531 348.86 109.613Z" fill="#C16B5B"/>
<path d="M345.909 109.188C347.169 109.015 348.199 108.569 348.497 107.835C347.908 107.687 346.941 108.238 345.8 108.394C344.659 108.551 343.579 108.281 343.052 108.582C343.536 109.209 344.648 109.361 345.909 109.188Z" fill="white"/>
<path d="M372.259 108.508C370.502 110.603 367.73 111.171 366.067 109.776C364.404 108.382 364.48 105.553 366.237 103.458C367.994 101.363 370.766 100.795 372.429 102.19C374.092 103.585 374.016 106.413 372.259 108.508Z" fill="#E7AC8D"/>
<path d="M371.283 103.215C370.536 102.82 369.54 102.838 368.62 103.266C368.161 103.479 367.829 103.738 367.602 104.058C367.302 104.482 367.218 105.014 367.385 105.447C367.533 105.835 367.843 106.087 368.116 106.31C368.314 106.471 368.501 106.623 368.607 106.805C368.769 107.084 368.728 107.475 368.511 107.714C368.294 107.953 367.91 108.03 367.616 107.894C367.443 107.814 367.24 107.89 367.16 108.062C367.081 108.234 367.155 108.438 367.328 108.518C367.516 108.605 367.721 108.647 367.926 108.647C368.334 108.647 368.742 108.482 369.02 108.176C369.437 107.717 369.513 106.995 369.2 106.46C369.032 106.171 368.776 105.962 368.55 105.779C368.323 105.595 368.11 105.42 368.026 105.203C367.942 104.985 367.996 104.693 368.163 104.457C368.23 104.362 368.322 104.277 368.423 104.194C368.764 104.191 369.191 104.296 369.406 104.531C369.649 104.797 369.763 105.182 369.705 105.537C369.674 105.724 369.801 105.9 369.988 105.931C370.007 105.934 370.025 105.936 370.044 105.936C370.209 105.936 370.354 105.817 370.382 105.648C370.476 105.083 370.3 104.492 369.913 104.068C369.769 103.911 369.588 103.804 369.399 103.717C369.967 103.564 370.527 103.594 370.962 103.824C371.499 104.108 371.905 104.84 371.628 105.437C371.549 105.609 371.624 105.813 371.796 105.893C371.968 105.972 372.171 105.898 372.252 105.725C372.654 104.855 372.21 103.706 371.283 103.215Z" fill="#845039"/>
</svg>
