<svg width="567" height="399" viewBox="0 0 567 399" fill="none" xmlns="http://www.w3.org/2000/svg">
<path d="M260.057 336.713C243.456 336.762 226.856 337.162 210.286 339.005C204.038 339.699 197.921 341.228 191.659 341.844C179.15 343.076 166.865 345.373 154.313 346.433C144.204 347.286 134.053 347.79 123.974 348.872C114.524 349.887 104.062 349.653 94.6849 347.976C87.7428 346.734 80.7695 346.036 73.944 344.042C66.3089 341.811 58.0137 340.216 50.0589 340.273C38.7148 340.355 27.6676 340.365 16.8111 344.304C13.0003 345.686 8.33514 347.96 5.44113 350.861C-1.18358 357.504 -2.08034 374.079 4.53436 380.969C15.6753 392.565 39.4538 397.114 55.0703 397.329C72.1829 397.565 88.8068 396.294 105.944 395.547C121.869 394.853 137.753 393.866 153.704 393.901C186.282 393.972 218.865 393.901 251.384 391.724C281.936 389.68 312.566 390.382 343.185 390.382C374.584 390.382 405.77 390.629 436.943 394.801C450.525 396.62 464.363 397.256 478.013 398.53C490.238 399.671 501.986 398.507 514.162 397.453C524.387 396.567 534.544 393.941 543.833 389.502C551.185 385.988 564.294 375.072 566.549 366.685C572.87 343.17 477.462 343.736 462.813 343.789C446.425 343.848 429.907 344.387 413.533 343.762C406.645 343.5 399.859 342.153 393.136 340.678C386.44 339.209 379.694 339.582 372.903 338.964C344.586 336.389 316.206 336.766 287.799 336.766C278.554 336.766 269.305 336.685 260.057 336.713Z" fill="#FDFDFD"/>
<path d="M167.829 161.229C167.664 161.246 167.502 161.275 167.341 161.321C165.846 161.745 165.535 163.265 164.36 163.992C163.837 164.316 162.014 164.053 162.202 165.057C162.275 165.426 162.412 166.692 162.63 167.954C162.421 168.998 162.259 170.054 161.954 171.074C161.179 173.655 156.503 178.194 159.193 180.735C159.713 181.227 160.249 181.728 160.907 182.007C161.446 182.236 162.039 182.303 162.622 182.341C163.077 182.37 163.792 182.525 164.127 182.233C164.479 181.926 164.681 180.768 164.851 180.32C165.335 179.04 165.82 177.76 166.305 176.48C166.78 175.224 167.458 173.789 168.776 173.532C169.064 173.475 169.366 173.483 169.644 173.388C169.957 173.281 170.213 173.053 170.453 172.825C171.331 171.986 172.164 171.056 172.825 170.033C174.007 168.203 172.66 165.067 172.032 163.258C171.876 162.807 171.7 162.346 171.364 162.008C170.817 161.458 169.979 161.351 169.207 161.274C168.749 161.227 168.283 161.182 167.829 161.229Z" fill="#E8C5BF"/>
<path d="M150.15 205.86C155.957 200.997 161.091 195.337 165.381 189.096C167.04 186.682 170.219 183.246 168.8 180.155C167.345 176.984 160.604 175.31 157.575 174.636C152.306 183.492 143.249 199.323 130.692 190.41C127.415 188.084 125.009 184.114 121.043 183.466C118.537 183.057 115.929 184.2 114.216 186.075C107.525 193.403 113.867 202.122 119.659 207.575C125.783 213.341 135.618 214.494 143.147 210.727C145.392 209.604 147.422 208.095 149.367 206.507C149.629 206.293 149.89 206.077 150.15 205.86Z" fill="#EBB044"/>
<path d="M111.346 100.459C134.556 100.459 153.372 81.5686 153.372 58.2658C153.372 34.9629 134.556 16.0721 111.346 16.0721C88.1352 16.0721 69.3193 34.9629 69.3193 58.2658C69.3193 81.5686 88.1352 100.459 111.346 100.459Z" fill="#474EBB"/>
<path d="M132.081 67.1757C128.803 67.1757 125.968 69.1029 124.649 71.8827L106.894 69.4768C106.754 66.2554 105.319 63.3649 103.096 61.3129L113.134 46.8135C114.31 47.3134 115.602 47.5901 116.958 47.5901C122.362 47.5901 126.759 43.1958 126.759 37.7952C126.759 32.3941 122.362 28.0004 116.958 28.0004C111.554 28.0004 107.156 32.3947 107.156 37.7952C107.156 40.1069 107.962 42.2337 109.307 43.9106L98.9754 58.8341C97.7536 58.4066 96.4417 58.1734 95.0763 58.1734C88.5534 58.1734 83.2471 63.4768 83.2471 69.995C83.2471 76.5137 88.5534 81.8165 95.0763 81.8165C100.054 81.8165 104.324 78.727 106.067 74.3663L123.981 76.7934C124.649 80.6566 128.027 83.6047 132.081 83.6047C136.613 83.6047 140.301 79.9194 140.301 75.3896C140.301 70.8599 136.613 67.1757 132.081 67.1757Z" fill="white"/>
<path d="M335.123 169.618C335.279 169.575 335.437 169.544 335.6 169.529C337.112 169.386 337.934 170.66 339.261 170.907C339.852 171.016 341.42 170.131 341.603 171.112C341.668 171.475 341.992 172.677 342.24 173.902C342.799 174.78 343.32 175.684 343.961 176.505C345.58 178.582 351.447 181.061 349.897 184.327C349.597 184.959 349.287 185.606 348.786 186.094C348.376 186.493 347.861 186.764 347.342 187.005C346.938 187.192 346.342 187.587 345.933 187.439C345.504 187.284 344.91 186.301 344.596 185.953C343.701 184.959 342.807 183.964 341.912 182.97C341.034 181.994 339.909 180.928 338.618 181.16C338.336 181.211 338.064 181.324 337.777 181.336C337.454 181.35 337.14 181.233 336.841 181.109C335.744 180.657 334.656 180.104 333.691 179.407C331.967 178.158 332.084 174.825 332.014 172.954C331.996 172.489 331.993 172.006 332.18 171.579C332.483 170.884 333.209 170.49 333.885 170.146C334.284 169.942 334.693 169.736 335.123 169.618Z" fill="#E8C5BF"/>
<path d="M367.859 205.895C366.182 205.768 364.482 205.635 362.899 205.069C361.637 204.617 360.487 203.903 359.367 203.166C352.423 198.595 346.196 192.936 340.985 186.458C343.147 183.198 345.96 180.373 349.211 178.198C354.593 182.404 360.311 186.18 366.292 189.479C367.515 190.154 368.766 190.815 370.125 191.139C372.083 191.607 374.132 191.348 376.127 191.087C383.867 190.074 391.606 189.06 399.346 188.047C404.015 187.436 408.859 186.838 413.357 188.233C425.829 192.101 422.784 208.334 410.638 209.274C396.998 210.329 381.537 206.934 367.859 205.895Z" fill="#474EBB"/>
<path d="M104.553 370.76L104.259 374.172L102.007 376.946C102.007 376.946 101.36 381.109 102.591 381.84C103.822 382.572 123.038 384.853 123.038 384.853L125.018 381.899L123.43 378.637L113.274 373.991L109.785 370.117L104.553 370.76Z" fill="#3B455A"/>
<path d="M124.641 363.389L124.347 366.801L122.127 369.578C122.127 369.578 121.485 373.741 122.695 374.471C123.906 375.2 142.809 377.454 142.809 377.454L144.762 374.498L143.204 371.239L133.217 366.608L129.79 362.739L124.641 363.389Z" fill="#3B455A"/>
<path d="M101.52 303.844C103.17 307.316 104.656 310.465 104.925 314.936C105.189 319.334 104.367 323.713 103.744 328.073C101.587 343.166 101.799 358.484 102.015 373.727C107.274 373.956 112.537 374.065 117.8 374.055C118.695 374.053 119.704 373.999 120.3 373.331C120.897 372.662 120.833 371.651 120.734 370.759C119.527 359.928 119.61 348.971 119.774 338.09C119.855 332.73 120.039 328.148 121.137 322.976C122.228 317.837 122.034 312.515 121.681 307.307C120.818 294.553 118.234 282.036 117.522 269.288C117.393 266.976 117.174 264.49 115.678 262.723C113.879 260.599 110.795 260.165 108.011 260.166C100.357 260.17 91.7207 261.377 91.3357 270.659C91.2073 273.753 92.0228 276.802 92.8883 279.775C94.872 286.588 97.0283 293.467 99.7763 300.015C100.347 301.378 100.944 302.631 101.52 303.844Z" fill="#3B455A"/>
<path d="M122.86 297.983C124.433 301.532 125.849 304.75 125.904 309.23C125.958 313.634 124.859 317.968 123.972 322.293C120.904 337.26 120.338 352.57 119.782 367.806C125.355 368.294 130.939 368.663 136.528 368.913C137.479 368.955 138.553 368.951 139.22 368.313C139.888 367.674 139.873 366.662 139.813 365.766C138.913 352.232 137.899 338.654 138.851 325.124C139.216 319.946 139.868 314.788 140.16 309.606C140.728 299.514 139.916 289.41 138.686 279.386C137.929 273.211 139.002 259.993 132.755 256.255C129.927 254.563 126.351 254.313 123.044 254.819C121.358 255.078 119.674 255.531 118.249 256.416C115.502 258.121 114.05 261.251 113.754 264.336C113.458 267.42 114.167 270.506 114.933 273.518C116.688 280.42 118.624 287.397 121.204 294.074C121.742 295.463 122.31 296.743 122.86 297.983Z" fill="#3B455A"/>
<path d="M99.0546 182.488C94.3006 186.034 91.1546 192.151 90.7665 198.5C90.2949 206.207 88.2894 213.952 87.6223 221.69C86.3045 236.979 86.636 252.364 88.459 267.598C88.661 269.285 88.9718 271.167 90.3426 272.169C91.8941 273.304 94.0515 272.789 95.8963 272.246C110.404 267.977 125.269 264.922 140.284 263.124C141.184 263.017 137.341 226.848 136.948 223.537C135.547 211.748 133.339 199.503 125.831 189.856C122.658 185.779 118.658 182.181 113.81 180.398C108.208 178.337 103.06 179.5 99.0546 182.488Z" fill="#EBB044"/>
<path d="M120.747 157.848C120.943 160.96 121.095 164.278 119.539 166.98C118.214 169.281 115.855 170.765 114.042 172.706C112.938 173.889 112.02 175.429 111.814 177.057C111.61 178.665 112.474 180.035 112.464 181.644C112.463 181.795 112.457 181.951 112.385 182.084C112.31 182.226 112.17 182.322 112.029 182.399C111.302 182.793 110.437 182.808 109.61 182.812C108.633 182.818 107.566 182.949 106.598 182.83C105.332 182.675 105.589 182.42 105.47 181.129C105.292 179.206 105.032 177.274 104.411 175.437C103.13 171.647 100.403 168.408 99.6307 164.434C98.7757 160.038 100.053 155.73 101.448 151.549C102.071 149.679 102.756 147.773 104.038 146.275C106.855 142.984 113.461 141.933 116.617 145.296C120.368 149.292 120.414 152.569 120.747 157.848Z" fill="#E8C5BF"/>
<path d="M119.749 155.715C121.794 158.519 122.127 162.476 120.578 165.581C122.955 163.923 124.073 160.968 124.552 158.109C124.815 156.537 124.927 154.93 124.746 153.347C124.176 148.345 120.212 143.724 115.222 143.059C111.922 142.62 111.935 146.828 113.221 148.875C114.913 151.568 117.889 153.165 119.749 155.715Z" fill="#3B455A"/>
<path d="M111.009 140.445C109.16 139.56 107.024 139.509 104.981 139.684C102.182 139.923 96.5522 140.749 93.2271 142.834C91.3524 138.825 85.9406 135.795 81.9914 137.874C79.6786 139.092 78.6782 141.74 79.7457 143.815C80.0125 144.333 80.3928 144.815 80.888 145.205C81.3031 145.532 81.7983 145.794 82.1528 146.165C83.497 147.573 82.2535 149.571 81.2643 151.163C80.1473 152.961 79.3818 154.905 79.0044 156.898C78.7913 158.023 78.7094 159.209 79.2246 160.266C79.7398 161.322 80.9916 162.209 82.3789 162.149C84.8908 162.04 85.3971 159.9 85.5273 157.956C85.6768 155.716 86.0542 153.751 87.0699 151.665C87.4421 150.9 87.9508 150.095 88.7722 149.876C88.9294 149.834 89.0872 149.818 89.2456 149.819C88.6933 151.689 88.3942 153.585 88.6851 155.667C89.2639 159.816 90.7989 163.863 93.339 167.194C95.8797 170.526 99.4491 173.112 103.485 174.234C103.771 171.68 101.078 169.747 100.588 167.225C100.322 165.859 100.743 164.432 101.458 163.239C102.172 162.045 103.164 161.047 104.145 160.061C105.837 158.362 107.529 156.663 109.22 154.964C110.601 153.578 111.994 152.175 113.025 150.513C115.123 147.133 115.026 142.368 111.009 140.445Z" fill="#3B455A"/>
<path d="M256.173 212.76C311.2 212.76 355.808 168.151 355.808 113.124C355.808 58.0968 311.2 13.4884 256.173 13.4884C201.146 13.4884 156.537 58.0968 156.537 113.124C156.537 168.151 201.146 212.76 256.173 212.76Z" fill="#D34E4E"/>
<path d="M336.141 78.6787C331.77 68.1407 325.513 58.6779 317.543 50.5523C309.574 42.4273 300.293 36.047 289.957 31.5903C279.254 26.9746 267.887 24.6346 256.173 24.6346C244.458 24.6346 233.091 26.9752 222.388 31.5903C212.053 36.0476 202.772 42.4273 194.803 50.5523C186.833 58.6779 180.576 68.1407 176.204 78.6787C171.678 89.5911 169.382 101.18 169.382 113.125C169.382 125.069 171.677 136.658 176.204 147.57C180.576 158.108 186.833 167.571 194.803 175.696C202.772 183.821 212.053 190.202 222.388 194.659C233.091 199.274 244.458 201.614 256.173 201.614C267.888 201.614 279.254 199.274 289.957 194.659C300.292 190.201 309.574 183.821 317.543 175.696C325.512 167.571 331.77 158.108 336.141 147.57C340.668 136.658 342.964 125.069 342.964 113.125C342.964 101.181 340.669 89.5911 336.141 78.6787ZM334.229 113.124C334.229 119.637 333.465 126.03 331.984 132.197H305.897C307.459 125.025 308.246 117.737 308.246 110.396C308.246 103.489 307.549 96.7087 306.165 90.1069H330.931C333.104 97.4765 334.229 105.212 334.229 113.124ZM311.367 56.8491C318.363 63.9819 323.866 72.2306 327.719 81.2011H303.846C302.972 78.4031 301.97 75.6428 300.839 72.9254C296.916 63.5074 291.454 54.5916 284.605 46.4265C281.06 42.2018 277.522 38.6254 274.3 35.6837C288.222 39.044 300.996 46.2758 311.367 56.8491ZM260.54 35.8062C264.63 38.8003 271.294 44.2603 277.967 52.2152C284.235 59.6878 289.226 67.8275 292.799 76.4064C293.458 77.9886 294.068 79.5878 294.63 81.2011H260.54V35.8062ZM297.21 90.1069C298.74 96.6833 299.513 103.468 299.513 110.396C299.513 117.742 298.645 125.035 296.927 132.197H260.54V90.1069H297.21ZM213.988 110.396C213.988 103.468 214.76 96.6833 216.29 90.1069H251.805V132.197H216.574C214.856 125.035 213.988 117.742 213.988 110.396ZM251.805 36.6776V81.2017H218.87C219.411 79.6502 219.995 78.1122 220.625 76.5902C224.165 68.0383 229.112 59.9197 235.329 52.4601C241.445 45.1217 247.622 39.8537 251.805 36.6776ZM200.979 56.8491C211.731 45.886 225.069 38.5159 239.59 35.3292C236.265 38.3363 232.583 42.0305 228.895 46.4265C222.046 54.5916 216.584 63.5074 212.661 72.9254C211.53 75.6428 210.528 78.4031 209.654 81.2011H184.627C188.48 72.2312 193.983 63.9819 200.979 56.8491ZM181.414 90.1069H207.335C205.952 96.7081 205.254 103.489 205.254 110.396C205.254 117.737 206.042 125.025 207.604 132.197H180.361C178.879 126.03 178.116 119.636 178.116 113.124C178.116 105.212 179.242 97.4765 181.414 90.1069ZM200.979 169.399C192.969 161.233 186.915 151.604 183.056 141.103H209.963C210.755 143.637 211.644 146.153 212.633 148.648C216.532 158.48 221.96 167.995 228.766 176.931C233.212 182.768 237.646 187.575 241.449 191.302C226.207 188.352 212.188 180.829 200.979 169.399ZM235.664 171.468C229.352 163.181 224.328 154.38 220.731 145.31C220.177 143.915 219.659 142.512 219.173 141.104H251.806V188.886C247.651 185.211 241.658 179.337 235.664 171.468ZM260.54 189.885V141.103H294.328C293.861 142.456 293.364 143.804 292.835 145.145C289.267 154.189 284.279 162.968 278.012 171.237C271.407 179.952 264.735 186.279 260.54 189.885ZM311.367 169.399C300.515 180.464 287.03 187.868 272.354 191.007C276.089 187.321 280.406 182.614 284.735 176.931C291.541 167.995 296.969 158.48 300.868 148.648C301.857 146.153 302.746 143.637 303.538 141.103H329.291C325.43 151.604 319.377 161.232 311.367 169.399Z" fill="white"/>
<path d="M469.612 369.116C468.654 370.241 467.453 371.068 466.377 372.05C462.462 368.84 458.883 365.59 455.711 361.555C458.628 361.209 459.206 358.68 462.571 361.376C463.659 362.25 467.73 367.874 469.612 369.116Z" fill="#E8C5BF"/>
<path d="M464.013 370.502C463.279 371.066 463.217 371.738 463.218 372.561C463.219 373.039 463.395 373.525 463.279 373.995C463.163 374.465 462.915 374.805 462.612 375.213C461.015 377.364 456.798 381.829 462.297 382.413C467.29 382.942 471.412 376.024 473.668 371.914C473.816 371.643 473.996 371.379 473.972 371.06C473.949 370.742 473.804 370.41 473.614 370.11C472.556 368.443 471.276 366.316 469.109 367.509C468.184 368.019 468.054 369.144 467.07 369.68C466.265 370.118 464.748 369.937 464.013 370.502Z" fill="#3B455A"/>
<path d="M448.657 285.83C449.283 295.757 440.486 310.28 443.022 318.373C448.327 335.301 453.89 344.977 463.57 358.387C464.261 359.346 466.551 361.488 467.538 362.701C465.169 365.795 462.424 367.966 459.361 370.575C445.174 358.472 432.513 350.643 423.352 332.148C416.111 317.528 413.562 293.795 409.792 276.549C409.167 273.693 408.219 269.575 410.109 266.976C411.559 264.982 413.604 264.111 416.193 263.484C423.121 261.807 432.594 258.176 439.098 262.55C446.208 267.333 448.176 278.202 448.657 285.83Z" fill="#8EC3CB"/>
<path d="M383.899 378.303C382.406 378.611 380.902 378.461 379.407 378.624C378.207 373.416 377.261 368.311 377.195 362.891C379.82 364.612 381.809 362.995 382.818 367.423C383.144 368.856 383.069 376.062 383.899 378.303Z" fill="#E8C5BF"/>
<path d="M378.46 375.844C377.525 375.845 377.06 376.389 376.543 377.029C376.243 377.401 376.097 377.928 375.747 378.256C375.397 378.583 374.977 378.683 374.479 378.807C371.855 379.457 365.73 380.387 369.727 384.277C373.355 387.811 380.888 384.918 385.248 383.09C385.534 382.97 385.851 382.87 386.038 382.605C386.227 382.341 386.309 381.979 386.35 381.628C386.582 379.678 386.899 377.094 384.446 376.68C383.399 376.503 382.522 377.314 381.401 377.114C380.484 376.949 379.395 375.843 378.46 375.844Z" fill="#3B455A"/>
<path d="M422.925 299.927C415.745 307.096 395.194 312.36 391.85 320.613C390.508 323.923 386.095 348.407 385.423 365.645C385.375 366.877 385.939 370.089 385.952 371.717C382.122 372.815 378.679 372.585 374.551 372.875C371.535 353.012 368.409 318.226 368.409 318.226C372.494 300.854 392.208 280.933 403.148 265.282C404.96 262.69 407.079 259.14 410.331 258.704C412.826 258.369 414.795 259.251 417.037 260.709C423.038 264.611 432.218 268.958 433.548 276.732C435.002 285.231 428.443 294.418 422.925 299.927Z" fill="#8EC3CB"/>
<path d="M419.839 192.172C426.439 197.969 431.922 206.184 435.784 215.16C442.624 231.055 445.24 249.228 447.761 267.048C448.6 272.979 449.438 278.91 450.278 284.84C451.104 290.675 450.898 292.03 446.12 292.458C437.265 293.253 427.929 293.138 419.359 289.926C415.281 288.397 411.356 286.152 407.17 285.198C401.082 283.81 395.425 286.597 389.536 286.19C390.149 279.958 391.539 274.053 391.677 267.645C391.814 261.231 391.408 254.814 390.846 248.444C389.864 237.312 389.352 226.126 388.436 215.019C387.779 207.064 386.125 200.835 391.552 194.115C394.506 190.456 399.922 184.102 404.82 184.188C410.018 184.279 416.15 188.932 419.839 192.172Z" fill="#474EBB"/>
<path d="M390.991 181.753C392.801 183.463 395.079 184.578 397.138 185.979C399.141 187.343 400.273 188.851 401.481 190.884C402.353 192.352 403.407 193.348 405.4 192.853C409.159 191.919 406.953 189.394 406.896 186.931C406.831 184.115 408.017 181.389 408.51 178.652C409.934 170.745 403.761 158.755 394.425 159.442C384.219 160.194 385.498 176.562 390.991 181.753Z" fill="#E8C5BF"/>
<path d="M403.144 168.13C404.167 168.79 404.73 170.219 404.163 171.296C403.859 171.872 403.298 172.271 402.95 172.823C401.929 174.438 403.117 176.586 404.612 177.776C406.108 178.965 407.984 179.787 408.993 181.41C414.082 177.288 417.975 171.314 418.331 164.775C418.588 160.055 416.709 155.138 413.195 151.942C409.07 148.191 404.899 148.397 399.53 147.939C397.321 147.751 395.047 147.568 392.925 148.213C390.993 148.8 389.314 150.037 387.4 150.683C384.232 151.753 380.207 151.365 378.166 154.014C376.985 155.547 376.914 157.724 377.566 159.545C378.219 161.367 379.501 162.891 380.859 164.269C382.686 166.124 384.702 167.794 386.864 169.245C385.837 168.555 389.395 164.588 390.206 164.414C392.121 164.003 395.154 166.178 397.116 166.647C399.004 167.097 401.472 167.052 403.144 168.13Z" fill="#3B455A"/>
<path d="M263.828 160.881L294.8 289.024L319.964 263.691L349.881 302.721L364.16 291.775L378.44 280.83L348.523 241.8L379.524 224.082L263.828 160.881Z" fill="#3B455A"/>
<path d="M380.431 278.814C377.066 274.424 373.701 270.033 370.336 265.643C364.967 258.639 359.599 251.635 354.23 244.631C353.287 243.4 352.343 242.17 351.4 240.939C360.059 235.99 368.717 231.041 377.377 226.093C378.669 225.354 379.962 224.615 381.254 223.877C382.178 223.349 381.75 222.066 381.002 221.657C377.159 219.558 373.316 217.459 369.473 215.36C360.247 210.32 351.021 205.28 341.795 200.241C330.677 194.167 319.558 188.093 308.44 182.02C298.825 176.767 289.21 171.515 279.594 166.263C276.403 164.519 273.211 162.776 270.02 161.032C268.525 160.216 267.048 159.291 265.506 158.566C265.438 158.534 265.372 158.493 265.306 158.457C264.809 158.185 264.364 158.285 264.047 158.56C263.627 158.759 263.352 159.177 263.499 159.787C264.528 164.043 265.557 168.3 266.585 172.556C269.055 182.775 271.525 192.993 273.995 203.211C276.971 215.526 279.948 227.84 282.924 240.155C285.498 250.805 288.072 261.455 290.646 272.104C291.904 277.305 293.147 282.51 294.418 287.708C294.436 287.782 294.454 287.856 294.471 287.93C294.745 289.062 295.939 289.424 296.768 288.589C304.107 281.201 311.446 273.813 318.785 266.424C319.453 265.751 320.121 265.078 320.789 264.406C323.853 268.403 326.917 272.399 329.98 276.396C335.349 283.4 340.717 290.404 346.086 297.408C347.324 299.024 348.563 300.639 349.801 302.255C350.222 302.804 351.051 302.946 351.612 302.516C359.191 296.706 366.771 290.896 374.35 285.087C376.29 283.599 378.23 282.112 380.17 280.625C380.72 280.203 380.861 279.375 380.431 278.814ZM355.883 295.982C354.28 297.21 352.679 298.438 351.077 299.665C347.977 295.622 344.877 291.577 341.777 287.532C336.408 280.529 331.04 273.525 325.671 266.521C324.433 264.906 323.194 263.29 321.956 261.674C321.406 260.956 320.491 261.057 319.908 261.644C312.569 269.032 305.231 276.42 297.892 283.808C297.415 284.287 296.94 284.767 296.463 285.246C295.627 281.786 294.791 278.327 293.955 274.867C291.485 264.649 289.015 254.43 286.545 244.212C283.569 231.897 280.592 219.582 277.616 207.268C275.042 196.618 272.468 185.968 269.894 175.319C268.834 170.934 267.781 166.548 266.716 162.165C269.741 163.817 272.765 165.469 275.79 167.121C285.016 172.161 294.242 177.2 303.468 182.241C314.586 188.314 325.705 194.388 336.823 200.461C346.438 205.714 356.053 210.966 365.669 216.219C368.86 217.962 372.052 219.706 375.243 221.449C376.062 221.896 376.897 222.432 377.748 222.923C369.359 227.717 360.97 232.512 352.581 237.306C351.289 238.045 349.996 238.784 348.703 239.523C348.1 239.867 348.058 240.833 348.442 241.333C351.808 245.724 355.173 250.114 358.538 254.504C363.907 261.508 369.275 268.512 374.644 275.516C375.623 276.794 376.602 278.071 377.581 279.349C370.349 284.893 363.116 290.438 355.883 295.982Z" fill="white"/>
<path d="M334.659 263.206C334.702 263.05 334.756 262.898 334.826 262.751C335.479 261.38 336.996 261.329 337.888 260.316C338.286 259.865 338.33 258.065 339.266 258.411C339.61 258.542 340.808 258.881 341.988 259.297C343.027 259.267 344.071 259.284 345.104 259.155C347.718 258.831 352.856 255.068 354.864 258.075C355.253 258.657 355.649 259.254 355.81 259.935C355.942 260.491 355.911 261.072 355.851 261.641C355.805 262.085 355.838 262.799 355.501 263.074C355.148 263.362 353.999 263.368 353.54 263.458C352.228 263.716 350.914 263.973 349.602 264.231C348.314 264.484 346.822 264.902 346.358 266.13C346.256 266.398 346.214 266.69 346.077 266.942C345.923 267.227 345.662 267.436 345.402 267.629C344.451 268.338 343.418 268.989 342.324 269.459C340.368 270.298 337.567 268.487 335.926 267.587C335.517 267.363 335.101 267.117 334.831 266.738C334.39 266.121 334.424 265.297 334.476 264.54C334.506 264.092 334.539 263.635 334.659 263.206Z" fill="#E8C5BF"/>
<path d="M382.593 253.726C381.624 255.099 380.637 256.491 379.339 257.559C378.304 258.41 377.1 259.031 375.893 259.614C368.407 263.229 360.354 265.669 352.119 266.816C350.431 263.288 349.45 259.424 349.252 255.518C355.623 253.056 361.798 250.087 367.699 246.646C368.905 245.943 370.115 245.209 371.091 244.209C372.497 242.769 373.326 240.877 374.126 239.03C377.228 231.868 380.331 224.705 383.432 217.543C385.304 213.221 387.276 208.757 390.782 205.613C400.503 196.894 412.872 207.837 407.445 218.744C401.352 230.991 390.505 242.519 382.593 253.726Z" fill="#474EBB"/>
<path d="M409.347 104.004C438.067 104.004 461.349 80.722 461.349 52.002C461.349 23.2821 438.067 0 409.347 0C380.627 0 357.345 23.2821 357.345 52.002C357.345 80.722 380.627 104.004 409.347 104.004Z" fill="#52C990"/>
<path d="M445.783 45.3007C441.929 38.6813 433.992 35.5442 426.759 37.5361C426.746 37.5396 426.732 37.5402 426.719 37.5426C424.496 38.3716 422.639 39.9814 421.839 42.5216C421.664 43.0798 420.804 42.8407 420.981 42.279C421.837 39.5563 423.761 37.7852 426.092 36.8289C423.544 28.6003 415.788 22.7723 407.268 23.4205C398.882 24.0582 392.069 30.5905 390.448 38.9699C391.153 39.1412 391.844 39.3791 392.515 39.6923C395.182 40.9388 397.252 43.0874 398.725 45.6605C399.017 46.1693 398.247 46.6291 397.957 46.1215C397.472 45.2748 396.908 44.4746 396.269 43.7439C393.895 41.0301 390.503 39.4138 386.927 39.5775C383.314 39.743 379.421 41.7231 376.988 44.4323C374.201 47.5371 372.698 51.7353 373.07 55.9653C373.435 60.117 375.54 63.9879 378.804 66.4832C381.83 68.7979 385.35 69.8501 389.091 69.9961C391.544 70.0921 394 70.128 396.454 70.1615C403.47 70.2593 410.487 70.2875 417.504 70.3064C420.586 70.3146 423.669 70.3193 426.752 70.3217C429.283 70.3235 431.948 70.5313 434.443 70.0379C442.601 68.4245 448.775 60.7512 447.962 52.1009C447.736 49.7027 446.987 47.3692 445.783 45.3007Z" fill="white"/>
<path d="M220.862 271.264C236.329 255.797 236.329 230.72 220.862 215.253C205.396 199.786 180.319 199.786 164.852 215.253C149.385 230.72 149.385 255.797 164.852 271.264C180.319 286.731 205.396 286.731 220.862 271.264Z" fill="#52C990"/>
<path d="M221.049 229.615C219.53 226.972 216.665 225.366 213.636 225.331C212.958 225.323 212.28 225.331 211.601 225.331C208.074 225.331 204.546 225.331 201.018 225.331C198.379 225.331 195.739 225.321 193.1 225.331C190.726 225.34 188.384 226.259 186.755 228.016C185.171 229.724 184.475 231.846 184.432 234.132C183.003 234.132 181.574 234.132 180.145 234.132C177.506 234.132 174.867 234.122 172.227 234.132C169.853 234.141 167.512 235.06 165.882 236.817C164.246 238.581 163.551 240.784 163.551 243.156C163.551 244.867 163.551 246.579 163.551 248.29C163.551 249.837 163.439 251.449 163.807 252.964C164.524 255.92 166.929 258.347 169.858 259.139C170.987 259.444 172.121 259.437 173.275 259.437C179.596 259.437 185.919 259.437 192.24 259.437C192.415 259.437 192.59 259.437 192.765 259.437C195.865 259.395 198.841 257.707 200.298 254.932C200.805 253.965 201.058 252.98 201.187 251.97L201.191 251.972L201.193 251.916C201.245 251.494 201.278 251.067 201.294 250.636C201.58 250.636 201.867 250.636 202.154 250.636C205.807 250.636 209.46 250.636 213.113 250.636C213.288 250.636 213.463 250.636 213.637 250.636C216.738 250.594 219.714 248.906 221.171 246.131C222.09 244.38 222.189 242.572 222.189 240.655C222.189 238.825 222.189 236.995 222.189 235.165C222.188 233.217 222.05 231.359 221.049 229.615ZM193.431 238.02C193.446 238.023 193.461 238.026 193.48 238.03C193.706 238.079 193.929 238.126 194.15 238.192C194.258 238.225 194.365 238.266 194.474 238.298C194.511 238.309 194.54 238.318 194.565 238.324C194.585 238.335 194.609 238.348 194.639 238.364C194.888 238.494 195.135 238.62 195.372 238.773C195.401 238.791 195.604 238.938 195.643 238.96C195.689 238.998 195.736 239.036 195.781 239.076C196.053 239.315 196.303 239.576 196.532 239.856C196.535 239.86 196.538 239.863 196.541 239.866C196.552 239.886 196.565 239.908 196.581 239.933C196.667 240.078 196.764 240.214 196.847 240.36C196.91 240.468 197.181 241.082 197.11 240.873C197.2 241.121 197.281 241.371 197.343 241.628C197.371 241.744 197.395 241.861 197.417 241.978C197.41 241.964 197.448 242.257 197.452 242.325C197.517 243.551 197.461 244.792 197.461 246.018C197.461 246.273 197.461 246.526 197.461 246.781C197.33 246.781 197.198 246.781 197.066 246.781C196.994 246.781 196.922 246.781 196.849 246.781C195.733 246.781 194.616 246.781 193.499 246.781C193.325 246.781 193.15 246.782 192.976 246.781C192.772 246.778 192.57 246.768 192.367 246.751C192.465 246.75 191.868 246.651 191.753 246.621C191.588 246.576 191.428 246.516 191.264 246.467C191.238 246.46 191.217 246.454 191.197 246.448C191.19 246.445 191.184 246.442 191.175 246.437C190.842 246.281 190.54 246.089 190.225 245.901C190.2 245.886 190.146 245.847 190.11 245.821C190.015 245.743 189.922 245.661 189.832 245.578C189.627 245.388 189.443 245.183 189.258 244.974C189.236 244.951 189.219 244.931 189.204 244.915C189.192 244.893 189.177 244.867 189.156 244.832C189.099 244.736 189.032 244.645 188.974 244.55C188.887 244.407 188.805 244.26 188.729 244.11C188.694 244.041 188.661 243.97 188.628 243.899C188.625 243.891 188.622 243.884 188.619 243.874C188.515 243.576 188.421 243.278 188.355 242.97C188.343 242.911 188.333 242.852 188.322 242.793C188.326 242.783 188.288 242.482 188.286 242.441C188.276 242.253 188.277 242.067 188.276 241.88C188.273 240.581 188.276 239.283 188.276 237.984C189.402 237.984 190.528 237.984 191.654 237.984C191.974 237.984 192.295 237.983 192.615 237.984C192.663 237.984 192.71 237.984 192.758 237.984C192.984 237.988 193.207 237.999 193.431 238.02ZM197.44 251.419C197.44 251.442 197.439 251.462 197.439 251.481C197.436 251.491 197.434 251.502 197.432 251.516C197.363 251.886 197.255 252.235 197.148 252.596C197.141 252.621 197.12 252.674 197.104 252.715C197.049 252.832 196.992 252.948 196.93 253.062C196.822 253.262 196.7 253.451 196.573 253.639C196.565 253.644 196.399 253.872 196.371 253.904C196.297 253.987 196.222 254.068 196.144 254.148C196.027 254.267 195.907 254.382 195.782 254.492C195.731 254.537 195.678 254.58 195.626 254.623C195.614 254.631 195.6 254.641 195.581 254.655C195.324 254.826 195.066 254.989 194.791 255.129C194.738 255.156 194.684 255.18 194.631 255.206C194.599 255.214 194.347 255.313 194.313 255.325C194.038 255.414 193.761 255.477 193.48 255.538C193.442 255.546 193.411 255.553 193.386 255.56C193.362 255.56 193.333 255.56 193.298 255.562C193.12 255.568 192.942 255.581 192.763 255.583C187.168 255.583 181.572 255.583 175.976 255.583C174.86 255.583 173.743 255.583 172.627 255.583C172.452 255.583 172.278 255.585 172.103 255.583C171.899 255.581 171.697 255.57 171.494 255.553C171.593 255.552 170.995 255.453 170.88 255.423C170.715 255.378 170.555 255.318 170.391 255.27C170.365 255.262 170.344 255.256 170.324 255.25C170.317 255.247 170.311 255.244 170.302 255.24C169.969 255.084 169.667 254.891 169.352 254.703C169.328 254.688 169.273 254.649 169.237 254.623C169.142 254.545 169.049 254.464 168.959 254.381C168.754 254.19 168.57 253.985 168.385 253.776C168.364 253.753 168.347 253.733 168.331 253.718C168.319 253.695 168.304 253.669 168.283 253.634C168.226 253.539 168.159 253.447 168.102 253.352C168.015 253.208 167.932 253.062 167.856 252.912C167.821 252.843 167.788 252.771 167.755 252.701C167.753 252.692 167.75 252.685 167.746 252.675C167.641 252.378 167.548 252.08 167.482 251.771C167.47 251.713 167.46 251.654 167.449 251.595C167.453 251.585 167.415 251.284 167.413 251.243C167.403 251.055 167.404 250.869 167.403 250.682C167.4 249.17 167.403 247.658 167.403 246.146C167.403 244.934 167.37 243.717 167.406 242.504C167.409 242.385 167.42 242.267 167.425 242.149C167.426 242.111 167.426 242.08 167.426 242.056C167.433 242.032 167.44 242.003 167.448 241.967C167.513 241.687 167.572 241.408 167.661 241.135C167.674 241.097 167.79 240.804 167.78 240.814C167.817 240.737 167.856 240.659 167.896 240.582C167.961 240.458 168.029 240.336 168.102 240.217C168.132 240.168 168.362 239.84 168.368 239.817C168.516 239.638 168.673 239.465 168.839 239.303C168.939 239.206 169.044 239.116 169.147 239.022C169.175 238.997 169.235 238.952 169.283 238.917C169.492 238.775 169.703 238.637 169.926 238.517C170.032 238.459 170.14 238.405 170.249 238.354C170.221 238.374 170.571 238.238 170.634 238.218C170.905 238.133 171.181 238.068 171.46 238.018C171.5 238.013 171.544 238.007 171.567 238.007C171.746 238.001 171.923 237.987 172.102 237.986C172.143 237.985 172.185 237.986 172.226 237.986C172.534 237.984 172.842 237.986 173.15 237.986C174.448 237.986 175.747 237.986 177.046 237.986C179.505 237.986 181.964 237.986 184.423 237.986C184.423 238.013 184.423 238.04 184.423 238.067L184.407 238.068V238.317L184.423 238.321C184.423 238.71 184.423 239.1 184.423 239.489C184.423 241.036 184.31 242.648 184.678 244.163C185.395 247.119 187.801 249.546 190.729 250.338C191.859 250.644 192.994 250.636 194.147 250.636C195.12 250.636 196.093 250.636 197.066 250.636C197.198 250.636 197.33 250.636 197.461 250.636V250.637C197.461 250.72 197.462 250.802 197.461 250.885C197.459 251.064 197.446 251.241 197.44 251.419ZM218.334 237.218C218.334 238.758 218.337 240.297 218.334 241.835C218.334 241.918 218.336 242.001 218.334 242.084C218.332 242.263 218.319 242.44 218.313 242.618C218.313 242.641 218.312 242.661 218.311 242.68C218.309 242.69 218.307 242.701 218.304 242.715C218.235 243.085 218.128 243.435 218.021 243.795C218.013 243.821 217.992 243.873 217.976 243.914C217.922 244.031 217.864 244.147 217.803 244.261C217.695 244.461 217.573 244.65 217.446 244.838C217.438 244.844 217.272 245.071 217.244 245.103C217.17 245.186 217.095 245.267 217.017 245.347C216.901 245.466 216.78 245.581 216.655 245.691C216.604 245.736 216.551 245.779 216.499 245.822C216.487 245.83 216.474 245.84 216.454 245.854C216.198 246.025 215.939 246.188 215.664 246.329C215.612 246.355 215.557 246.379 215.504 246.404C215.472 246.412 215.221 246.512 215.186 246.523C214.912 246.613 214.634 246.675 214.353 246.737C214.315 246.745 214.284 246.752 214.26 246.758C214.236 246.758 214.207 246.759 214.171 246.76C213.993 246.766 213.816 246.779 213.637 246.781C209.809 246.781 205.981 246.781 202.153 246.781C201.874 246.781 201.595 246.781 201.315 246.781C201.315 245.842 201.315 244.904 201.315 243.964C201.315 242.017 201.178 240.158 200.176 238.415C198.657 235.772 195.792 234.166 192.763 234.131C192.085 234.124 191.407 234.131 190.729 234.131C189.911 234.131 189.094 234.131 188.277 234.131C188.279 233.989 188.276 233.845 188.28 233.703C188.284 233.584 188.295 233.466 188.299 233.348C188.3 233.309 188.301 233.279 188.301 233.254C188.307 233.23 188.314 233.202 188.323 233.166C188.388 232.885 188.446 232.607 188.536 232.333C188.548 232.295 188.665 232.003 188.654 232.013C188.691 231.935 188.729 231.857 188.77 231.781C188.835 231.657 188.904 231.535 188.976 231.415C189.006 231.366 189.236 231.039 189.242 231.016C189.39 230.836 189.547 230.664 189.713 230.502C189.812 230.405 189.918 230.314 190.021 230.22C190.048 230.195 190.109 230.15 190.156 230.116C190.365 229.973 190.577 229.836 190.799 229.715C190.905 229.658 191.013 229.604 191.123 229.553C191.095 229.573 191.445 229.437 191.508 229.417C191.778 229.332 192.055 229.267 192.334 229.216C192.373 229.211 192.417 229.206 192.441 229.205C192.619 229.199 192.796 229.186 192.975 229.184C193.017 229.184 193.058 229.184 193.1 229.184C193.408 229.183 193.716 229.184 194.023 229.184C195.322 229.184 196.621 229.184 197.92 229.184C201.474 229.184 205.027 229.184 208.581 229.184C209.897 229.184 211.212 229.184 212.528 229.184C212.848 229.184 213.169 229.183 213.49 229.184C213.537 229.184 213.585 229.184 213.633 229.184C213.858 229.186 214.081 229.198 214.305 229.218C214.32 229.222 214.335 229.225 214.354 229.229C214.579 229.277 214.803 229.325 215.023 229.391C215.132 229.424 215.239 229.464 215.348 229.497C215.385 229.508 215.414 229.516 215.439 229.523C215.459 229.534 215.483 229.547 215.513 229.563C215.762 229.693 216.009 229.819 216.246 229.972C216.275 229.99 216.478 230.137 216.517 230.159C216.563 230.197 216.61 230.235 216.655 230.275C216.926 230.514 217.177 230.775 217.406 231.055C217.409 231.059 217.412 231.062 217.415 231.065C217.426 231.085 217.439 231.107 217.455 231.132C217.541 231.276 217.638 231.413 217.722 231.559C217.784 231.667 218.056 232.281 217.985 232.072C218.075 232.32 218.155 232.57 218.218 232.827C218.246 232.943 218.27 233.06 218.291 233.177C218.284 233.163 218.323 233.456 218.326 233.524C218.39 234.751 218.334 235.992 218.334 237.218Z" fill="white"/>
<path d="M459.278 160.496C472.826 160.496 483.809 149.513 483.809 135.965C483.809 122.416 472.826 111.433 459.278 111.433C445.729 111.433 434.746 122.416 434.746 135.965C434.746 149.513 445.729 160.496 459.278 160.496Z" fill="#EBB044"/>
<path d="M162.268 253.539C162.244 253.379 162.209 253.221 162.158 253.067C161.681 251.625 160.183 251.385 159.424 250.269C159.085 249.772 159.265 247.981 158.293 248.207C157.935 248.294 156.705 248.482 155.482 248.747C154.454 248.587 153.416 248.474 152.408 248.218C149.855 247.571 145.226 243.196 142.858 245.929C142.4 246.458 141.933 247.002 141.688 247.657C141.487 248.193 141.447 248.773 141.434 249.345C141.425 249.791 141.304 250.495 141.603 250.81C141.918 251.14 143.057 251.289 143.502 251.436C144.772 251.855 146.043 252.274 147.313 252.694C148.559 253.105 149.988 253.706 150.295 254.981C150.362 255.26 150.367 255.555 150.472 255.822C150.59 256.123 150.823 256.364 151.056 256.588C151.912 257.41 152.855 258.184 153.882 258.787C155.718 259.863 158.723 258.416 160.464 257.727C160.898 257.556 161.341 257.364 161.657 257.021C162.171 256.464 162.24 255.642 162.283 254.885C162.309 254.438 162.333 253.98 162.268 253.539Z" fill="#E8C5BF"/>
<path d="M115.888 238.159C116.679 239.643 117.483 241.146 118.639 242.368C119.56 243.342 120.677 244.107 121.802 244.836C128.78 249.356 136.466 252.78 144.493 254.945C146.608 251.655 148.063 247.943 148.747 244.092C142.732 240.856 136.975 237.14 131.549 232.991C130.439 232.143 129.33 231.263 128.487 230.15C127.271 228.546 126.684 226.566 126.12 224.633C123.935 217.14 121.749 209.646 119.564 202.153C118.246 197.632 116.846 192.957 113.759 189.4C105.201 179.537 91.5646 188.854 95.5891 200.352C100.109 213.263 109.435 226.053 115.888 238.159Z" fill="#EBB044"/>
</svg>
